<svg width="299" height="149" viewBox="0 0 299 149" fill="none" xmlns="http://www.w3.org/2000/svg">
<path d="M44.1369 102.466C40.8897 102.6 38.5019 100.822 38.3421 96.9504L36.8977 61.9489C36.7379 58.0772 38.9711 56.1084 42.2184 55.9744C45.4344 55.8417 47.8222 57.6198 47.982 61.4915L49.4264 96.4929C49.5862 100.365 47.353 102.333 44.1369 102.466ZM67.4895 101.44C60.1832 101.741 54.8342 97.1768 54.5031 89.1524L53.8085 72.3229C53.6488 68.4512 55.882 66.4825 59.1292 66.3485C62.3452 66.2158 64.7331 67.9938 64.8929 71.8655L65.4882 86.2907C65.6544 90.3186 67.8353 92.3867 71.3011 92.2436C74.7356 92.1019 76.8156 89.4514 76.6571 85.6109L76.1005 72.1224C75.9407 68.2507 78.1427 66.2832 81.3899 66.1492L87.4161 65.9005C88.8523 65.8412 89.6007 65.0284 89.544 63.6546L89.4873 62.2808C89.3752 59.5643 90.8707 57.9075 93.4622 57.8006C96.085 57.6923 97.7132 59.2515 97.8253 61.968L97.9735 65.5587C98.1551 69.9612 95.5144 72.6661 90.8621 72.8581L87.209 73.0089L88.1174 95.0214C88.2746 98.8306 86.1637 100.732 82.9789 100.863C79.7941 100.995 77.5337 99.2739 77.3778 95.4958L77.3134 93.9347L77.0948 93.9437C75.7491 98.4718 72.6101 101.229 67.4895 101.44ZM115.324 99.4659C108.017 99.7674 102.668 95.2028 102.337 87.1784L101.643 70.3489C101.483 66.4772 103.716 64.5085 106.964 64.3745C110.18 64.2418 112.567 66.0198 112.727 69.8915L113.322 84.3168C113.489 88.3446 115.67 90.4127 119.135 90.2696C122.57 90.1279 124.65 87.4774 124.491 83.6369L123.905 69.4302C123.745 65.5585 125.947 63.5911 129.195 63.4571C132.442 63.3231 134.798 65.1024 134.958 68.9741L135.952 93.0474C136.109 96.8566 133.998 98.7578 130.813 98.8892C127.628 99.0206 125.368 97.2999 125.212 93.5218L125.148 91.9607L124.929 91.9697C123.583 96.4978 120.444 99.2545 115.324 99.4659ZM159.726 97.696C156.479 97.8301 154.091 96.052 153.931 92.1803L152.487 57.1788C152.327 53.3071 154.56 51.3384 157.807 51.2044C161.023 51.0717 163.411 52.8497 163.571 56.7214L165.016 91.7229C165.175 95.5946 162.942 97.5633 159.726 97.696ZM187.144 96.6584C176.434 97.1004 169.485 90.8816 169.017 79.5475C168.558 68.432 175.12 61.468 185.674 61.0325C196.29 60.5944 203.34 66.9654 203.8 78.1121C204.269 89.4775 197.854 96.2164 187.144 96.6584ZM186.809 88.5403C190.587 88.3844 192.848 84.8194 192.592 78.6059C192.339 72.4861 189.787 68.9947 186.009 69.1506C182.262 69.3052 180.006 72.9951 180.259 79.1149C180.515 85.3284 183 88.6975 186.809 88.5403ZM224.527 56.6768C222.467 56.7618 220.884 55.5448 220.812 53.7963C220.773 52.8596 220.937 52.2898 221.467 51.486L224.466 46.8584C225.7 44.9309 226.551 44.3328 228.144 44.2671C230.423 44.173 232.011 45.5149 232.096 47.5757C232.133 48.4812 231.795 49.3709 231.084 50.3385L227.764 54.7604C226.604 56.2157 225.995 56.6162 224.527 56.6768ZM218.948 95.0332C212.61 95.2947 207.347 91.3208 207.094 85.1698C206.831 78.8002 211.586 75.0385 220.369 74.1443L228.312 73.3474L228.232 71.4115C228.12 68.6951 226.122 67.2763 223.218 67.3961C220.845 67.494 219.562 68.2351 217.534 70.6332C216.307 71.9662 214.928 72.6487 213.242 72.7182C210.588 72.8278 208.646 71.2502 208.548 68.8772C208.516 68.0967 208.586 67.5308 208.809 66.8648C210.071 62.5903 215.648 59.7955 223.454 59.4734C232.54 59.0984 238.758 63.502 239.041 70.34L239.803 88.8242C239.959 92.6023 237.753 94.4761 234.6 94.6062C231.665 94.7273 229.51 93.2837 229.063 90.0494L229.031 89.2688L228.813 89.2778C227.112 92.7884 223.038 94.8644 218.948 95.0332ZM222.568 87.2523C225.94 87.1132 228.79 84.9313 228.665 81.9026L228.568 79.5609L222.403 80.2219C219.508 80.5603 217.908 81.9712 217.991 83.9695C218.08 86.1239 219.914 87.3618 222.568 87.2523ZM247.714 84.2129L247.024 67.5084L245.807 67.5586C243.34 67.6604 241.649 66.1038 241.548 63.6371C241.444 61.1393 243.002 59.4799 245.469 59.3781L246.687 59.3278L246.575 56.6114C246.426 53.0207 248.367 50.7825 251.895 50.6369C255.392 50.4926 257.511 52.5633 257.659 56.154L257.771 58.8704L260.456 58.7596C262.923 58.6578 264.614 60.2144 264.715 62.6811C264.817 65.1477 263.261 66.8383 260.794 66.9401L258.109 67.0509L258.698 81.32C258.785 83.4432 259.538 84.2566 261.106 84.3483L261.796 84.4137C264.275 84.5929 265.756 85.6264 265.862 88.1867C265.994 91.4028 262.564 93.1707 258.287 93.3472L258.006 93.3588C251.449 93.6294 247.974 90.52 247.714 84.2129Z" fill="url(#paint0_linear_36_13749)"/>
<path fill-rule="evenodd" clip-rule="evenodd" d="M9.62371 20.9601L5.38573 25.5629C2.81511 28.3548 2.99451 32.702 5.78642 35.2726C7.70603 37.0401 10.325 37.8391 12.9043 37.4443L18.9898 36.5127L19.0399 37.7271L22.4622 120.657L22.5361 122.448L16.3946 122.021C13.7915 121.84 11.2473 122.852 9.47982 124.771C6.90921 127.563 7.08861 131.91 9.88052 134.481L14.4833 138.719C17.2752 141.29 21.6224 141.11 24.193 138.318C25.9605 136.399 26.7595 133.78 26.3647 131.2L25.3452 124.541L26.6237 124.488L275.412 114.221L277.156 114.149L276.759 119.866C276.578 122.47 277.59 125.014 279.509 126.781C282.301 129.352 286.648 129.172 289.219 126.381L293.457 121.778C296.028 118.986 295.848 114.639 293.056 112.068C291.137 110.301 288.518 109.502 285.938 109.896L279.279 110.916L279.244 110.06L275.821 27.1304L275.769 25.8519L282.489 26.3192C285.093 26.5002 287.637 25.4881 289.404 23.5685C291.975 20.7765 291.795 16.4294 289.004 13.8587L284.401 9.62077C281.609 7.05015 277.262 7.22955 274.691 10.0215C272.924 11.9411 272.125 14.56 272.519 17.1393L273.451 23.2248L271.66 23.2987L22.8716 33.5656L21.6572 33.6157L22.0842 27.4742C22.2651 24.8711 21.253 22.3269 19.3334 20.5594C16.5415 17.9888 12.1943 18.1682 9.62371 20.9601ZM271.825 27.2953L23.0365 37.5622L26.4588 120.492L275.247 110.225L271.825 27.2953Z" fill="#8E59FF"/>
<path d="M177.122 118.566L154.648 107.504C150.85 105.634 146.451 108.578 146.731 112.803L148.388 137.796C148.698 142.468 154.332 144.641 157.698 141.388L166.136 133.233L176.892 128.542C181.184 126.67 181.323 120.634 177.122 118.566Z" fill="#1A1D1F" stroke="white" stroke-width="5"/>
<defs>
<linearGradient id="paint0_linear_36_13749" x1="-175.706" y1="87.9441" x2="265.141" y2="105.414" gradientUnits="userSpaceOnUse">
<stop stop-color="#EF673A"/>
<stop offset="1" stop-color="#FFBA1A"/>
</linearGradient>
</defs>
</svg>
