<svg width="375" height="966" viewBox="0 0 375 966" fill="none" xmlns="http://www.w3.org/2000/svg">
<mask id="mask0_108_1359" style="mask-type:luminance" maskUnits="userSpaceOnUse" x="0" y="0" width="1440" height="1032">
<path d="M1440 0H0V1032H720H1440V0Z" fill="white"/>
</mask>
<g mask="url(#mask0_108_1359)">
<rect width="1440" height="1032" fill="url(#paint0_linear_108_1359)"/>
<g opacity="0.3">
<path d="M367.969 942.505C367.969 942.402 367.962 942.305 367.942 942.209C367.804 941.541 367.212 941.038 366.502 941.038C365.793 941.038 365.201 941.541 365.063 942.209C365.043 942.305 365.036 942.402 365.036 942.505H367.969Z" fill="white"/>
<path d="M366.502 926.377C365.69 926.377 365.036 927.031 365.036 927.844C365.036 928.656 365.69 929.311 366.502 929.311C367.315 929.311 367.969 928.649 367.969 927.844C367.969 927.038 367.315 926.377 366.502 926.377Z" fill="white"/>
<path d="M360.642 935.171C360.642 934.358 359.988 933.704 359.176 933.704C358.363 933.704 357.709 934.358 357.709 935.171C357.709 935.983 358.363 936.638 359.176 936.638C359.988 936.638 360.642 935.983 360.642 935.171Z" fill="white"/>
<path d="M375.303 935.171C375.303 934.358 374.649 933.704 373.836 933.704C373.024 933.704 372.37 934.358 372.37 935.171C372.37 935.983 373.024 936.638 373.836 936.638C374.649 936.638 375.303 935.983 375.303 935.171Z" fill="white"/>
<path d="M357.709 920.51C357.709 921.322 358.363 921.977 359.176 921.977C359.988 921.977 360.642 921.322 360.642 920.51C360.642 919.897 360.27 919.381 359.74 919.153H358.611C358.081 919.374 357.709 919.897 357.709 920.51Z" fill="white"/>
<path d="M372.37 920.51C372.37 921.322 373.024 921.977 373.836 921.977C374.649 921.977 375.303 921.322 375.303 920.51C375.303 919.897 374.931 919.381 374.401 919.153H373.272C372.741 919.374 372.37 919.897 372.37 920.51Z" fill="white"/>
<path d="M353.308 942.505C353.308 942.402 353.302 942.305 353.281 942.209C353.205 941.83 352.978 941.499 352.661 941.286C352.427 941.128 352.145 941.038 351.842 941.038V942.505H353.308Z" fill="white"/>
<path d="M351.842 929.31C352.145 929.31 352.427 929.221 352.661 929.063C353.054 928.801 353.308 928.353 353.308 927.844C353.308 927.334 353.054 926.893 352.661 926.632C352.427 926.473 352.145 926.384 351.842 926.384V929.317V929.31Z" fill="white"/>
<path d="M366.502 958.633C367.315 958.633 367.969 957.972 367.969 957.166C367.969 956.36 367.315 955.699 366.502 955.699C365.69 955.699 365.036 956.353 365.036 957.166C365.036 957.979 365.69 958.633 366.502 958.633Z" fill="white"/>
<path d="M359.176 965.959C359.988 965.959 360.642 965.305 360.642 964.492C360.642 963.68 359.988 963.025 359.176 963.025C358.363 963.025 357.709 963.68 357.709 964.492C357.709 965.305 358.363 965.959 359.176 965.959Z" fill="white"/>
<path d="M373.836 965.959C374.649 965.959 375.303 965.305 375.303 964.492C375.303 963.68 374.649 963.025 373.836 963.025C373.024 963.025 372.37 963.68 372.37 964.492C372.37 965.305 373.024 965.959 373.836 965.959Z" fill="white"/>
<path d="M359.176 951.299C359.988 951.299 360.642 950.645 360.642 949.832C360.642 949.019 359.988 948.365 359.176 948.365C358.363 948.365 357.709 949.019 357.709 949.832C357.709 950.645 358.363 951.299 359.176 951.299Z" fill="white"/>
<path d="M373.836 951.299C374.649 951.299 375.303 950.645 375.303 949.832C375.303 949.019 374.649 948.365 373.836 948.365C373.024 948.365 372.37 949.019 372.37 949.832C372.37 950.645 373.024 951.299 373.836 951.299Z" fill="white"/>
<path d="M352.661 958.385C353.054 958.123 353.308 957.676 353.308 957.166C353.308 956.656 353.054 956.216 352.661 955.954C352.427 955.796 352.145 955.706 351.842 955.706V958.64C352.145 958.64 352.427 958.55 352.661 958.392V958.385Z" fill="white"/>
<path d="M366.502 943.972C367.315 943.972 367.969 943.317 367.969 942.505H365.036C365.036 943.317 365.69 943.972 366.502 943.972Z" fill="white"/>
<path d="M351.842 943.972C352.145 943.972 352.427 943.882 352.661 943.724C353.054 943.462 353.308 943.014 353.308 942.512H351.842V943.978V943.972Z" fill="white"/>
<path d="M351.842 942.505V941.038C351.132 941.038 350.54 941.541 350.403 942.209C350.382 942.305 350.375 942.402 350.375 942.505H351.842Z" fill="white"/>
<path d="M338.647 942.505C338.647 942.402 338.64 942.305 338.62 942.209C338.482 941.541 337.89 941.038 337.181 941.038C336.471 941.038 335.879 941.541 335.748 942.209C335.728 942.305 335.721 942.402 335.721 942.505H338.654H338.647Z" fill="white"/>
<path d="M350.375 927.844C350.375 928.656 351.029 929.311 351.842 929.311V926.377C351.029 926.377 350.375 927.031 350.375 927.844Z" fill="white"/>
<path d="M337.181 926.377C336.368 926.377 335.714 927.031 335.714 927.844C335.714 928.656 336.368 929.311 337.181 929.311C337.993 929.311 338.647 928.649 338.647 927.844C338.647 927.038 337.993 926.377 337.181 926.377Z" fill="white"/>
<path d="M331.32 935.171C331.32 934.358 330.666 933.704 329.854 933.704C329.041 933.704 328.387 934.358 328.387 935.171C328.387 935.983 329.041 936.638 329.854 936.638C330.666 936.638 331.32 935.983 331.32 935.171Z" fill="white"/>
<path d="M345.981 935.171C345.981 934.358 345.327 933.704 344.515 933.704C343.702 933.704 343.048 934.358 343.048 935.171C343.048 935.983 343.702 936.638 344.515 936.638C345.327 936.638 345.981 935.983 345.981 935.171Z" fill="white"/>
<path d="M328.387 920.51C328.387 921.322 329.041 921.977 329.854 921.977C330.666 921.977 331.32 921.322 331.32 920.51C331.32 919.897 330.949 919.381 330.418 919.153H329.289C328.759 919.374 328.387 919.897 328.387 920.51Z" fill="white"/>
<path d="M343.048 920.51C343.048 921.322 343.702 921.977 344.515 921.977C345.327 921.977 345.981 921.322 345.981 920.51C345.981 919.897 345.61 919.381 345.079 919.153H343.95C343.42 919.374 343.048 919.897 343.048 920.51Z" fill="white"/>
<path d="M323.987 942.505C323.987 942.402 323.98 942.305 323.959 942.209C323.842 941.637 323.394 941.183 322.816 941.066C322.719 941.045 322.623 941.038 322.52 941.038V942.505H323.987Z" fill="white"/>
<path d="M322.52 929.311C322.623 929.311 322.719 929.304 322.816 929.283C323.484 929.145 323.987 928.553 323.987 927.844C323.987 927.134 323.484 926.542 322.816 926.404C322.719 926.384 322.623 926.377 322.52 926.377V929.311Z" fill="white"/>
<path d="M351.842 958.633V955.699C351.029 955.699 350.375 956.353 350.375 957.166C350.375 957.979 351.029 958.633 351.842 958.633Z" fill="white"/>
<path d="M337.181 958.633C337.993 958.633 338.647 957.972 338.647 957.166C338.647 956.36 337.993 955.699 337.181 955.699C336.368 955.699 335.714 956.353 335.714 957.166C335.714 957.979 336.368 958.633 337.181 958.633Z" fill="white"/>
<path d="M329.854 965.959C330.666 965.959 331.32 965.305 331.32 964.492C331.32 963.68 330.666 963.025 329.854 963.025C329.041 963.025 328.387 963.68 328.387 964.492C328.387 965.305 329.041 965.959 329.854 965.959Z" fill="white"/>
<path d="M344.515 965.959C345.327 965.959 345.981 965.305 345.981 964.492C345.981 963.68 345.327 963.025 344.515 963.025C343.702 963.025 343.048 963.68 343.048 964.492C343.048 965.305 343.702 965.959 344.515 965.959Z" fill="white"/>
<path d="M329.854 951.299C330.666 951.299 331.32 950.645 331.32 949.832C331.32 949.019 330.666 948.365 329.854 948.365C329.041 948.365 328.387 949.019 328.387 949.832C328.387 950.645 329.041 951.299 329.854 951.299Z" fill="white"/>
<path d="M344.515 951.299C345.327 951.299 345.981 950.645 345.981 949.832C345.981 949.019 345.327 948.365 344.515 948.365C343.702 948.365 343.048 949.019 343.048 949.832C343.048 950.645 343.702 951.299 344.515 951.299Z" fill="white"/>
<path d="M322.816 958.605C323.484 958.468 323.987 957.875 323.987 957.166C323.987 956.457 323.484 955.864 322.816 955.727C322.719 955.706 322.623 955.699 322.52 955.699V958.633C322.623 958.633 322.719 958.626 322.816 958.605Z" fill="white"/>
<path d="M350.375 942.505C350.375 943.317 351.029 943.972 351.842 943.972V942.505H350.375Z" fill="white"/>
<path d="M337.181 943.972C337.993 943.972 338.647 943.317 338.647 942.505H335.714C335.714 943.317 336.368 943.972 337.181 943.972Z" fill="white"/>
<path d="M322.52 943.972C322.623 943.972 322.719 943.965 322.816 943.944C323.484 943.806 323.987 943.214 323.987 942.505H322.52V943.972Z" fill="white"/>
<path d="M322.52 942.505V941.038C322.32 941.038 322.127 941.079 321.948 941.155C321.508 941.341 321.177 941.734 321.081 942.209C321.06 942.305 321.053 942.402 321.053 942.505H322.52Z" fill="white"/>
<path d="M309.326 942.505C309.326 942.402 309.319 942.305 309.298 942.209C309.16 941.541 308.568 941.038 307.859 941.038C307.15 941.038 306.557 941.541 306.427 942.209C306.406 942.305 306.399 942.402 306.399 942.505H309.333H309.326Z" fill="white"/>
<path d="M321.948 926.487C321.425 926.708 321.053 927.231 321.053 927.837C321.053 928.443 321.425 928.966 321.948 929.187C322.12 929.262 322.313 929.304 322.52 929.304V926.37C322.32 926.37 322.127 926.411 321.948 926.487Z" fill="white"/>
<path d="M307.859 926.377C307.046 926.377 306.392 927.031 306.392 927.844C306.392 928.656 307.046 929.311 307.859 929.311C308.671 929.311 309.326 928.649 309.326 927.844C309.326 927.038 308.671 926.377 307.859 926.377Z" fill="white"/>
<path d="M301.992 935.171C301.992 934.358 301.338 933.704 300.525 933.704C299.713 933.704 299.058 934.358 299.058 935.171C299.058 935.983 299.713 936.638 300.525 936.638C301.338 936.638 301.992 935.983 301.992 935.171Z" fill="white"/>
<path d="M316.66 935.171C316.66 934.358 316.005 933.704 315.193 933.704C314.38 933.704 313.726 934.358 313.726 935.171C313.726 935.983 314.38 936.638 315.193 936.638C316.005 936.638 316.66 935.983 316.66 935.171Z" fill="white"/>
<path d="M299.065 920.51C299.065 921.322 299.719 921.977 300.532 921.977C301.345 921.977 301.999 921.322 301.999 920.51C301.999 919.897 301.627 919.381 301.097 919.153H299.967C299.437 919.374 299.065 919.897 299.065 920.51Z" fill="white"/>
<path d="M313.726 920.51C313.726 921.322 314.38 921.977 315.193 921.977C316.005 921.977 316.66 921.322 316.66 920.51C316.66 919.897 316.288 919.381 315.758 919.153H314.628C314.098 919.374 313.726 919.897 313.726 920.51Z" fill="white"/>
<path d="M294.665 942.505C294.665 942.402 294.658 942.305 294.637 942.209C294.561 941.83 294.334 941.499 294.017 941.286C293.783 941.128 293.501 941.038 293.198 941.038V942.505H294.665Z" fill="white"/>
<path d="M293.198 929.31C293.501 929.31 293.783 929.221 294.017 929.063C294.41 928.801 294.665 928.353 294.665 927.844C294.665 927.334 294.41 926.893 294.017 926.632C293.783 926.473 293.501 926.384 293.198 926.384V929.317V929.31Z" fill="white"/>
<path d="M321.948 958.516C322.12 958.591 322.313 958.633 322.52 958.633V955.699C322.32 955.699 322.127 955.741 321.948 955.816C321.425 956.037 321.053 956.56 321.053 957.166C321.053 957.772 321.425 958.295 321.948 958.516Z" fill="white"/>
<path d="M307.859 958.633C308.671 958.633 309.326 957.972 309.326 957.166C309.326 956.36 308.671 955.699 307.859 955.699C307.046 955.699 306.392 956.353 306.392 957.166C306.392 957.979 307.046 958.633 307.859 958.633Z" fill="white"/>
<path d="M300.525 965.959C301.338 965.959 301.992 965.305 301.992 964.492C301.992 963.68 301.338 963.025 300.525 963.025C299.713 963.025 299.058 963.68 299.058 964.492C299.058 965.305 299.713 965.959 300.525 965.959Z" fill="white"/>
<path d="M315.193 965.959C316.005 965.959 316.66 965.305 316.66 964.492C316.66 963.68 316.005 963.025 315.193 963.025C314.38 963.025 313.726 963.68 313.726 964.492C313.726 965.305 314.38 965.959 315.193 965.959Z" fill="white"/>
<path d="M300.525 951.299C301.338 951.299 301.992 950.645 301.992 949.832C301.992 949.019 301.338 948.365 300.525 948.365C299.713 948.365 299.058 949.019 299.058 949.832C299.058 950.645 299.713 951.299 300.525 951.299Z" fill="white"/>
<path d="M315.193 951.299C316.005 951.299 316.66 950.645 316.66 949.832C316.66 949.019 316.005 948.365 315.193 948.365C314.38 948.365 313.726 949.019 313.726 949.832C313.726 950.645 314.38 951.299 315.193 951.299Z" fill="white"/>
<path d="M294.017 958.385C294.41 958.123 294.665 957.676 294.665 957.166C294.665 956.656 294.41 956.216 294.017 955.954C293.783 955.796 293.501 955.706 293.198 955.706V958.64C293.501 958.64 293.783 958.55 294.017 958.392V958.385Z" fill="white"/>
<path d="M321.053 942.505C321.053 943.111 321.425 943.634 321.948 943.855C322.12 943.93 322.313 943.972 322.52 943.972V942.505H321.053Z" fill="white"/>
<path d="M307.859 943.972C308.671 943.972 309.326 943.317 309.326 942.505H306.392C306.392 943.317 307.046 943.972 307.859 943.972Z" fill="white"/>
<path d="M293.198 943.972C293.501 943.972 293.783 943.882 294.017 943.724C294.41 943.462 294.665 943.014 294.665 942.512H293.198V943.978V943.972Z" fill="white"/>
<path d="M293.198 942.505V941.038C292.998 941.038 292.805 941.079 292.626 941.155C292.186 941.341 291.855 941.734 291.759 942.209C291.738 942.305 291.731 942.402 291.731 942.505H293.198Z" fill="white"/>
<path d="M280.004 942.505C280.004 942.402 279.997 942.305 279.976 942.209C279.839 941.541 279.246 941.038 278.537 941.038C277.828 941.038 277.236 941.541 277.098 942.209C277.077 942.305 277.07 942.402 277.07 942.505H280.004Z" fill="white"/>
<path d="M292.626 926.487C292.103 926.708 291.731 927.231 291.731 927.837C291.731 928.443 292.103 928.966 292.626 929.187C292.799 929.262 292.991 929.304 293.198 929.304V926.37C292.998 926.37 292.805 926.411 292.626 926.487Z" fill="white"/>
<path d="M278.537 926.377C277.725 926.377 277.07 927.031 277.07 927.844C277.07 928.656 277.725 929.311 278.537 929.311C279.35 929.311 280.004 928.649 280.004 927.844C280.004 927.038 279.35 926.377 278.537 926.377Z" fill="white"/>
<path d="M272.67 935.171C272.67 934.358 272.016 933.704 271.203 933.704C270.391 933.704 269.737 934.358 269.737 935.171C269.737 935.983 270.391 936.638 271.203 936.638C272.016 936.638 272.67 935.983 272.67 935.171Z" fill="white"/>
<path d="M287.331 935.171C287.331 934.358 286.677 933.704 285.864 933.704C285.052 933.704 284.397 934.358 284.397 935.171C284.397 935.983 285.052 936.638 285.864 936.638C286.677 936.638 287.331 935.983 287.331 935.171Z" fill="white"/>
<path d="M269.737 920.51C269.737 921.322 270.391 921.977 271.203 921.977C272.016 921.977 272.67 921.322 272.67 920.51C272.67 919.897 272.298 919.381 271.768 919.153H270.639C270.108 919.374 269.737 919.897 269.737 920.51Z" fill="white"/>
<path d="M284.397 920.51C284.397 921.322 285.052 921.977 285.864 921.977C286.677 921.977 287.331 921.322 287.331 920.51C287.331 919.897 286.959 919.381 286.429 919.153H285.3C284.769 919.374 284.397 919.897 284.397 920.51Z" fill="white"/>
<path d="M265.343 942.505C265.343 942.402 265.336 942.305 265.315 942.209C265.178 941.541 264.586 941.038 263.876 941.038V942.505H265.343Z" fill="white"/>
<path d="M263.876 926.377V929.311C264.689 929.311 265.343 928.649 265.343 927.844C265.343 927.038 264.689 926.377 263.876 926.377Z" fill="white"/>
<path d="M292.626 958.516C292.799 958.591 292.991 958.633 293.198 958.633V955.699C292.998 955.699 292.805 955.741 292.626 955.816C292.103 956.037 291.731 956.56 291.731 957.166C291.731 957.772 292.103 958.295 292.626 958.516Z" fill="white"/>
<path d="M278.537 958.633C279.35 958.633 280.004 957.972 280.004 957.166C280.004 956.36 279.35 955.699 278.537 955.699C277.725 955.699 277.07 956.353 277.07 957.166C277.07 957.979 277.725 958.633 278.537 958.633Z" fill="white"/>
<path d="M271.203 965.959C272.016 965.959 272.67 965.305 272.67 964.492C272.67 963.68 272.016 963.025 271.203 963.025C270.391 963.025 269.737 963.68 269.737 964.492C269.737 965.305 270.391 965.959 271.203 965.959Z" fill="white"/>
<path d="M285.864 965.959C286.677 965.959 287.331 965.305 287.331 964.492C287.331 963.68 286.677 963.025 285.864 963.025C285.052 963.025 284.397 963.68 284.397 964.492C284.397 965.305 285.052 965.959 285.864 965.959Z" fill="white"/>
<path d="M271.203 951.299C272.016 951.299 272.67 950.645 272.67 949.832C272.67 949.019 272.016 948.365 271.203 948.365C270.391 948.365 269.737 949.019 269.737 949.832C269.737 950.645 270.391 951.299 271.203 951.299Z" fill="white"/>
<path d="M285.864 951.299C286.677 951.299 287.331 950.645 287.331 949.832C287.331 949.019 286.677 948.365 285.864 948.365C285.052 948.365 284.397 949.019 284.397 949.832C284.397 950.645 285.052 951.299 285.864 951.299Z" fill="white"/>
<path d="M265.343 957.166C265.343 956.353 264.689 955.699 263.876 955.699V958.633C264.689 958.633 265.343 957.972 265.343 957.166Z" fill="white"/>
<path d="M291.731 942.505C291.731 943.111 292.103 943.634 292.626 943.855C292.799 943.93 292.991 943.972 293.198 943.972V942.505H291.731Z" fill="white"/>
<path d="M278.537 943.972C279.35 943.972 280.004 943.317 280.004 942.505H277.07C277.07 943.317 277.725 943.972 278.537 943.972Z" fill="white"/>
<path d="M263.876 943.972C264.689 943.972 265.343 943.317 265.343 942.505H263.876V943.972Z" fill="white"/>
<path d="M263.876 942.505V941.038C263.167 941.038 262.575 941.541 262.437 942.209C262.416 942.305 262.41 942.402 262.41 942.505H263.876Z" fill="white"/>
<path d="M250.682 942.505C250.682 942.402 250.675 942.305 250.655 942.209C250.517 941.541 249.925 941.038 249.215 941.038C248.506 941.038 247.914 941.541 247.776 942.209C247.755 942.305 247.749 942.402 247.749 942.505H250.682Z" fill="white"/>
<path d="M262.41 927.844C262.41 928.656 263.064 929.311 263.876 929.311V926.377C263.064 926.377 262.41 927.031 262.41 927.844Z" fill="white"/>
<path d="M249.215 926.377C248.403 926.377 247.749 927.031 247.749 927.844C247.749 928.656 248.403 929.311 249.215 929.311C250.028 929.311 250.682 928.649 250.682 927.844C250.682 927.038 250.028 926.377 249.215 926.377Z" fill="white"/>
<path d="M243.348 935.171C243.348 934.358 242.694 933.704 241.882 933.704C241.372 933.704 240.924 933.966 240.663 934.358V935.983C240.924 936.376 241.372 936.638 241.882 936.638C242.694 936.638 243.348 935.983 243.348 935.171Z" fill="white"/>
<path d="M258.009 935.171C258.009 934.358 257.355 933.704 256.543 933.704C255.73 933.704 255.076 934.358 255.076 935.171C255.076 935.983 255.73 936.638 256.543 936.638C257.355 936.638 258.009 935.983 258.009 935.171Z" fill="white"/>
<path d="M240.663 919.697V921.322C240.924 921.715 241.372 921.977 241.881 921.977C242.694 921.977 243.348 921.322 243.348 920.51C243.348 919.897 242.976 919.381 242.446 919.153H241.317C241.048 919.264 240.821 919.456 240.663 919.697Z" fill="white"/>
<path d="M255.076 920.51C255.076 921.322 255.73 921.977 256.543 921.977C257.355 921.977 258.009 921.322 258.009 920.51C258.009 919.897 257.637 919.381 257.107 919.153H255.978C255.448 919.374 255.076 919.897 255.076 920.51Z" fill="white"/>
<path d="M263.876 958.633V955.699C263.064 955.699 262.41 956.353 262.41 957.166C262.41 957.979 263.064 958.633 263.876 958.633Z" fill="white"/>
<path d="M249.215 958.633C250.028 958.633 250.682 957.972 250.682 957.166C250.682 956.36 250.028 955.699 249.215 955.699C248.403 955.699 247.749 956.353 247.749 957.166C247.749 957.979 248.403 958.633 249.215 958.633Z" fill="white"/>
<path d="M241.882 965.959C242.694 965.959 243.348 965.305 243.348 964.492C243.348 963.68 242.694 963.025 241.882 963.025C241.372 963.025 240.924 963.287 240.663 963.68V965.305C240.924 965.697 241.372 965.959 241.882 965.959Z" fill="white"/>
<path d="M256.543 965.959C257.355 965.959 258.009 965.305 258.009 964.492C258.009 963.68 257.355 963.025 256.543 963.025C255.73 963.025 255.076 963.68 255.076 964.492C255.076 965.305 255.73 965.959 256.543 965.959Z" fill="white"/>
<path d="M240.663 950.645C240.924 951.037 241.372 951.299 241.882 951.299C242.694 951.299 243.348 950.645 243.348 949.832C243.348 949.019 242.694 948.365 241.882 948.365C241.372 948.365 240.924 948.627 240.663 949.019V950.645Z" fill="white"/>
<path d="M256.543 951.299C257.355 951.299 258.009 950.645 258.009 949.832C258.009 949.019 257.355 948.365 256.543 948.365C255.73 948.365 255.076 949.019 255.076 949.832C255.076 950.645 255.73 951.299 256.543 951.299Z" fill="white"/>
<path d="M262.41 942.505C262.41 943.317 263.064 943.972 263.876 943.972V942.505H262.41Z" fill="white"/>
<path d="M249.215 943.972C250.028 943.972 250.682 943.317 250.682 942.505H247.749C247.749 943.317 248.403 943.972 249.215 943.972Z" fill="white"/>
</g>
<g opacity="0.3">
<path d="M236.51 942.505C236.51 942.402 236.503 942.305 236.483 942.209C236.345 941.541 235.753 941.038 235.043 941.038C234.334 941.038 233.742 941.541 233.604 942.209C233.583 942.305 233.577 942.402 233.577 942.505H236.51Z" fill="white"/>
<path d="M235.043 926.377C234.231 926.377 233.577 927.031 233.577 927.844C233.577 928.656 234.231 929.311 235.043 929.311C235.856 929.311 236.51 928.649 236.51 927.844C236.51 927.038 235.856 926.377 235.043 926.377Z" fill="white"/>
<path d="M229.176 935.171C229.176 934.358 228.522 933.704 227.709 933.704C226.897 933.704 226.243 934.358 226.243 935.171C226.243 935.983 226.897 936.638 227.709 936.638C228.522 936.638 229.176 935.983 229.176 935.171Z" fill="white"/>
<path d="M226.243 920.51C226.243 921.322 226.897 921.977 227.709 921.977C228.522 921.977 229.176 921.322 229.176 920.51C229.176 919.897 228.804 919.381 228.274 919.153H227.145C226.615 919.374 226.243 919.897 226.243 920.51Z" fill="white"/>
<path d="M221.849 942.505C221.849 942.402 221.842 942.305 221.822 942.209C221.705 941.637 221.257 941.183 220.679 941.066C220.582 941.045 220.486 941.038 220.383 941.038V942.505H221.849Z" fill="white"/>
<path d="M220.383 929.311C220.486 929.311 220.582 929.304 220.679 929.283C221.347 929.145 221.849 928.553 221.849 927.844C221.849 927.134 221.347 926.542 220.679 926.404C220.582 926.384 220.486 926.377 220.383 926.377V929.311Z" fill="white"/>
<path d="M235.043 958.633C235.856 958.633 236.51 957.972 236.51 957.166C236.51 956.36 235.856 955.699 235.043 955.699C234.231 955.699 233.577 956.353 233.577 957.166C233.577 957.979 234.231 958.633 235.043 958.633Z" fill="white"/>
<path d="M227.709 965.959C228.522 965.959 229.176 965.305 229.176 964.492C229.176 963.68 228.522 963.025 227.709 963.025C226.897 963.025 226.243 963.68 226.243 964.492C226.243 965.305 226.897 965.959 227.709 965.959Z" fill="white"/>
<path d="M227.709 951.299C228.522 951.299 229.176 950.645 229.176 949.832C229.176 949.019 228.522 948.365 227.709 948.365C226.897 948.365 226.243 949.019 226.243 949.832C226.243 950.645 226.897 951.299 227.709 951.299Z" fill="white"/>
<path d="M220.679 958.605C221.347 958.468 221.849 957.875 221.849 957.166C221.849 956.457 221.347 955.864 220.679 955.727C220.582 955.706 220.486 955.699 220.383 955.699V958.633C220.486 958.633 220.582 958.626 220.679 958.605Z" fill="white"/>
<path d="M235.043 943.972C235.856 943.972 236.51 943.317 236.51 942.505H233.577C233.577 943.317 234.231 943.972 235.043 943.972Z" fill="white"/>
<path d="M220.383 943.972C220.486 943.972 220.582 943.965 220.679 943.944C221.347 943.806 221.849 943.214 221.849 942.505H220.383V943.972Z" fill="white"/>
<path d="M220.382 942.505V941.038C220.183 941.038 219.99 941.079 219.811 941.155C219.37 941.341 219.04 941.734 218.943 942.209C218.923 942.305 218.916 942.402 218.916 942.505H220.382Z" fill="white"/>
<path d="M207.188 942.505C207.188 942.402 207.182 942.305 207.161 942.209C207.023 941.541 206.431 941.038 205.722 941.038C205.012 941.038 204.42 941.541 204.282 942.209C204.262 942.305 204.255 942.402 204.255 942.505H207.188Z" fill="white"/>
<path d="M219.811 926.487C219.287 926.708 218.916 927.231 218.916 927.837C218.916 928.443 219.287 928.966 219.811 929.187C219.983 929.262 220.176 929.304 220.382 929.304V926.37C220.183 926.37 219.99 926.411 219.811 926.487Z" fill="white"/>
<path d="M205.722 926.377C204.909 926.377 204.255 927.031 204.255 927.844C204.255 928.656 204.909 929.311 205.722 929.311C206.534 929.311 207.188 928.649 207.188 927.844C207.188 927.038 206.534 926.377 205.722 926.377Z" fill="white"/>
<path d="M199.855 935.171C199.855 934.358 199.201 933.704 198.388 933.704C197.575 933.704 196.921 934.358 196.921 935.171C196.921 935.983 197.575 936.638 198.388 936.638C199.201 936.638 199.855 935.983 199.855 935.171Z" fill="white"/>
<path d="M214.515 935.171C214.515 934.358 213.861 933.704 213.049 933.704C212.236 933.704 211.582 934.358 211.582 935.171C211.582 935.983 212.236 936.638 213.049 936.638C213.861 936.638 214.515 935.983 214.515 935.171Z" fill="white"/>
<path d="M196.921 920.51C196.921 921.322 197.575 921.977 198.388 921.977C199.201 921.977 199.855 921.322 199.855 920.51C199.855 919.897 199.483 919.381 198.953 919.153H197.823C197.293 919.374 196.921 919.897 196.921 920.51Z" fill="white"/>
<path d="M211.582 920.51C211.582 921.322 212.236 921.977 213.049 921.977C213.861 921.977 214.515 921.322 214.515 920.51C214.515 919.897 214.144 919.381 213.613 919.153H212.484C211.954 919.374 211.582 919.897 211.582 920.51Z" fill="white"/>
<path d="M192.528 942.505C192.528 942.402 192.521 942.305 192.5 942.209C192.424 941.83 192.197 941.499 191.88 941.286C191.646 941.128 191.364 941.038 191.061 941.038V942.505H192.528Z" fill="white"/>
<path d="M191.061 929.31C191.364 929.31 191.646 929.221 191.88 929.063C192.273 928.801 192.528 928.353 192.528 927.844C192.528 927.334 192.273 926.893 191.88 926.632C191.646 926.473 191.364 926.384 191.061 926.384V929.317V929.31Z" fill="white"/>
<path d="M219.811 958.516C219.983 958.591 220.176 958.633 220.382 958.633V955.699C220.183 955.699 219.99 955.741 219.811 955.816C219.287 956.037 218.916 956.56 218.916 957.166C218.916 957.772 219.287 958.295 219.811 958.516Z" fill="white"/>
<path d="M205.722 958.633C206.534 958.633 207.188 957.972 207.188 957.166C207.188 956.36 206.534 955.699 205.722 955.699C204.909 955.699 204.255 956.353 204.255 957.166C204.255 957.979 204.909 958.633 205.722 958.633Z" fill="white"/>
<path d="M198.388 965.959C199.201 965.959 199.855 965.305 199.855 964.492C199.855 963.68 199.201 963.025 198.388 963.025C197.575 963.025 196.921 963.68 196.921 964.492C196.921 965.305 197.575 965.959 198.388 965.959Z" fill="white"/>
<path d="M213.049 965.959C213.861 965.959 214.515 965.305 214.515 964.492C214.515 963.68 213.861 963.025 213.049 963.025C212.236 963.025 211.582 963.68 211.582 964.492C211.582 965.305 212.236 965.959 213.049 965.959Z" fill="white"/>
<path d="M198.388 951.299C199.201 951.299 199.855 950.645 199.855 949.832C199.855 949.019 199.201 948.365 198.388 948.365C197.575 948.365 196.921 949.019 196.921 949.832C196.921 950.645 197.575 951.299 198.388 951.299Z" fill="white"/>
<path d="M213.049 951.299C213.861 951.299 214.515 950.645 214.515 949.832C214.515 949.019 213.861 948.365 213.049 948.365C212.236 948.365 211.582 949.019 211.582 949.832C211.582 950.645 212.236 951.299 213.049 951.299Z" fill="white"/>
<path d="M191.88 958.385C192.273 958.123 192.528 957.676 192.528 957.166C192.528 956.656 192.273 956.216 191.88 955.954C191.646 955.796 191.364 955.706 191.061 955.706V958.64C191.364 958.64 191.646 958.55 191.88 958.392V958.385Z" fill="white"/>
<path d="M218.916 942.505C218.916 943.111 219.287 943.634 219.811 943.855C219.983 943.93 220.176 943.972 220.382 943.972V942.505H218.916Z" fill="white"/>
<path d="M205.722 943.972C206.534 943.972 207.188 943.317 207.188 942.505H204.255C204.255 943.317 204.909 943.972 205.722 943.972Z" fill="white"/>
<path d="M191.061 943.972C191.364 943.972 191.646 943.882 191.88 943.724C192.273 943.462 192.528 943.014 192.528 942.512H191.061V943.978V943.972Z" fill="white"/>
<path d="M191.061 942.505V941.038C190.861 941.038 190.668 941.079 190.489 941.155C190.048 941.341 189.718 941.734 189.622 942.209C189.601 942.305 189.594 942.402 189.594 942.505H191.061Z" fill="white"/>
<path d="M177.867 942.505C177.867 942.402 177.86 942.305 177.839 942.209C177.701 941.541 177.109 941.038 176.4 941.038C175.691 941.038 175.098 941.541 174.967 942.209C174.947 942.305 174.94 942.402 174.94 942.505H177.873H177.867Z" fill="white"/>
<path d="M190.489 926.487C189.966 926.708 189.594 927.231 189.594 927.837C189.594 928.443 189.966 928.966 190.489 929.187C190.661 929.262 190.861 929.304 191.061 929.304V926.37C190.861 926.37 190.668 926.411 190.489 926.487Z" fill="white"/>
<path d="M176.4 926.377C175.587 926.377 174.933 927.031 174.933 927.844C174.933 928.656 175.587 929.311 176.4 929.311C177.212 929.311 177.867 928.649 177.867 927.844C177.867 927.038 177.212 926.377 176.4 926.377Z" fill="white"/>
<path d="M170.533 935.171C170.533 934.358 169.879 933.704 169.066 933.704C168.254 933.704 167.599 934.358 167.599 935.171C167.599 935.983 168.254 936.638 169.066 936.638C169.879 936.638 170.533 935.983 170.533 935.171Z" fill="white"/>
<path d="M185.194 935.171C185.194 934.358 184.539 933.704 183.727 933.704C182.914 933.704 182.26 934.358 182.26 935.171C182.26 935.983 182.914 936.638 183.727 936.638C184.539 936.638 185.194 935.983 185.194 935.171Z" fill="white"/>
<path d="M167.599 920.51C167.599 921.322 168.254 921.977 169.066 921.977C169.879 921.977 170.533 921.322 170.533 920.51C170.533 919.897 170.161 919.381 169.631 919.153H168.501C167.971 919.374 167.599 919.897 167.599 920.51Z" fill="white"/>
<path d="M182.26 920.51C182.26 921.322 182.914 921.977 183.727 921.977C184.539 921.977 185.194 921.322 185.194 920.51C185.194 919.897 184.822 919.381 184.291 919.153H183.162C182.632 919.374 182.26 919.897 182.26 920.51Z" fill="white"/>
<path d="M163.199 942.505C163.199 942.402 163.192 942.305 163.171 942.209C163.034 941.541 162.441 941.038 161.739 941.038V942.505H163.206H163.199Z" fill="white"/>
<path d="M161.739 926.377V929.311C162.552 929.311 163.206 928.649 163.206 927.844C163.206 927.038 162.552 926.377 161.739 926.377Z" fill="white"/>
<path d="M190.489 958.516C190.661 958.591 190.861 958.633 191.061 958.633V955.699C190.861 955.699 190.668 955.741 190.489 955.816C189.966 956.037 189.594 956.56 189.594 957.166C189.594 957.772 189.966 958.295 190.489 958.516Z" fill="white"/>
<path d="M176.4 958.633C177.212 958.633 177.867 957.972 177.867 957.166C177.867 956.36 177.212 955.699 176.4 955.699C175.587 955.699 174.933 956.353 174.933 957.166C174.933 957.979 175.587 958.633 176.4 958.633Z" fill="white"/>
<path d="M169.066 965.959C169.879 965.959 170.533 965.305 170.533 964.492C170.533 963.68 169.879 963.025 169.066 963.025C168.254 963.025 167.599 963.68 167.599 964.492C167.599 965.305 168.254 965.959 169.066 965.959Z" fill="white"/>
<path d="M183.727 965.959C184.539 965.959 185.194 965.305 185.194 964.492C185.194 963.68 184.539 963.025 183.727 963.025C182.914 963.025 182.26 963.68 182.26 964.492C182.26 965.305 182.914 965.959 183.727 965.959Z" fill="white"/>
<path d="M169.066 951.299C169.879 951.299 170.533 950.645 170.533 949.832C170.533 949.019 169.879 948.365 169.066 948.365C168.254 948.365 167.599 949.019 167.599 949.832C167.599 950.645 168.254 951.299 169.066 951.299Z" fill="white"/>
<path d="M183.727 951.299C184.539 951.299 185.194 950.645 185.194 949.832C185.194 949.019 184.539 948.365 183.727 948.365C182.914 948.365 182.26 949.019 182.26 949.832C182.26 950.645 182.914 951.299 183.727 951.299Z" fill="white"/>
<path d="M163.199 957.166C163.199 956.353 162.545 955.699 161.732 955.699V958.633C162.545 958.633 163.199 957.972 163.199 957.166Z" fill="white"/>
<path d="M189.594 942.505C189.594 943.111 189.966 943.634 190.489 943.855C190.661 943.93 190.861 943.972 191.061 943.972V942.505H189.594Z" fill="white"/>
<path d="M176.4 943.972C177.212 943.972 177.867 943.317 177.867 942.505H174.933C174.933 943.317 175.587 943.972 176.4 943.972Z" fill="white"/>
<path d="M161.739 943.972C162.552 943.972 163.206 943.317 163.206 942.505H161.739V943.972Z" fill="white"/>
<path d="M161.739 942.505V941.038C161.03 941.038 160.438 941.541 160.3 942.209C160.279 942.305 160.272 942.402 160.272 942.505H161.739Z" fill="white"/>
<path d="M148.538 942.505C148.538 942.402 148.531 942.305 148.51 942.209C148.373 941.541 147.78 941.038 147.071 941.038C146.362 941.038 145.77 941.541 145.632 942.209C145.611 942.305 145.604 942.402 145.604 942.505H148.538Z" fill="white"/>
<path d="M160.272 927.844C160.272 928.656 160.927 929.311 161.739 929.311V926.377C160.927 926.377 160.272 927.031 160.272 927.844Z" fill="white"/>
<path d="M147.071 926.377C146.259 926.377 145.604 927.031 145.604 927.844C145.604 928.656 146.259 929.311 147.071 929.311C147.884 929.311 148.538 928.649 148.538 927.844C148.538 927.038 147.884 926.377 147.071 926.377Z" fill="white"/>
<path d="M141.211 935.171C141.211 934.358 140.557 933.704 139.744 933.704C138.932 933.704 138.277 934.358 138.277 935.171C138.277 935.983 138.932 936.638 139.744 936.638C140.557 936.638 141.211 935.983 141.211 935.171Z" fill="white"/>
<path d="M155.872 935.171C155.872 934.358 155.218 933.704 154.405 933.704C153.593 933.704 152.938 934.358 152.938 935.171C152.938 935.983 153.593 936.638 154.405 936.638C155.218 936.638 155.872 935.983 155.872 935.171Z" fill="white"/>
<path d="M138.277 920.51C138.277 921.322 138.932 921.977 139.744 921.977C140.557 921.977 141.211 921.322 141.211 920.51C141.211 919.897 140.839 919.381 140.309 919.153H139.179C138.649 919.374 138.277 919.897 138.277 920.51Z" fill="white"/>
<path d="M152.938 920.51C152.938 921.322 153.593 921.977 154.405 921.977C155.218 921.977 155.872 921.322 155.872 920.51C155.872 919.897 155.5 919.381 154.97 919.153H153.84C153.31 919.374 152.938 919.897 152.938 920.51Z" fill="white"/>
<path d="M133.877 942.505C133.877 942.402 133.87 942.305 133.85 942.209C133.774 941.83 133.547 941.499 133.23 941.286C132.996 941.128 132.713 941.038 132.41 941.038V942.505H133.877Z" fill="white"/>
<path d="M132.41 929.31C132.713 929.31 132.996 929.221 133.23 929.063C133.622 928.801 133.877 928.353 133.877 927.844C133.877 927.334 133.622 926.893 133.23 926.632C132.996 926.473 132.713 926.384 132.41 926.384V929.317V929.31Z" fill="white"/>
<path d="M161.739 958.633V955.699C160.927 955.699 160.272 956.353 160.272 957.166C160.272 957.979 160.927 958.633 161.739 958.633Z" fill="white"/>
<path d="M147.071 958.633C147.884 958.633 148.538 957.972 148.538 957.166C148.538 956.36 147.884 955.699 147.071 955.699C146.259 955.699 145.604 956.353 145.604 957.166C145.604 957.979 146.259 958.633 147.071 958.633Z" fill="white"/>
<path d="M139.744 965.959C140.557 965.959 141.211 965.305 141.211 964.492C141.211 963.68 140.557 963.025 139.744 963.025C138.932 963.025 138.277 963.68 138.277 964.492C138.277 965.305 138.932 965.959 139.744 965.959Z" fill="white"/>
<path d="M154.405 965.959C155.218 965.959 155.872 965.305 155.872 964.492C155.872 963.68 155.218 963.025 154.405 963.025C153.593 963.025 152.938 963.68 152.938 964.492C152.938 965.305 153.593 965.959 154.405 965.959Z" fill="white"/>
<path d="M139.744 951.299C140.557 951.299 141.211 950.645 141.211 949.832C141.211 949.019 140.557 948.365 139.744 948.365C138.932 948.365 138.277 949.019 138.277 949.832C138.277 950.645 138.932 951.299 139.744 951.299Z" fill="white"/>
<path d="M154.405 951.299C155.218 951.299 155.872 950.645 155.872 949.832C155.872 949.019 155.218 948.365 154.405 948.365C153.593 948.365 152.938 949.019 152.938 949.832C152.938 950.645 153.593 951.299 154.405 951.299Z" fill="white"/>
<path d="M133.23 958.385C133.622 958.123 133.877 957.676 133.877 957.166C133.877 956.656 133.622 956.216 133.23 955.954C132.996 955.796 132.713 955.706 132.41 955.706V958.64C132.713 958.64 132.996 958.55 133.23 958.392V958.385Z" fill="white"/>
<path d="M160.272 942.505C160.272 943.317 160.927 943.972 161.739 943.972V942.505H160.272Z" fill="white"/>
<path d="M147.071 943.972C147.884 943.972 148.538 943.317 148.538 942.505H145.604C145.604 943.317 146.259 943.972 147.071 943.972Z" fill="white"/>
<path d="M132.41 943.972C132.713 943.972 132.996 943.882 133.23 943.724C133.622 943.462 133.877 943.014 133.877 942.512H132.41V943.978V943.972Z" fill="white"/>
<path d="M132.41 942.505V941.038C132.211 941.038 132.018 941.079 131.839 941.155C131.398 941.341 131.068 941.734 130.971 942.209C130.95 942.305 130.944 942.402 130.944 942.505H132.41Z" fill="white"/>
<path d="M119.216 942.505C119.216 942.402 119.209 942.305 119.189 942.209C119.051 941.541 118.459 941.038 117.749 941.038C117.04 941.038 116.448 941.541 116.31 942.209C116.289 942.305 116.282 942.402 116.282 942.505H119.216Z" fill="white"/>
<path d="M131.839 926.487C131.315 926.708 130.944 927.231 130.944 927.837C130.944 928.443 131.315 928.966 131.839 929.187C132.011 929.262 132.204 929.304 132.41 929.304V926.37C132.211 926.37 132.018 926.411 131.839 926.487Z" fill="white"/>
<path d="M117.749 926.377C116.937 926.377 116.282 927.031 116.282 927.844C116.282 928.656 116.937 929.311 117.749 929.311C118.562 929.311 119.216 928.649 119.216 927.844C119.216 927.038 118.562 926.377 117.749 926.377Z" fill="white"/>
<path d="M111.889 935.171C111.889 934.358 111.235 933.704 110.423 933.704C109.61 933.704 108.956 934.358 108.956 935.171C108.956 935.983 109.61 936.638 110.423 936.638C111.235 936.638 111.889 935.983 111.889 935.171Z" fill="white"/>
<path d="M126.55 935.171C126.55 934.358 125.896 933.704 125.083 933.704C124.271 933.704 123.617 934.358 123.617 935.171C123.617 935.983 124.271 936.638 125.083 936.638C125.896 936.638 126.55 935.983 126.55 935.171Z" fill="white"/>
<path d="M108.956 920.51C108.956 921.322 109.61 921.977 110.423 921.977C111.235 921.977 111.889 921.322 111.889 920.51C111.889 919.897 111.517 919.381 110.987 919.153H109.858C109.328 919.374 108.956 919.897 108.956 920.51Z" fill="white"/>
<path d="M123.617 920.51C123.617 921.322 124.271 921.977 125.083 921.977C125.896 921.977 126.55 921.322 126.55 920.51C126.55 919.897 126.178 919.381 125.648 919.153H124.519C123.989 919.374 123.617 919.897 123.617 920.51Z" fill="white"/>
<path d="M104.556 942.505C104.556 942.402 104.549 942.305 104.528 942.209C104.452 941.83 104.225 941.499 103.908 941.286C103.674 941.128 103.392 941.038 103.089 941.038V942.505H104.556Z" fill="white"/>
<path d="M103.089 929.31C103.392 929.31 103.674 929.221 103.908 929.063C104.301 928.801 104.556 928.353 104.556 927.844C104.556 927.334 104.301 926.893 103.908 926.632C103.674 926.473 103.392 926.384 103.089 926.384V929.317V929.31Z" fill="white"/>
<path d="M131.839 958.516C132.011 958.591 132.204 958.633 132.41 958.633V955.699C132.211 955.699 132.018 955.741 131.839 955.816C131.315 956.037 130.944 956.56 130.944 957.166C130.944 957.772 131.315 958.295 131.839 958.516Z" fill="white"/>
<path d="M117.749 958.633C118.562 958.633 119.216 957.972 119.216 957.166C119.216 956.36 118.562 955.699 117.749 955.699C116.937 955.699 116.282 956.353 116.282 957.166C116.282 957.979 116.937 958.633 117.749 958.633Z" fill="white"/>
<path d="M110.423 965.959C111.235 965.959 111.889 965.305 111.889 964.492C111.889 963.68 111.235 963.025 110.423 963.025C109.61 963.025 108.956 963.68 108.956 964.492C108.956 965.305 109.61 965.959 110.423 965.959Z" fill="white"/>
<path d="M125.083 965.959C125.896 965.959 126.55 965.305 126.55 964.492C126.55 963.68 125.896 963.025 125.083 963.025C124.271 963.025 123.617 963.68 123.617 964.492C123.617 965.305 124.271 965.959 125.083 965.959Z" fill="white"/>
<path d="M110.423 951.299C111.235 951.299 111.889 950.645 111.889 949.832C111.889 949.019 111.235 948.365 110.423 948.365C109.61 948.365 108.956 949.019 108.956 949.832C108.956 950.645 109.61 951.299 110.423 951.299Z" fill="white"/>
<path d="M125.083 951.299C125.896 951.299 126.55 950.645 126.55 949.832C126.55 949.019 125.896 948.365 125.083 948.365C124.271 948.365 123.617 949.019 123.617 949.832C123.617 950.645 124.271 951.299 125.083 951.299Z" fill="white"/>
<path d="M103.908 958.385C104.301 958.123 104.556 957.676 104.556 957.166C104.556 956.656 104.301 956.216 103.908 955.954C103.674 955.796 103.392 955.706 103.089 955.706V958.64C103.392 958.64 103.674 958.55 103.908 958.392V958.385Z" fill="white"/>
<path d="M130.944 942.505C130.944 943.111 131.315 943.634 131.839 943.855C132.011 943.93 132.204 943.972 132.41 943.972V942.505H130.944Z" fill="white"/>
<path d="M117.749 943.972C118.562 943.972 119.216 943.317 119.216 942.505H116.282C116.282 943.317 116.937 943.972 117.749 943.972Z" fill="white"/>
<path d="M103.089 943.972C103.392 943.972 103.674 943.882 103.908 943.724C104.301 943.462 104.556 943.014 104.556 942.512H103.089V943.978V943.972Z" fill="white"/>
<path d="M103.089 942.505V941.038C102.379 941.038 101.787 941.541 101.649 942.209C101.629 942.305 101.622 942.402 101.622 942.505H103.089Z" fill="white"/>
<path d="M89.8944 942.505C89.8944 942.402 89.8875 942.305 89.8669 942.209C89.7291 941.541 89.1369 941.038 88.4277 941.038C87.7184 941.038 87.1261 941.541 86.9953 942.209C86.9746 942.305 86.9678 942.402 86.9678 942.505H89.9013H89.8944Z" fill="white"/>
<path d="M101.622 927.844C101.622 928.656 102.276 929.311 103.089 929.311V926.377C102.276 926.377 101.622 927.031 101.622 927.844Z" fill="white"/>
<path d="M88.4276 926.377C87.615 926.377 86.9608 927.031 86.9608 927.844C86.9608 928.656 87.615 929.311 88.4276 929.311C89.2402 929.311 89.8944 928.649 89.8944 927.844C89.8944 927.038 89.2402 926.377 88.4276 926.377Z" fill="white"/>
<path d="M82.5608 935.171C82.5608 934.358 81.9066 933.704 81.094 933.704C80.2814 933.704 79.6272 934.358 79.6272 935.171C79.6272 935.983 80.2814 936.638 81.094 936.638C81.9066 936.638 82.5608 935.983 82.5608 935.171Z" fill="white"/>
<path d="M97.2284 935.171C97.2284 934.358 96.5742 933.704 95.7616 933.704C94.949 933.704 94.2948 934.358 94.2948 935.171C94.2948 935.983 94.949 936.638 95.7616 936.638C96.5742 936.638 97.2284 935.983 97.2284 935.171Z" fill="white"/>
<path d="M79.6339 920.51C79.6339 921.322 80.2881 921.977 81.1007 921.977C81.9133 921.977 82.5675 921.322 82.5675 920.51C82.5675 919.897 82.1956 919.381 81.6654 919.153H80.536C80.0058 919.374 79.6339 919.897 79.6339 920.51Z" fill="white"/>
<path d="M94.2948 920.51C94.2948 921.322 94.949 921.977 95.7616 921.977C96.5742 921.977 97.2284 921.322 97.2284 920.51C97.2284 919.897 96.8565 919.381 96.3263 919.153H95.1969C94.6667 919.374 94.2948 919.897 94.2948 920.51Z" fill="white"/>
<path d="M75.2336 942.505C75.2336 942.402 75.2268 942.305 75.2061 942.209C75.089 941.637 74.6414 941.183 74.063 941.066C73.9666 941.045 73.8701 941.038 73.7668 941.038V942.505H75.2336Z" fill="white"/>
<path d="M73.7668 929.311C73.8701 929.311 73.9666 929.304 74.063 929.283C74.7309 929.145 75.2336 928.553 75.2336 927.844C75.2336 927.134 74.7309 926.542 74.063 926.404C73.9666 926.384 73.8701 926.377 73.7668 926.377V929.311Z" fill="white"/>
<path d="M103.089 958.633V955.699C102.276 955.699 101.622 956.353 101.622 957.166C101.622 957.979 102.276 958.633 103.089 958.633Z" fill="white"/>
<path d="M88.4276 958.633C89.2402 958.633 89.8944 957.972 89.8944 957.166C89.8944 956.36 89.2402 955.699 88.4276 955.699C87.615 955.699 86.9608 956.353 86.9608 957.166C86.9608 957.979 87.615 958.633 88.4276 958.633Z" fill="white"/>
<path d="M81.094 965.959C81.9066 965.959 82.5608 965.305 82.5608 964.492C82.5608 963.68 81.9066 963.025 81.094 963.025C80.2814 963.025 79.6272 963.68 79.6272 964.492C79.6272 965.305 80.2814 965.959 81.094 965.959Z" fill="white"/>
<path d="M95.7616 965.959C96.5742 965.959 97.2284 965.305 97.2284 964.492C97.2284 963.68 96.5742 963.025 95.7616 963.025C94.949 963.025 94.2948 963.68 94.2948 964.492C94.2948 965.305 94.949 965.959 95.7616 965.959Z" fill="white"/>
<path d="M81.094 951.299C81.9066 951.299 82.5608 950.645 82.5608 949.832C82.5608 949.019 81.9066 948.365 81.094 948.365C80.2814 948.365 79.6272 949.019 79.6272 949.832C79.6272 950.645 80.2814 951.299 81.094 951.299Z" fill="white"/>
<path d="M95.7616 951.299C96.5742 951.299 97.2284 950.645 97.2284 949.832C97.2284 949.019 96.5742 948.365 95.7616 948.365C94.949 948.365 94.2948 949.019 94.2948 949.832C94.2948 950.645 94.949 951.299 95.7616 951.299Z" fill="white"/>
<path d="M74.063 958.605C74.7309 958.468 75.2336 957.875 75.2336 957.166C75.2336 956.457 74.7309 955.864 74.063 955.727C73.9666 955.706 73.8701 955.699 73.7668 955.699V958.633C73.8701 958.633 73.9666 958.626 74.063 958.605Z" fill="white"/>
<path d="M101.622 942.505C101.622 943.317 102.276 943.972 103.089 943.972V942.505H101.622Z" fill="white"/>
<path d="M88.4276 943.972C89.2402 943.972 89.8944 943.317 89.8944 942.505H86.9608C86.9608 943.317 87.615 943.972 88.4276 943.972Z" fill="white"/>
<path d="M73.7668 943.972C73.8701 943.972 73.9666 943.965 74.063 943.944C74.7309 943.806 75.2336 943.214 75.2336 942.505H73.7668V943.972Z" fill="white"/>
<path d="M73.7669 942.505V941.038C73.5672 941.038 73.3744 941.079 73.1954 941.155C72.7547 941.341 72.4241 941.734 72.3277 942.209C72.307 942.305 72.3002 942.402 72.3002 942.505H73.7669Z" fill="white"/>
<path d="M60.5727 942.505C60.5727 942.402 60.5658 942.305 60.5452 942.209C60.4074 941.541 59.8152 941.038 59.1059 941.038C58.3967 941.038 57.8044 941.541 57.6667 942.209C57.6461 942.305 57.6392 942.402 57.6392 942.505H60.5727Z" fill="white"/>
<path d="M73.1954 926.487C72.672 926.708 72.3002 927.231 72.3002 927.837C72.3002 928.443 72.672 928.966 73.1954 929.187C73.3675 929.262 73.5672 929.304 73.7669 929.304V926.37C73.5672 926.37 73.3744 926.411 73.1954 926.487Z" fill="white"/>
<path d="M59.1059 926.377C58.2934 926.377 57.6392 927.031 57.6392 927.844C57.6392 928.656 58.2934 929.311 59.1059 929.311C59.9185 929.311 60.5727 928.649 60.5727 927.844C60.5727 927.038 59.9185 926.377 59.1059 926.377Z" fill="white"/>
<path d="M53.2387 935.171C53.2387 934.358 52.5845 933.704 51.772 933.704C50.9594 933.704 50.3052 934.358 50.3052 935.171C50.3052 935.983 50.9594 936.638 51.772 936.638C52.5845 936.638 53.2387 935.983 53.2387 935.171Z" fill="white"/>
<path d="M67.8997 935.171C67.8997 934.358 67.2455 933.704 66.433 933.704C65.6204 933.704 64.9662 934.358 64.9662 935.171C64.9662 935.983 65.6204 936.638 66.433 936.638C67.2455 936.638 67.8997 935.983 67.8997 935.171Z" fill="white"/>
<path d="M50.3052 920.51C50.3052 921.322 50.9594 921.977 51.772 921.977C52.5845 921.977 53.2387 921.322 53.2387 920.51C53.2387 919.897 52.8669 919.381 52.3366 919.153H51.2073C50.677 919.374 50.3052 919.897 50.3052 920.51Z" fill="white"/>
<path d="M64.9662 920.51C64.9662 921.322 65.6204 921.977 66.433 921.977C67.2455 921.977 67.8997 921.322 67.8997 920.51C67.8997 919.897 67.5279 919.381 66.9976 919.153H65.8683C65.3381 919.374 64.9662 919.897 64.9662 920.51Z" fill="white"/>
<path d="M45.9118 942.505C45.9118 942.402 45.905 942.305 45.8843 942.209C45.8085 941.83 45.5813 941.499 45.2645 941.286C45.0304 941.128 44.7481 941.038 44.4451 941.038V942.505H45.9118Z" fill="white"/>
<path d="M44.4451 929.31C44.7481 929.31 45.0304 929.221 45.2645 929.063C45.6571 928.801 45.9118 928.353 45.9118 927.844C45.9118 927.334 45.6571 926.893 45.2645 926.632C45.0304 926.473 44.7481 926.384 44.4451 926.384V929.317V929.31Z" fill="white"/>
<path d="M73.1954 958.516C73.3675 958.591 73.5672 958.633 73.7669 958.633V955.699C73.5672 955.699 73.3744 955.741 73.1954 955.816C72.672 956.037 72.3002 956.56 72.3002 957.166C72.3002 957.772 72.672 958.295 73.1954 958.516Z" fill="white"/>
<path d="M59.1059 958.633C59.9185 958.633 60.5727 957.972 60.5727 957.166C60.5727 956.36 59.9185 955.699 59.1059 955.699C58.2934 955.699 57.6392 956.353 57.6392 957.166C57.6392 957.979 58.2934 958.633 59.1059 958.633Z" fill="white"/>
<path d="M51.772 965.959C52.5845 965.959 53.2387 965.305 53.2387 964.492C53.2387 963.68 52.5845 963.025 51.772 963.025C50.9594 963.025 50.3052 963.68 50.3052 964.492C50.3052 965.305 50.9594 965.959 51.772 965.959Z" fill="white"/>
<path d="M66.433 965.959C67.2455 965.959 67.8997 965.305 67.8997 964.492C67.8997 963.68 67.2455 963.025 66.433 963.025C65.6204 963.025 64.9662 963.68 64.9662 964.492C64.9662 965.305 65.6204 965.959 66.433 965.959Z" fill="white"/>
<path d="M51.772 951.299C52.5845 951.299 53.2387 950.645 53.2387 949.832C53.2387 949.019 52.5845 948.365 51.772 948.365C50.9594 948.365 50.3052 949.019 50.3052 949.832C50.3052 950.645 50.9594 951.299 51.772 951.299Z" fill="white"/>
<path d="M66.433 951.299C67.2455 951.299 67.8997 950.645 67.8997 949.832C67.8997 949.019 67.2455 948.365 66.433 948.365C65.6204 948.365 64.9662 949.019 64.9662 949.832C64.9662 950.645 65.6204 951.299 66.433 951.299Z" fill="white"/>
<path d="M45.2645 958.385C45.6571 958.123 45.9118 957.676 45.9118 957.166C45.9118 956.656 45.6571 956.216 45.2645 955.954C45.0304 955.796 44.7481 955.706 44.4451 955.706V958.64C44.7481 958.64 45.0304 958.55 45.2645 958.392V958.385Z" fill="white"/>
<path d="M72.3002 942.505C72.3002 943.111 72.672 943.634 73.1954 943.855C73.3675 943.93 73.5672 943.972 73.7669 943.972V942.505H72.3002Z" fill="white"/>
<path d="M59.1059 943.972C59.9185 943.972 60.5727 943.317 60.5727 942.505H57.6392C57.6392 943.317 58.2934 943.972 59.1059 943.972Z" fill="white"/>
<path d="M44.4451 943.972C44.7481 943.972 45.0304 943.882 45.2645 943.724C45.6571 943.462 45.9118 943.014 45.9118 942.512H44.4451V943.978V943.972Z" fill="white"/>
<path d="M44.4451 942.505V941.038C43.7358 941.038 43.1435 941.541 43.0058 942.209C42.9852 942.305 42.9783 942.402 42.9783 942.505H44.4451Z" fill="white"/>
<path d="M31.2511 942.505C31.2511 942.402 31.2442 942.305 31.2235 942.209C31.0858 941.541 30.4936 941.038 29.7843 941.038C29.075 941.038 28.4828 941.541 28.3451 942.209C28.3244 942.305 28.3175 942.402 28.3175 942.505H31.2511Z" fill="white"/>
<path d="M42.9783 927.844C42.9783 928.656 43.6325 929.311 44.4451 929.311V926.377C43.6325 926.377 42.9783 927.031 42.9783 927.844Z" fill="white"/>
<path d="M29.7843 926.377C28.9717 926.377 28.3175 927.031 28.3175 927.844C28.3175 928.656 28.9717 929.311 29.7843 929.311C30.5969 929.311 31.2511 928.649 31.2511 927.844C31.2511 927.038 30.5969 926.377 29.7843 926.377Z" fill="white"/>
<path d="M23.9172 935.171C23.9172 934.358 23.263 933.704 22.4504 933.704C21.6378 933.704 20.9836 934.358 20.9836 935.171C20.9836 935.983 21.6378 936.638 22.4504 936.638C23.263 936.638 23.9172 935.983 23.9172 935.171Z" fill="white"/>
<path d="M38.5781 935.171C38.5781 934.358 37.9239 933.704 37.1113 933.704C36.2987 933.704 35.6445 934.358 35.6445 935.171C35.6445 935.983 36.2987 936.638 37.1113 936.638C37.9239 936.638 38.5781 935.983 38.5781 935.171Z" fill="white"/>
<path d="M20.9836 920.51C20.9836 921.322 21.6378 921.977 22.4504 921.977C23.263 921.977 23.9172 921.322 23.9172 920.51C23.9172 919.897 23.5453 919.381 23.0151 919.153H21.8857C21.3555 919.374 20.9836 919.897 20.9836 920.51Z" fill="white"/>
<path d="M35.6445 920.51C35.6445 921.322 36.2987 921.977 37.1113 921.977C37.9239 921.977 38.5781 921.322 38.5781 920.51C38.5781 919.897 38.2062 919.381 37.676 919.153H36.5466C36.0164 919.374 35.6445 919.897 35.6445 920.51Z" fill="white"/>
<path d="M16.5831 942.505C16.5831 942.402 16.5762 942.305 16.5556 942.209C16.4385 941.637 15.9909 941.183 15.4124 941.066C15.316 941.045 15.2196 941.038 15.1163 941.038V942.505H16.5831Z" fill="white"/>
<path d="M15.1233 929.311C15.2266 929.311 15.323 929.304 15.4194 929.283C16.0874 929.145 16.5901 928.553 16.5901 927.844C16.5901 927.134 16.0874 926.542 15.4194 926.404C15.323 926.384 15.2266 926.377 15.1233 926.377V929.311Z" fill="white"/>
<path d="M44.4451 958.633V955.699C43.6325 955.699 42.9783 956.353 42.9783 957.166C42.9783 957.979 43.6325 958.633 44.4451 958.633Z" fill="white"/>
<path d="M29.7843 958.633C30.5969 958.633 31.2511 957.972 31.2511 957.166C31.2511 956.36 30.5969 955.699 29.7843 955.699C28.9717 955.699 28.3175 956.353 28.3175 957.166C28.3175 957.979 28.9717 958.633 29.7843 958.633Z" fill="white"/>
<path d="M22.4504 965.959C23.263 965.959 23.9172 965.305 23.9172 964.492C23.9172 963.68 23.263 963.025 22.4504 963.025C21.6378 963.025 20.9836 963.68 20.9836 964.492C20.9836 965.305 21.6378 965.959 22.4504 965.959Z" fill="white"/>
<path d="M37.1113 965.959C37.9239 965.959 38.5781 965.305 38.5781 964.492C38.5781 963.68 37.9239 963.025 37.1113 963.025C36.2987 963.025 35.6445 963.68 35.6445 964.492C35.6445 965.305 36.2987 965.959 37.1113 965.959Z" fill="white"/>
<path d="M22.4504 951.299C23.263 951.299 23.9172 950.645 23.9172 949.832C23.9172 949.019 23.263 948.365 22.4504 948.365C21.6378 948.365 20.9836 949.019 20.9836 949.832C20.9836 950.645 21.6378 951.299 22.4504 951.299Z" fill="white"/>
<path d="M37.1113 951.299C37.9239 951.299 38.5781 950.645 38.5781 949.832C38.5781 949.019 37.9239 948.365 37.1113 948.365C36.2987 948.365 35.6445 949.019 35.6445 949.832C35.6445 950.645 36.2987 951.299 37.1113 951.299Z" fill="white"/>
<path d="M15.4124 958.605C16.0804 958.468 16.5831 957.875 16.5831 957.166C16.5831 956.457 16.0804 955.864 15.4124 955.727C15.316 955.706 15.2196 955.699 15.1163 955.699V958.633C15.2196 958.633 15.316 958.626 15.4124 958.605Z" fill="white"/>
<path d="M42.9783 942.505C42.9783 943.317 43.6325 943.972 44.4451 943.972V942.505H42.9783Z" fill="white"/>
<path d="M29.7843 943.972C30.5969 943.972 31.2511 943.317 31.2511 942.505H28.3175C28.3175 943.317 28.9717 943.972 29.7843 943.972Z" fill="white"/>
<path d="M15.1233 943.972C15.2266 943.972 15.323 943.965 15.4194 943.944C16.0874 943.806 16.5901 943.214 16.5901 942.505H15.1233V943.972Z" fill="white"/>
<path d="M15.1234 942.505V941.038C14.9237 941.038 14.7309 941.079 14.5518 941.155C14.1111 941.341 13.7806 941.734 13.6841 942.209C13.6635 942.305 13.6566 942.402 13.6566 942.505H15.1234Z" fill="white"/>
<path d="M1.92221 942.505C1.92221 942.402 1.91532 942.305 1.89466 942.209C1.75693 941.541 1.16471 941.038 0.455428 941.038C-0.253859 941.038 -0.846076 941.541 -0.983802 942.209C-1.00446 942.305 -1.01135 942.402 -1.01135 942.505H1.92221Z" fill="white"/>
<path d="M14.5518 926.487C14.0285 926.708 13.6566 927.231 13.6566 927.837C13.6566 928.443 14.0285 928.966 14.5518 929.187C14.724 929.262 14.9168 929.304 15.1234 929.304V926.37C14.9237 926.37 14.7309 926.411 14.5518 926.487Z" fill="white"/>
<path d="M0.455428 926.377C-0.357153 926.377 -1.01135 927.031 -1.01135 927.844C-1.01135 928.656 -0.357153 929.311 0.455428 929.311C1.26801 929.311 1.92221 928.649 1.92221 927.844C1.92221 927.038 1.26801 926.377 0.455428 926.377Z" fill="white"/>
<path d="M9.25617 935.171C9.25617 934.358 8.60197 933.704 7.78939 933.704C6.97681 933.704 6.32263 934.358 6.32263 935.171C6.32263 935.983 6.97681 936.638 7.78939 936.638C8.60197 936.638 9.25617 935.983 9.25617 935.171Z" fill="white"/>
<path d="M6.32263 920.51C6.32263 921.322 6.97681 921.977 7.78939 921.977C8.60197 921.977 9.25617 921.322 9.25617 920.51C9.25617 919.897 8.88431 919.381 8.35407 919.153H7.22473C6.69449 919.374 6.32263 919.897 6.32263 920.51Z" fill="white"/>
<path d="M14.5518 958.516C14.724 958.591 14.9168 958.633 15.1234 958.633V955.699C14.9237 955.699 14.7309 955.741 14.5518 955.816C14.0285 956.037 13.6566 956.56 13.6566 957.166C13.6566 957.772 14.0285 958.295 14.5518 958.516Z" fill="white"/>
<path d="M0.455428 958.633C1.26801 958.633 1.92221 957.972 1.92221 957.166C1.92221 956.36 1.26801 955.699 0.455428 955.699C-0.357153 955.699 -1.01135 956.353 -1.01135 957.166C-1.01135 957.979 -0.357153 958.633 0.455428 958.633Z" fill="white"/>
<path d="M7.78939 965.959C8.60197 965.959 9.25617 965.305 9.25617 964.492C9.25617 963.68 8.60197 963.025 7.78939 963.025C6.97681 963.025 6.32263 963.68 6.32263 964.492C6.32263 965.305 6.97681 965.959 7.78939 965.959Z" fill="white"/>
<path d="M7.78939 951.299C8.60197 951.299 9.25617 950.645 9.25617 949.832C9.25617 949.019 8.60197 948.365 7.78939 948.365C6.97681 948.365 6.32263 949.019 6.32263 949.832C6.32263 950.645 6.97681 951.299 7.78939 951.299Z" fill="white"/>
<path d="M13.6566 942.505C13.6566 943.111 14.0285 943.634 14.5518 943.855C14.724 943.93 14.9168 943.972 15.1234 943.972V942.505H13.6566Z" fill="white"/>
<path d="M0.455428 943.972C1.26801 943.972 1.92221 943.317 1.92221 942.505H-1.01135C-1.01135 943.317 -0.357153 943.972 0.455428 943.972Z" fill="white"/>
</g>
<path d="M521.204 324.998C528 329.681 538.316 327.16 543.019 320.371C547.723 313.581 546.903 303.823 541.966 297.205C537.028 290.594 530.238 287.489 521.982 287.461C521.121 276.615 513.264 266.658 502.921 263.29C492.577 259.923 476.966 263.359 469.88 271.609C468.751 265.769 464.454 260.632 458.903 258.497C453.353 256.356 446.26 254.496 441.502 258.07C440.29 250.406 434.457 243.657 427.048 241.344C419.638 239.03 411.003 241.268 405.652 246.894C400.294 252.513 397.822 260.116 400.487 267.408C393.525 256.927 379.994 251.26 367.64 253.649C356.167 255.867 346.106 265.17 343.985 276.656C342.739 283.412 344.894 289.293 348.675 295.029C342.89 290.339 333.656 290.663 328.216 295.745C322.776 300.827 321.818 310.02 326.102 316.108C330.385 322.202 339.358 324.413 345.975 321.018C342.105 328.124 344.97 339.17 351.299 344.211C357.627 349.245 366.868 349.816 374.264 346.531C381.653 343.247 387.21 336.54 390.13 328.992C392.086 337.765 400.618 344.114 409.474 345.664C418.323 347.213 427.915 342.978 432.729 335.396C436.041 341.622 444.745 344.831 451.749 344.039C458.759 343.247 465.019 337.855 466.85 331.044C473.055 340.272 485.285 345.044 496.351 343.873C507.41 342.696 517.072 335.334 521.204 325.005V324.998Z" stroke="white" stroke-width="6" stroke-linecap="round" stroke-linejoin="round" stroke-dasharray="4 12"/>
<path d="M-10.9923 395.447C-12.1578 395.447 -13.3603 395.401 -14.5628 395.299C-21.9444 394.688 -28.142 391.624 -31.7866 386.847C-33.5256 387.338 -35.4312 387.588 -37.4662 387.588C-40.6205 387.588 -44.1078 386.986 -47.8171 385.792C-58.1403 382.478 -64.9577 375.406 -66.5302 366.389C-67.668 359.882 -65.6977 353.559 -61.3779 349.505C-65.1889 343.858 -66.8447 336.517 -65.7255 329.982C-64.6339 323.594 -60.9986 318.225 -55.1988 314.439C-50.7124 311.514 -46.2354 310.458 -42.193 311.347C-41.7305 307.848 -39.0387 295.36 -24.2847 294.018C-17.3101 293.389 -11.8155 294.286 -8.07846 296.656C-4.20264 293.685 0.607437 292 5.30652 292C8.85858 292 12.2534 292.935 15.3707 294.786C18.3492 296.554 20.8098 298.48 22.6968 300.516C23.7606 300.266 24.8521 300.146 25.9714 300.146C30.0507 300.146 34.315 301.766 38.6441 304.951C48.4308 312.162 49.7998 322.335 47.7278 329.982C48.5048 330.315 49.3003 330.694 50.1236 331.102C56.1362 334.119 59.3737 340.294 59.2442 348.496C59.087 358.123 54.2306 367.954 47.996 371.592C48.2828 374.73 47.8758 378.868 44.9712 382.571C41.5117 386.968 35.4343 389.578 26.9149 390.31C19.598 390.948 13.7612 390.374 9.6911 388.634C6.28704 391.448 -0.400833 395.438 -10.983 395.438L-10.9923 395.447ZM-28.6878 385.616C-25.5243 389.282 -20.3904 391.624 -14.2946 392.133C-13.1845 392.226 -12.0653 392.272 -10.983 392.272C-2.27861 392.272 3.45648 389.356 6.72179 386.94C3.64149 384.542 3.03098 381.423 3.60449 379.053C4.39075 375.785 7.33231 373.415 10.5884 373.415C10.9861 373.415 11.3839 373.452 11.7724 373.517C13.7149 373.851 15.1209 375.054 15.6297 376.804C16.3975 379.451 15.0747 382.978 12.2256 386.218C15.7222 387.357 20.634 387.681 26.6374 387.171C34.2503 386.514 39.5784 384.311 42.4737 380.636C44.4717 378.1 44.962 375.248 44.888 372.879C44.1479 373.054 43.3987 373.138 42.6587 373.138C42.2054 373.138 41.7429 373.101 41.2804 373.036C32.2522 371.712 31.9285 366.371 32.0487 364.769C32.3077 361.187 35.351 358.16 38.6904 358.16C39.3934 358.16 40.0779 358.289 40.7346 358.549C43.4079 359.604 46.1367 363.705 47.3763 368.222C52.1863 364.695 55.9419 356.401 56.0714 348.459C56.1361 344.46 55.2666 337.248 48.7083 333.962C48.0145 333.62 47.3485 333.296 46.701 333.009C44.7862 337.535 41.7429 340.581 38.9956 340.581C38.1723 340.581 37.3953 340.312 36.7386 339.803C34.0005 337.683 32.6407 334.045 33.5565 331.352C33.9173 330.296 35.203 327.843 39.3841 327.843C40.9196 327.843 42.7234 328.176 44.74 328.843C45.85 324.4 46.7102 314.856 36.7571 307.515C32.5945 304.451 28.5892 303.053 24.9169 303.377C28.2377 308.579 26.9981 312.708 26.2211 314.365C24.8521 317.299 22.0123 319.197 18.9875 319.197C17.8127 319.197 16.6565 318.919 15.5742 318.373C13.2524 317.207 12.0499 314.846 12.2811 311.884C12.5679 308.311 15.0747 304.006 19.4315 301.729C17.896 300.257 15.9905 298.85 13.7519 297.526C11.1249 295.971 8.28506 295.184 5.30652 295.184C1.5232 295.184 -2.35262 296.471 -5.56242 298.748C-2.70412 301.905 -2.57461 305.774 -3.47187 308.366C-4.38764 311.014 -6.42267 312.726 -8.66121 312.726C-9.87298 312.726 -11.0755 312.227 -12.1393 311.292C-13.5361 310.07 -14.2668 308.431 -14.2483 306.571C-14.2298 304.09 -12.9163 301.368 -10.5667 298.887C-13.6933 297.258 -18.3184 296.666 -23.998 297.184C-30.0291 297.73 -34.3952 300.452 -36.9852 305.256C-38.937 308.894 -39.1127 312.347 -39.1127 312.384C-39.1127 312.402 -39.1127 312.421 -39.1127 312.439C-34.7559 314.67 -32.3879 319.068 -32.6746 322.261C-32.8689 324.501 -34.2842 326.066 -36.4672 326.445C-37.124 326.566 -37.753 326.621 -38.3357 326.621C-40.9258 326.621 -42.2948 325.446 -42.9886 324.455C-44.8293 321.835 -44.0616 317.503 -43.1273 314.393C-46.2816 313.782 -49.8244 314.707 -53.4782 317.096C-58.5103 320.382 -61.6739 325.02 -62.6082 330.509C-63.5609 336.11 -62.0994 342.645 -58.8618 347.561C-57.0766 346.459 -55.0785 345.709 -52.914 345.339C-52.2572 345.228 -51.6097 345.172 -50.9992 345.172C-46.3834 345.172 -43.9598 348.301 -43.9598 351.393C-43.9598 354.161 -46.0041 356.956 -49.9077 356.956C-51.101 356.956 -52.396 356.688 -53.7742 356.16C-55.7445 355.401 -57.6871 353.985 -59.4353 352.022C-62.8302 355.355 -64.3472 360.511 -63.4222 365.843C-62.0624 373.656 -56.022 379.821 -46.8644 382.765C-43.4696 383.857 -40.3153 384.413 -37.4847 384.413C-36.0879 384.413 -34.7744 384.274 -33.5534 384.015C-35.0334 380.923 -35.2924 377.664 -34.1917 375.165C-33.2204 372.962 -31.3056 371.536 -28.8081 371.138C-25.5983 370.629 -23.0452 372.369 -22.518 375.341C-21.9352 378.655 -23.9425 383.108 -28.7063 385.625L-28.6878 385.616ZM10.5791 376.591C8.76609 376.591 7.1288 377.942 6.6848 379.794C6.23154 381.673 7.13805 383.45 9.18233 384.802C11.9481 381.987 13.0027 379.155 12.5679 377.683C12.4569 377.285 12.1979 376.813 11.2266 376.646C11.0139 376.609 10.7919 376.591 10.5791 376.591ZM-27.6425 374.212C-27.846 374.212 -28.0681 374.23 -28.2901 374.267C-29.7238 374.499 -30.7321 375.23 -31.2594 376.443C-32.0271 378.192 -31.7311 380.608 -30.5008 382.978C-26.625 381.08 -25.293 377.803 -25.626 375.887C-25.8203 374.776 -26.4955 374.221 -27.6425 374.221V374.212ZM38.6811 361.326C37.0068 361.326 35.351 363.075 35.2123 364.992C35.0273 367.463 37.4138 369.241 41.7337 369.879C42.0389 369.926 42.3442 369.944 42.6494 369.944C43.2507 369.944 43.8612 369.861 44.4624 369.685C43.4819 365.445 41.0214 362.076 39.5599 361.492C39.2731 361.381 38.9771 361.326 38.6811 361.326ZM-56.873 350.097C-55.5133 351.569 -54.0332 352.652 -52.6087 353.198C-51.6005 353.587 -50.6847 353.781 -49.8799 353.781C-47.8356 353.781 -47.1049 352.55 -47.1049 351.402C-47.1049 349.94 -48.3167 348.366 -50.9622 348.366C-51.397 348.366 -51.8595 348.403 -52.3405 348.486C-53.987 348.764 -55.4948 349.31 -56.8638 350.106L-56.873 350.097ZM39.3841 331.018C37.8208 331.018 36.8681 331.472 36.5628 332.37C36.0818 333.768 37.0531 336.017 38.6811 337.285C38.7828 337.359 38.8661 337.396 38.9864 337.396C40.0409 337.396 42.1869 335.434 43.7317 331.851C42.0482 331.296 40.5866 331.018 39.3841 331.018ZM-40.1303 315.513C-41.1015 318.799 -41.2125 321.447 -40.38 322.631C-40.1395 322.983 -39.6585 323.446 -38.3265 323.446C-37.9287 323.446 -37.494 323.4 -37.013 323.316C-36.4857 323.224 -35.9307 322.992 -35.8382 321.983C-35.6809 320.252 -37.1332 317.235 -40.1303 315.504V315.513ZM21.6331 304.21C17.896 305.83 15.6759 309.375 15.4539 312.143C15.3614 313.291 15.5557 314.819 16.9987 315.541C17.6462 315.865 18.3122 316.031 18.9968 316.022C20.8005 316.022 22.5026 314.846 23.3536 313.023C24.5469 310.458 23.9178 307.293 21.6423 304.201L21.6331 304.21ZM-7.9952 300.813C-9.90998 302.747 -11.057 304.886 -11.0663 306.598C-11.0663 307.543 -10.7333 308.302 -10.0302 308.922C-9.54924 309.348 -9.07748 309.561 -8.65197 309.561C-7.80095 309.561 -6.92219 308.672 -6.46893 307.339C-5.86767 305.599 -5.98792 302.988 -7.9952 300.813Z" fill="white"/>
<path d="M238.729 285.954C237.861 285.954 236.966 285.92 236.071 285.844C230.575 285.389 225.962 283.11 223.248 279.557C221.954 279.922 220.535 280.108 219.02 280.108C216.672 280.108 214.076 279.66 211.315 278.772C203.629 276.306 198.554 271.045 197.384 264.338C196.537 259.497 198.003 254.794 201.219 251.778C198.382 247.577 197.149 242.116 197.983 237.254C198.795 232.503 201.502 228.509 205.819 225.692C209.159 223.516 212.492 222.731 215.501 223.392C215.846 220.789 217.85 211.5 228.833 210.501C234.025 210.033 238.116 210.701 240.898 212.464C243.783 210.253 247.364 209 250.862 209C253.507 209 256.034 209.696 258.355 211.073C260.572 212.388 262.404 213.82 263.809 215.335C264.601 215.149 265.413 215.06 266.246 215.06C269.283 215.06 272.458 216.265 275.681 218.634C282.966 223.998 283.985 231.566 282.443 237.254C283.021 237.502 283.614 237.785 284.226 238.088C288.702 240.333 291.113 244.926 291.016 251.027C290.899 258.189 287.284 265.502 282.643 268.208C282.856 270.543 282.553 273.621 280.391 276.375C277.815 279.646 273.291 281.588 266.949 282.132C261.502 282.607 257.156 282.18 254.127 280.886C251.592 282.979 246.614 285.947 238.736 285.947L238.729 285.954ZM225.548 278.641C227.904 281.368 231.725 283.11 236.263 283.489C237.09 283.558 237.923 283.592 238.729 283.592C245.209 283.592 249.478 281.423 251.909 279.626C249.616 277.842 249.162 275.521 249.588 273.759C250.174 271.328 252.364 269.565 254.788 269.565C255.084 269.565 255.38 269.592 255.669 269.641C257.115 269.888 258.162 270.784 258.541 272.085C259.112 274.055 258.127 276.678 256.006 279.089C258.609 279.936 262.266 280.177 266.735 279.798C272.403 279.309 276.369 277.67 278.525 274.936C280.012 273.049 280.377 270.928 280.322 269.165C279.771 269.296 279.213 269.358 278.662 269.358C278.325 269.358 277.981 269.331 277.636 269.282C270.915 268.298 270.674 264.324 270.764 263.133C270.957 260.468 273.222 258.216 275.708 258.216C276.231 258.216 276.741 258.313 277.23 258.505C279.22 259.29 281.252 262.341 282.174 265.702C285.755 263.078 288.551 256.908 288.647 250.999C288.696 248.025 288.048 242.66 283.166 240.215C282.65 239.961 282.154 239.72 281.672 239.506C280.246 242.874 277.981 245.139 275.935 245.139C275.323 245.139 274.744 244.939 274.255 244.561C272.217 242.984 271.205 240.277 271.893 238.274C272.162 237.489 273.119 235.664 276.231 235.664C277.375 235.664 278.717 235.912 280.219 236.407C281.045 233.102 281.685 226.002 274.276 220.541C271.177 218.262 268.195 217.222 265.461 217.463C267.933 221.333 267.011 224.405 266.432 225.637C265.413 227.82 263.299 229.232 261.047 229.232C260.173 229.232 259.312 229.025 258.506 228.619C256.778 227.751 255.883 225.995 256.055 223.792C256.268 221.134 258.134 217.931 261.378 216.237C260.235 215.143 258.816 214.096 257.15 213.111C255.194 211.954 253.08 211.369 250.862 211.369C248.046 211.369 245.161 212.326 242.771 214.02C244.899 216.368 244.995 219.247 244.327 221.175C243.646 223.144 242.131 224.418 240.464 224.418C239.562 224.418 238.667 224.047 237.875 223.351C236.835 222.442 236.291 221.223 236.305 219.839C236.319 217.993 237.296 215.969 239.046 214.123C236.718 212.911 233.275 212.471 229.047 212.856C224.557 213.263 221.307 215.28 219.378 218.861C217.925 221.567 217.795 224.143 217.795 224.164C217.795 224.177 217.795 224.191 217.795 224.205C221.038 225.864 222.801 229.135 222.587 231.511C222.443 233.178 221.389 234.341 219.764 234.624C219.275 234.713 218.807 234.755 218.373 234.755C216.445 234.755 215.426 233.88 214.909 233.143C213.539 231.194 214.11 227.972 214.806 225.658C212.458 225.203 209.82 225.892 207.1 227.669C203.354 230.113 200.999 233.563 200.303 237.647C199.594 241.813 200.682 246.675 203.092 250.331C204.421 249.512 205.909 248.954 207.52 248.679C208.009 248.596 208.491 248.555 208.946 248.555C212.382 248.555 214.186 250.882 214.186 253.182C214.186 255.241 212.664 257.321 209.758 257.321C208.87 257.321 207.906 257.121 206.88 256.729C205.413 256.164 203.967 255.11 202.665 253.651C200.138 256.13 199.009 259.965 199.697 263.932C200.71 269.744 205.206 274.33 212.024 276.52C214.551 277.333 216.899 277.746 219.007 277.746C220.046 277.746 221.024 277.642 221.933 277.45C220.831 275.15 220.639 272.726 221.458 270.866C222.181 269.227 223.607 268.167 225.466 267.871C227.855 267.492 229.756 268.787 230.149 270.997C230.582 273.462 229.088 276.775 225.542 278.648L225.548 278.641ZM254.788 271.927C253.438 271.927 252.219 272.932 251.888 274.309C251.551 275.707 252.226 277.03 253.748 278.035C255.807 275.941 256.592 273.834 256.268 272.739C256.186 272.443 255.993 272.092 255.263 271.968C255.104 271.941 254.939 271.927 254.781 271.927H254.788ZM226.334 270.157C226.182 270.157 226.017 270.171 225.851 270.198C224.784 270.37 224.033 270.915 223.641 271.817C223.069 273.118 223.29 274.915 224.206 276.678C227.091 275.267 228.083 272.829 227.835 271.403C227.69 270.577 227.187 270.164 226.334 270.164V270.157ZM275.708 260.571C274.462 260.571 273.229 261.873 273.126 263.298C272.988 265.137 274.765 266.459 277.981 266.934C278.208 266.969 278.435 266.982 278.662 266.982C279.11 266.982 279.564 266.92 280.012 266.79C279.282 263.636 277.45 261.129 276.362 260.695C276.149 260.613 275.928 260.571 275.708 260.571ZM204.566 252.218C205.578 253.313 206.68 254.119 207.741 254.525C208.491 254.814 209.173 254.959 209.772 254.959C211.294 254.959 211.838 254.043 211.838 253.189C211.838 252.101 210.936 250.931 208.966 250.931C208.643 250.931 208.298 250.958 207.94 251.02C206.715 251.227 205.592 251.633 204.573 252.225L204.566 252.218ZM276.225 238.026C275.061 238.026 274.352 238.363 274.124 239.031C273.766 240.071 274.489 241.744 275.701 242.688C275.777 242.743 275.839 242.77 275.928 242.77C276.714 242.77 278.311 241.31 279.461 238.645C278.208 238.232 277.12 238.026 276.225 238.026ZM217.037 226.491C216.314 228.936 216.231 230.905 216.851 231.794C217.03 232.055 217.388 232.4 218.38 232.4C218.676 232.4 219 232.365 219.358 232.303C219.75 232.234 220.163 232.062 220.232 231.312C220.349 230.024 219.268 227.779 217.037 226.491ZM263.01 218.083C260.228 219.288 258.575 221.926 258.41 223.985C258.341 224.838 258.486 225.975 259.56 226.512C260.042 226.753 260.538 226.877 261.047 226.87C262.39 226.87 263.657 225.995 264.291 224.639C265.179 222.731 264.711 220.376 263.017 218.076L263.01 218.083ZM240.96 215.549C239.535 216.988 238.681 218.579 238.674 219.853C238.674 220.555 238.922 221.12 239.445 221.581C239.803 221.898 240.154 222.056 240.471 222.056C241.105 222.056 241.759 221.395 242.096 220.404C242.544 219.109 242.454 217.167 240.96 215.549Z" fill="white"/>
<path d="M-16.0829 854.443C11.1386 854.443 33.2917 876.589 33.2917 903.818C33.2917 904.444 33.2642 905.099 33.2435 905.732C33.1884 907.254 34.1318 908.631 35.5711 909.12C35.936 909.244 36.3148 909.306 36.6867 909.306C37.7747 909.306 38.8283 908.79 39.4894 907.867C46.1553 898.536 56.9667 892.965 68.4048 892.965C87.9963 892.965 103.931 908.9 103.931 928.491C103.931 932.534 103.249 936.514 101.907 940.315C101.425 941.685 101.851 943.221 102.988 944.137C103.614 944.646 104.386 944.908 105.157 944.908C105.777 944.908 106.396 944.743 106.947 944.405C114.171 940.005 122.483 937.678 130.987 937.678C156.501 937.678 177.263 958.44 177.263 983.953C177.263 1003.61 164.861 1021.09 146.357 1027.6L-62.6892 1038.29C-63.2952 1036.48 -64.2317 1032.32 -64.9961 1022.94C-65.6916 1014.37 -66.1323 1002.76 -66.3114 988.416C-66.6281 962.461 -66.029 933.759 -65.671 916.612C-65.5401 910.394 -65.4437 905.904 -65.4437 903.811C-65.4437 876.589 -43.2974 854.436 -16.0691 854.436M-16.0829 851C-45.2531 851 -68.9006 874.647 -68.9006 903.818C-68.9006 917.122 -72.8327 1032.56 -64.7138 1041.85L147.012 1031.01C166.603 1024.34 180.699 1005.8 180.699 983.953C180.699 956.498 158.443 934.234 130.98 934.234C121.519 934.234 112.677 936.879 105.15 941.465C106.582 937.409 107.367 933.043 107.367 928.491C107.367 906.965 89.9176 889.522 68.3979 889.522C55.314 889.522 43.7451 895.974 36.6798 905.863C36.7073 905.181 36.7348 904.499 36.7348 903.818C36.7348 874.647 13.0874 851 -16.0829 851Z" fill="#DBF3FF"/>
<path d="M-17.1478 722.508C-9.91086 720.782 -2.51695 720.032 4.70252 720.224C39.8757 721.148 77.9609 743.887 78.3969 791.651C78.4143 794.441 76.1648 796.726 73.3921 796.743C70.6019 796.76 68.3175 794.528 68.3001 791.738C67.9165 750.671 34.9231 731.105 4.44091 730.303C-27.7677 729.466 -61.5284 748.474 -64.2488 792.872C-64.4231 795.662 -66.8122 797.789 -69.6023 797.598C-72.3925 797.423 -74.5024 795.034 -74.3281 792.244C-71.8344 751.647 -45.799 729.344 -17.1478 722.491V722.508Z" fill="#DBF3FF"/>
<path d="M-24.8903 691.869C-14.5145 689.375 -3.87711 688.329 6.53358 688.643C56.6339 690.125 110.309 722.979 109.769 791.634C109.751 794.424 107.467 796.656 104.676 796.639C101.886 796.621 99.6543 794.337 99.6717 791.547C100.16 729.693 51.5942 700.065 6.23705 698.722C-40.3931 697.345 -92.1501 726.118 -95.5505 792.541C-95.69 795.331 -98.0791 797.476 -100.852 797.319C-103.642 797.179 -105.787 794.808 -105.63 792.018C-102.648 733.634 -65.7658 701.652 -24.8903 691.852V691.869Z" fill="#F4C749"/>
<path d="M-32.6329 661.247C-18.9089 657.968 -4.85358 656.608 8.92271 657.097C73.741 659.364 142.762 702.471 141.123 791.808C141.07 794.598 138.769 796.83 135.978 796.76C133.188 796.708 130.974 794.406 131.026 791.616C132.543 709.115 68.6141 669.286 8.57393 667.193C-53.4194 665.031 -122.214 702.925 -126.765 791.267C-126.905 794.04 -129.276 796.202 -132.066 796.045C-134.856 795.906 -137.001 793.534 -136.844 790.744C-132.956 715.201 -85.4362 673.89 -32.6154 661.247H-32.6329Z" fill="#F2C9D1"/>
<path d="M318 1041.96C318 1016.64 297.408 996.112 272.009 996.112C268.926 996.112 265.918 996.419 263.004 996.995C263.386 994.441 263.586 991.827 263.586 989.165C263.586 960.011 239.876 936.376 210.631 936.376C198.757 936.376 187.794 940.271 178.959 946.854C178.542 921.803 158.054 901.617 132.825 901.617C122.227 901.617 112.471 905.187 104.682 911.173C98.3346 898.617 85.2967 890 70.2268 890C57.3843 890 46.0135 896.263 39.0061 905.888C30.4791 896.159 17.9491 890 3.96906 890C-10.011 890 -22.5063 896.137 -31.0333 905.85C-32.6093 905.689 -34.207 905.607 -35.8264 905.607C-58.6114 905.607 -77.5583 921.941 -81.5569 943.504C-90.3184 936.674 -101.346 932.606 -113.329 932.606C-141.845 932.606 -164.96 955.649 -164.96 984.076C-164.96 990.905 -163.623 997.424 -161.2 1003.39C-163.332 1003.03 -165.516 1002.83 -167.752 1002.83C-189.429 1002.83 -207 1020.35 -207 1041.96C-207 1049.5 317.996 1050.51 317.996 1041.96H318Z" fill="white"/>
<path d="M696 1049.92C696 1024.44 675.447 1003.78 650.097 1003.78C647.02 1003.78 644.017 1004.09 641.109 1004.67C641.491 1002.1 641.69 999.472 641.69 996.793C641.69 967.455 618.025 943.669 588.836 943.669C576.984 943.669 566.042 947.589 557.224 954.214C556.808 929.004 536.359 908.69 511.177 908.69C500.6 908.69 490.862 912.283 483.088 918.307C476.753 905.672 463.74 897 448.699 897C435.881 897 424.532 903.302 417.538 912.989C409.027 903.198 396.521 897 382.567 897C368.614 897 356.142 903.176 347.632 912.95C346.059 912.789 344.464 912.706 342.848 912.706C320.106 912.706 301.195 929.144 297.204 950.843C288.459 943.97 277.453 939.875 265.493 939.875C237.031 939.875 213.96 963.064 213.96 991.671C213.96 998.544 215.295 1005.1 217.713 1011.11C215.585 1010.74 213.405 1010.55 211.174 1010.55C189.537 1010.55 172 1028.17 172 1049.92C172 1057.51 695.996 1058.52 695.996 1049.92H696Z" fill="white"/>
</g>
<defs>
<linearGradient id="paint0_linear_108_1359" x1="720" y1="0" x2="720" y2="1032" gradientUnits="userSpaceOnUse">
<stop stop-color="#CCE5FF" stop-opacity="0"/>
<stop offset="0.24" stop-color="#CBE5FF" stop-opacity="0.8"/>
<stop offset="1" stop-color="#B0E8FF"/>
</linearGradient>
</defs>
</svg>
