<svg width="1921" height="868" viewBox="0 0 1921 868" fill="none" xmlns="http://www.w3.org/2000/svg">
<g opacity="0.45" clip-path="url(#clip0_36_22672)">
<path d="M1921 0H0.999878V868H1921V0Z" fill="url(#paint0_linear_36_22672)"/>
<path d="M16.5 255.5C16.5 255.5 144.221 242.476 174.803 228.109C193.112 219.507 209.303 201.605 225.473 193.589C248.623 182.127 264.274 227.366 294.158 219.867C308.638 216.242 337.778 206.604 359.24 190.594C382.097 173.548 412.904 157.605 420.921 156.074C429.253 154.475 442.022 179.335 472.469 193.679C495.349 204.442 514.761 226.037 536.267 230.766C565.317 237.161 567.186 220.408 582.995 220.408C592.318 220.408 597.813 232.59 612.428 246.912C622.63 256.887 645.915 266.457 661.364 276.928C698.972 302.441 692.058 336.083 742.3 316.718C748.673 314.263 769.594 334.395 788.082 346.735C797.788 353.22 816.434 356.62 826.816 364.389C838.774 373.351 866.023 398.526 877.891 405.349C907.842 422.576 919.89 415.145 930.227 414.086C944.662 412.6 963.758 392.739 980.626 396.927C997.493 401.116 1133.94 450.273 1133.94 450.273C1133.94 450.273 1220.3 418.838 1264.69 419.558C1309.08 420.279 1365.53 403.413 1365.53 403.413C1365.53 403.413 1458.54 364.028 1486.64 364.389C1514.75 364.749 1528.46 345.226 1552.38 352.724C1576.29 360.223 1594.78 334.259 1594.78 334.259C1594.78 334.259 1654.84 270.15 1671.12 279.158C1687.41 288.165 1705.38 301.676 1725.67 318.182C1745.96 334.687 1872.48 349.409 1890.5 369V587.5L835.306 602L28 546.5L16.5 288V255.5Z" fill="#7AEB7D"/>
<g clip-path="url(#clip1_36_22672)">
<path d="M1497.68 607L1502.35 606.404L1471.62 362.777H1473.6V358.042H1457.37V362.777H1459.36L1428.62 606.404L1433.3 607L1443.72 524.364H1448.41L1442.8 606.53L1447.51 606.859L1453.15 524.364H1477.85L1483.5 606.859L1488.2 606.53L1482.59 524.364H1487.28L1497.71 607H1497.68ZM1471.49 431.366H1459.5L1464.19 362.777H1466.8L1471.49 431.366ZM1471.04 436.1L1465.49 460.024L1459.94 436.1H1471.04ZM1463.06 470.449L1454.21 508.624L1458.25 449.661L1463.08 470.465L1463.06 470.449ZM1465.49 480.891L1474.48 519.645H1456.5L1465.49 480.891ZM1467.91 470.449L1472.74 449.646L1476.77 508.608L1467.93 470.434L1467.91 470.449ZM1444.32 519.645L1453.95 443.375L1448.74 519.645H1444.33H1444.32ZM1482.25 519.645L1477.04 443.375L1486.67 519.645H1482.26H1482.25Z" fill="#67D06A"/>
<path d="M1513.92 359.234H1540.64V364.392L1583.62 369.691V346.88L1540.64 352.163V357.321H1513.92V359.234Z" fill="#67D06A"/>
<path d="M1464.74 357.211H1436.49V353.026L1401.62 348.73L1409.31 366.289L1436.49 362.949V358.764H1464.74V357.211Z" fill="#67D06A"/>
<path d="M1464.42 357.698L1439.96 371.87L1437.86 368.248L1405.53 382.013L1420.94 393.348L1442.8 376.824L1440.72 373.218L1465.19 359.046L1464.42 357.698Z" fill="#67D06A"/>
<path d="M1464.39 358.278L1450.26 382.813L1446.65 380.728L1425.51 408.853L1444.52 410.954L1455.22 385.682L1451.6 383.597L1465.74 359.061L1464.39 358.278Z" fill="#67D06A"/>
<path d="M1464.66 358.795V387.14H1460.48L1456.2 422.085L1473.71 414.387L1470.38 387.14H1466.21V358.795H1464.66Z" fill="#67D06A"/>
<path d="M1465.14 359.108L1479.28 383.659L1475.66 385.744L1489.39 418.165L1500.7 402.707L1484.22 380.79L1480.62 382.875L1466.49 358.34L1465.14 359.108Z" fill="#67D06A"/>
<path d="M1465.72 359.14L1490.19 373.312L1488.11 376.934L1516.16 398.13L1518.25 379.066L1493.05 368.342L1490.97 371.964L1466.5 357.792L1465.72 359.14Z" fill="#67D06A"/>
<path d="M1466.24 358.873H1494.5V363.059L1529.35 367.355L1521.68 349.796L1494.5 353.151V357.321H1466.24V358.873Z" fill="#67D06A"/>
<path d="M1466.55 358.387L1491.03 344.215L1493.11 347.836L1525.44 334.087L1510.03 322.737L1488.17 339.261L1490.25 342.882L1465.78 357.039L1466.55 358.387Z" fill="#67D06A"/>
<path d="M1466.58 357.807L1480.71 333.272L1484.33 335.357L1505.46 307.232L1486.45 305.131L1475.76 330.403L1479.37 332.488L1465.24 357.023L1466.58 357.807Z" fill="#67D06A"/>
<path d="M1466.32 357.29V328.961H1470.49L1474.77 294L1457.26 301.713L1460.61 328.961H1464.77V357.29H1466.32Z" fill="#67D06A"/>
<path d="M1465.83 356.976L1451.7 332.441L1455.31 330.34L1441.6 297.935L1430.28 313.377L1446.76 335.294L1450.37 333.209L1464.49 357.744L1465.83 356.976Z" fill="#67D06A"/>
<path d="M1465.25 356.945L1440.78 342.772L1442.86 339.151L1414.82 317.955L1412.72 337.019L1437.92 347.742L1440 344.121L1464.47 358.293L1465.25 356.945Z" fill="#67D06A"/>
<path d="M1465.49 360.802C1467.01 360.802 1468.24 359.566 1468.24 358.042C1468.24 356.519 1467.01 355.283 1465.49 355.283C1463.97 355.283 1462.74 356.519 1462.74 358.042C1462.74 359.566 1463.97 360.802 1465.49 360.802Z" fill="#67D06A"/>
</g>
<path d="M1.02515 782.006H1731.74L1711.5 615.736C953.003 433.922 1.02515 391.576 1.02515 391.576V782.006Z" fill="#47D14B"/>
<g style="mix-blend-mode:multiply">
<path d="M1327.27 645.677C1298.66 645.192 1270.01 644.324 1241.4 644.146C1126.9 643.15 1012.53 647.668 898.423 654.968C869.908 656.959 841.342 658.542 812.852 660.89L727.383 668.394C713.138 669.696 698.894 670.794 684.674 672.223L642.017 676.869L556.726 686.134C542.507 687.538 528.339 689.58 514.145 691.367L471.589 696.88L386.478 707.907L216.638 733.432L215.591 725.188L385.661 700.684L470.875 690.167L513.481 684.909C527.701 683.199 541.869 681.259 556.114 679.932L641.506 671.177L684.189 666.786C698.434 665.434 712.705 664.413 726.949 663.213L812.495 656.219C841.01 654.024 869.602 652.645 898.142 650.808C1012.36 644.171 1126.8 640.368 1241.35 642.053C1269.99 642.41 1298.63 643.431 1327.25 644.095L1370.21 646.111C1384.53 646.8 1398.86 647.387 1413.15 648.536L1456.09 651.573L1499 655.555C1527.57 658.746 1556.19 661.809 1584.6 666.991C1556.16 661.988 1527.54 659.078 1498.98 656.066L1456.06 652.339L1413.13 649.557C1398.83 648.51 1384.51 648.025 1370.19 647.413L1327.25 645.652L1327.27 645.677ZM70.9732 512.309L124.327 509.425L151.005 507.995C159.888 507.561 168.823 507.51 177.733 507.255L284.62 504.754L338.076 503.579L391.558 503.911L498.547 504.575C507.457 504.524 516.392 504.958 525.301 505.239L552.055 506.158L605.562 508.021L659.07 509.884C667.979 510.088 676.914 510.727 685.823 511.288L712.577 512.947L819.566 519.609C962.142 531.121 1104.62 547.074 1246.55 569.944L1299.75 578.7C1308.64 580.078 1317.47 581.712 1326.33 583.422L1352.88 588.399L1405.98 598.43L1458.95 609.585C1529.51 624.874 1599.94 641.568 1669.61 662.855C1599.99 641.236 1529.59 624.185 1459.08 608.564L1406.13 597.154L1353.06 586.868L1326.51 581.737C1317.68 580.001 1308.82 578.317 1299.93 576.887L1246.73 567.877C1104.79 544.317 962.321 527.65 819.668 515.449L712.628 508.251L685.874 506.464C676.965 505.877 668.03 505.188 659.121 504.932L605.588 502.814L552.055 500.695L525.275 499.649C516.341 499.317 507.431 498.832 498.496 498.832L391.43 497.658L337.897 497.071L284.39 497.989L177.401 499.98C168.491 500.185 159.557 500.21 150.647 500.593L123.944 501.895L70.5137 504.524L1 507.944V516.087L70.9476 512.309H70.9732ZM1.02553 443.647C61.5532 444.259 122.081 444.693 182.609 445.714L290.925 449.415C327.022 450.794 363.145 451.432 399.242 453.933C471.436 458.375 543.656 461.514 615.799 468.202C651.87 471.265 687.968 473.894 724.039 477.34L832.177 488.8C976.285 505.29 1120.24 525.684 1263.5 553.021L1317.16 563.742C1335.03 567.392 1352.98 570.659 1370.8 574.82C1406.46 582.886 1442.23 590.365 1477.76 599.477C1548.94 616.885 1619.91 636.003 1689.9 660.278C1620.01 635.646 1549.04 616.196 1477.92 598.456C1442.41 589.165 1406.67 581.533 1371 573.288C1353.19 569.026 1335.26 565.682 1317.39 561.93L1263.73 550.928C1120.49 522.902 976.54 501.818 832.407 484.614L724.243 472.643C688.172 469.019 652.075 466.236 615.978 462.995C543.809 455.95 471.564 452.478 399.319 447.68C363.196 445 327.073 444.208 290.951 442.651L182.558 438.414C122.03 437.087 61.5277 436.372 1 435.479V443.621L1.02553 443.647ZM77.0744 576.096L129.459 572.216C146.92 570.914 164.381 569.511 181.894 568.872L286.841 563.87L339.327 561.368L391.864 560.143L496.939 557.82C514.451 557.233 531.989 557.641 549.502 557.59L602.09 557.718C672.191 557.156 742.317 559.99 812.469 561.649C952.722 567.392 1093 576.989 1232.97 592.713C1267.95 596.873 1302.97 600.549 1337.89 605.679L1390.3 612.878L1442.64 621.071C1512.38 632.353 1582.07 644.937 1651.23 661.758C1582.12 644.605 1512.48 631.664 1442.74 620.05L1390.41 611.576L1338 604.122C1303.07 598.813 1268.07 594.985 1233.07 590.645C1093.08 574.233 952.773 563.946 812.469 557.488C742.317 555.472 672.14 552.281 601.988 552.511L549.374 552.103C531.836 552.077 514.298 551.566 496.76 552.103L391.609 553.915L339.021 554.885L286.509 557.131L181.46 561.623C163.947 562.185 146.46 563.512 128.974 564.712L76.5384 568.336L1.02553 573.544V581.737L77.0744 576.122V576.096ZM116.26 653.896L166.628 648.306C183.425 646.468 200.198 644.452 217.046 643.15L317.985 634.37L368.455 629.979C385.304 628.703 402.152 627.784 419.001 626.661L520.119 620.203C536.967 618.952 553.842 618.493 570.716 617.727L621.339 615.634C688.81 612.188 756.409 611.601 823.983 610.172C959.155 609.253 1094.46 611.652 1229.73 619.54C1263.53 621.76 1297.35 623.419 1331.15 626.482L1381.85 630.617L1432.5 635.62C1500.02 642.589 1567.52 650.731 1634.71 662.702C1567.57 650.374 1500.08 641.899 1432.55 634.574L1381.9 629.316L1331.21 624.925C1297.41 621.709 1263.58 619.846 1229.78 617.472C1094.51 608.896 959.155 605.782 823.88 606.011C756.281 607.109 688.631 607.339 621.109 610.427L570.435 612.265C553.561 612.929 536.636 613.311 519.787 614.46L418.567 620.407C401.693 621.428 384.819 622.296 367.97 623.47L317.449 627.605L216.408 635.876C199.559 637.075 182.762 639.015 165.939 640.776L115.52 646.111L14.6577 656.755L15.5001 665.025L116.235 653.871L116.26 653.896Z" fill="#BDE0B2"/>
</g>
<g style="mix-blend-mode:multiply" opacity="0.5">
<path d="M1711.5 615.736C1559.84 579.388 1330.16 520.145 1116.31 529.844C1079.29 531.529 968.294 508.582 944.579 506.183C926.122 504.345 791.357 486.554 766.901 497.07C742.292 507.638 994.384 528.951 985.705 546.487C977.995 562.057 840.066 528.772 809.1 542.403C771.93 558.764 882.57 579.669 813.159 585.617C784.541 588.067 686.895 569.944 659.861 561.776C632.443 553.481 605.46 543.883 577.94 535.817C550.064 527.675 482.49 534.464 519.659 559.377C553.255 581.89 530.228 595.112 493.493 575.381C476.925 566.498 459.719 588.169 442.002 582.426C424.949 576.913 402.944 567.775 384.844 572.905C368.506 577.525 357.018 593.963 343.386 603.305C330.035 612.443 314.156 617.727 298.278 620.254C263.559 625.767 228.381 619.769 193.969 614.792C155.242 609.202 117.333 600.702 78.9892 592.993C53.3332 587.837 27.2177 583.549 1.07666 582.758V781.955H1731.8L1711.55 615.685L1711.5 615.736Z" fill="#A3E7A5"/>
</g>
<path d="M1276.17 393.102L1226 475.593H1373.92L1301.89 393.102H1276.17Z" fill="#4EAA51"/>
<path d="M1433.79 536.88H1289.25V406.639L1394.71 409.793L1433.59 465.561L1433.79 536.88Z" fill="#71CC74"/>
<path d="M1275.55 404.295L1240.41 465.583V536.88H1275.55H1310.71V465.583L1275.55 404.295Z" fill="#8BE28E"/>
<g style="mix-blend-mode:multiply">
<path d="M1254.68 440.699L1255.05 440.042H1415.8L1416.26 440.699H1254.68ZM1421.56 448.322L1421.1 447.665H1250.67L1250.29 448.322H1421.56ZM1426.89 455.945L1426.43 455.287H1246.31L1245.94 455.945H1426.89ZM1410.94 433.077L1410.48 432.42H1259.41L1259.04 433.077H1410.92H1410.94ZM1263.42 425.454H1405.61L1405.15 424.797H1263.77L1263.4 425.454H1263.42ZM1432.21 463.567L1431.75 462.91H1241.95L1241.58 463.567H1432.21ZM1433.66 493.401H1240.41V494.058H1433.66V493.401ZM1433.66 501.023H1240.41V501.68H1433.66V501.023ZM1433.61 470.555H1240.41V471.212H1433.61V470.555ZM1433.66 508.646H1240.41V509.303H1433.66V508.646ZM1433.66 516.312H1240.41V516.969H1433.66V516.312ZM1433.66 523.957H1240.41V524.614H1433.66V523.957ZM1433.66 485.778H1240.41V486.435H1433.66V485.778ZM1433.63 478.155H1240.41V478.812H1433.63V478.155Z" fill="#7BDC7E"/>
</g>
<path d="M1289.57 536.88H1262.43V477.717C1262.43 470.226 1268.5 464.137 1276.01 464.137C1283.51 464.137 1289.6 470.204 1289.6 477.717V536.88H1289.57Z" fill="#8BE28E"/>
<g style="mix-blend-mode:multiply">
<path d="M1268.06 536.88H1267.34V465.21H1268.06V536.88ZM1273.6 465.232H1272.88V536.902H1273.6V465.232ZM1279.12 465.232H1278.4V536.902H1279.12V465.232ZM1284.67 465.232H1283.94V536.902H1284.67V465.232Z" fill="#7BDC7E"/>
</g>
<path d="M1291.48 536.88H1287.67V477.717C1287.67 471.277 1282.43 466.042 1275.99 466.042C1269.55 466.042 1264.32 471.277 1264.32 477.717V536.88H1260.5V477.717C1260.5 469.175 1267.45 462.231 1275.99 462.231C1284.54 462.231 1291.48 469.175 1291.48 477.717V536.88Z" fill="#7BDC7E"/>
<path d="M1269.57 498.833C1269.57 499.731 1268.83 500.476 1267.93 500.476C1267.03 500.476 1266.29 499.731 1266.29 498.833C1266.29 497.935 1267.03 497.19 1267.93 497.19C1268.83 497.19 1269.57 497.935 1269.57 498.833Z" fill="#7BDC7E"/>
<g style="mix-blend-mode:multiply">
<path d="M1280.64 412.159L1275.55 404.295L1240.41 465.583V478.638L1280.64 412.159Z" fill="#FFECDF"/>
</g>
<path style="mix-blend-mode:multiply" d="M1433.66 467.05H1310.71V483.215H1433.66V467.05Z" fill="url(#paint1_linear_36_22672)"/>
<path d="M1390.96 393.102H1284.95H1276.39H1276.17L1226 475.593H1234.76L1275.82 408.107L1314.42 475.593H1441.89V470.489L1390.96 393.102Z" fill="#71CC74"/>
<path d="M1276.01 393.102L1320.27 470.489H1441.89L1394.62 393.102H1276.01Z" fill="#8BE28E"/>
<path style="mix-blend-mode:multiply" opacity="0.33" d="M1410.04 418.358H1290.45L1290.06 417.657H1409.62L1410.06 418.358H1410.04ZM1403.99 408.457H1284.8L1285.19 409.158H1404.41L1403.97 408.457H1403.99ZM1398.39 399.279H1279.54L1279.93 399.98H1398.8L1398.36 399.279H1398.39ZM1415.23 426.856H1295.31L1295.71 427.557H1415.65L1415.21 426.856H1415.23ZM1420.84 436.034H1300.57L1300.97 436.735H1421.26L1420.82 436.034H1420.84ZM1437.69 463.611H1316.34L1316.74 464.312H1438.1L1437.66 463.611H1437.69ZM1432.08 454.412H1311.09L1311.48 455.113H1432.49L1432.06 454.412H1432.08ZM1426.45 445.234H1305.81L1306.2 445.935H1426.86L1426.43 445.234H1426.45Z" fill="url(#paint2_linear_36_22672)"/>
<path style="mix-blend-mode:multiply" d="M1373.92 421.512L1387.91 451.038L1417.69 450.995L1383.97 404.295L1373.92 421.512Z" fill="url(#paint3_linear_36_22672)"/>
<path d="M1373.92 421.512L1359 398.228V375.338H1373.92V421.512Z" fill="#8BE28E"/>
<path d="M1388.55 375.338H1373.92V421.512H1388.55V375.338Z" fill="#71CC74"/>
<path d="M1373.89 370.278H1357.2V377.2H1373.89V370.278Z" fill="#7CDB7F"/>
<path d="M1390.61 370.278H1373.92V377.2H1390.61V370.278Z" fill="#5EC061"/>
<path d="M1349.73 487.114H1336.04V500.804H1349.73V487.114Z" fill="#8BE28E"/>
<path d="M1348.53 501.987H1337.27C1335.93 501.987 1334.86 500.914 1334.86 499.578V488.319C1334.86 486.983 1335.93 485.909 1337.27 485.909H1348.53C1349.86 485.909 1350.93 486.983 1350.93 488.319V499.578C1350.93 500.914 1349.86 501.987 1348.53 501.987ZM1337.27 488.056C1337.11 488.056 1336.98 488.187 1336.98 488.341V499.599C1336.98 499.753 1337.11 499.884 1337.27 499.884H1348.53C1348.68 499.884 1348.81 499.753 1348.81 499.599V488.341C1348.81 488.187 1348.68 488.056 1348.53 488.056H1337.27Z" fill="#7BDC7E"/>
<path d="M1379.02 487.114H1365.33V500.804H1379.02V487.114Z" fill="#8BE28E"/>
<path d="M1377.81 501.987H1366.55C1365.22 501.987 1364.14 500.914 1364.14 499.578V488.319C1364.14 486.983 1365.22 485.909 1366.55 485.909H1377.81C1379.15 485.909 1380.22 486.983 1380.22 488.319V499.578C1380.22 500.914 1379.15 501.987 1377.81 501.987ZM1366.53 488.056C1366.38 488.056 1366.25 488.187 1366.25 488.341V499.599C1366.25 499.753 1366.38 499.884 1366.53 499.884H1377.79C1377.95 499.884 1378.08 499.753 1378.08 499.599V488.341C1378.08 488.187 1377.95 488.056 1377.79 488.056H1366.53Z" fill="#7BDC7E"/>
<path d="M1408.31 487.114H1394.62V500.804H1408.31V487.114Z" fill="#8BE28E"/>
<path d="M1407.08 501.987H1395.82C1394.49 501.987 1393.41 500.914 1393.41 499.578V488.319C1393.41 486.983 1394.49 485.909 1395.82 485.909H1407.08C1408.42 485.909 1409.49 486.983 1409.49 488.319V499.578C1409.49 500.914 1408.42 501.987 1407.08 501.987ZM1395.82 488.056C1395.67 488.056 1395.54 488.187 1395.54 488.341V499.599C1395.54 499.753 1395.67 499.884 1395.82 499.884H1407.08C1407.24 499.884 1407.37 499.753 1407.37 499.599V488.341C1407.37 488.187 1407.24 488.056 1407.08 488.056H1395.82Z" fill="#7BDC7E"/>
<g clip-path="url(#clip2_36_22672)">
<path d="M485.271 634.18H11.9724V648.578H485.271V634.18Z" fill="#B3E7B4"/>
<path d="M20.1918 700.427H1.17639V606.877L10.6841 598.171L20.1918 606.877V700.427Z" fill="#BBEABC"/>
<path d="M65.5919 700.427H46.5764V606.877L56.0841 598.171L65.5919 606.877V700.427Z" fill="#BBEABC"/>
<path d="M110.992 700.427H92.0022V606.877L101.51 598.171L110.992 606.877V700.427Z" fill="#BBEABC"/>
<path d="M156.418 700.427H137.428V606.877L146.91 598.171L156.418 606.877V700.427Z" fill="#BBEABC"/>
<path d="M201.843 700.427H182.828V606.877L192.336 598.171L201.843 606.877V700.427Z" fill="#BBEABC"/>
<path d="M247.243 700.427H228.228V606.877L237.736 598.171L247.243 606.877V700.427Z" fill="#BBEABC"/>
<path d="M292.643 700.427H273.654V606.877L283.162 598.171L292.643 606.877V700.427Z" fill="#BBEABC"/>
<path d="M338.069 700.427H319.079V606.877L328.561 598.171L338.069 606.877V700.427Z" fill="#BBEABC"/>
<path d="M383.495 700.427H364.479V606.877L373.987 598.171L383.495 606.877V700.427Z" fill="#BBEABC"/>
<path d="M428.895 700.427H409.88V606.877L419.387 598.171L428.895 606.877V700.427Z" fill="#BBEABC"/>
<path d="M474.295 700.427H455.305V606.877L464.813 598.171L474.295 606.877V700.427Z" fill="#BBEABC"/>
</g>
<path d="M1921 868.051H6.3739V688.329C327.878 691.469 466.19 689.172 863.641 588.654C1343.4 467.334 1692.52 513.994 1921 593.836V868.051Z" fill="#78E87B"/>
<g style="mix-blend-mode:multiply" opacity="0.25">
<path d="M1528.02 535.741C1542.29 545.364 1616.83 554.17 1633.17 560.653C1684.07 580.869 1670.57 600.396 1647.21 594.474C1621.71 588.016 1537.18 563.818 1554.29 584.519C1560.41 591.921 1621.55 607.211 1627.3 627.963C1635.54 657.699 1609.45 655.07 1589.46 649.608C1566.74 643.405 1531.59 655.172 1515.97 637.739C1416.71 527.011 1438.67 633.272 1397.36 633.578C1383.27 633.68 1361.39 629.877 1345.49 637.739C1319.09 650.782 1301.63 672.734 1271.81 668.394C1226.81 661.86 1270.59 619.003 1180.78 642.946C1160.61 648.332 1081.63 658.874 1093.86 639.755C1100.57 629.239 1164.11 599.553 1243.5 588.705C1299.03 581.124 1257.9 577.474 1183.49 588.067C1048.93 607.211 1054.77 624.874 994.423 633.553C960.879 638.377 973.873 621.888 910.052 621.888C886.157 621.888 799.565 690.78 840.487 630.362C843.959 625.232 819.937 630.311 756.882 640.827C397.622 728.914 313.812 691.29 6.34875 688.304V868.025H1920.97V593.81C1822.74 559.479 1566.13 521.83 1527.99 535.715L1528.02 535.741Z" fill="#18C21D"/>
</g>
<path d="M105.105 738.154C105.462 736.189 105.692 734.3 105.692 732.59C105.539 733.994 105.334 735.934 105.105 738.154Z" fill="url(#paint4_linear_36_22672)"/>
<path d="M1877 964H34V851.899C602.153 870.416 748.552 720.782 1202.08 762.319C1586.45 815.867 1877 787.324 1877 787.324V964Z" fill="white"/>
</g>
<defs>
<linearGradient id="paint0_linear_36_22672" x1="1017.32" y1="69.5" x2="1017.32" y2="868" gradientUnits="userSpaceOnUse">
<stop stop-color="#A2E796" stop-opacity="0"/>
<stop offset="0.686824" stop-color="#AFF0A1"/>
<stop offset="1" stop-color="#9FEA7A"/>
</linearGradient>
<linearGradient id="paint1_linear_36_22672" x1="1372.16" y1="464.597" x2="1372.16" y2="482.865" gradientUnits="userSpaceOnUse">
<stop stop-color="#F0CEB3"/>
<stop offset="1" stop-color="#FFE2D6"/>
</linearGradient>
<linearGradient id="paint2_linear_36_22672" x1="1358.82" y1="399.279" x2="1358.82" y2="467.97" gradientUnits="userSpaceOnUse">
<stop stop-color="#AB744C"/>
<stop offset="0.53" stop-color="#8B5B2C"/>
<stop offset="1" stop-color="#744915"/>
</linearGradient>
<linearGradient id="paint3_linear_36_22672" x1="1395.78" y1="404.295" x2="1395.78" y2="448.103" gradientUnits="userSpaceOnUse">
<stop stop-color="#A18461"/>
<stop offset="0.07" stop-color="#AB9273"/>
<stop offset="0.3" stop-color="#C9B8A4"/>
<stop offset="0.51" stop-color="#E0D7CB"/>
<stop offset="0.7" stop-color="#F1EDE7"/>
<stop offset="0.87" stop-color="#FBFAF8"/>
<stop offset="1" stop-color="white"/>
</linearGradient>
<linearGradient id="paint4_linear_36_22672" x1="105.564" y1="732.13" x2="105.258" y2="738.92" gradientUnits="userSpaceOnUse">
<stop stop-color="#699A55"/>
<stop offset="0.22" stop-color="#659351"/>
<stop offset="0.52" stop-color="#5D8247"/>
<stop offset="0.87" stop-color="#4E6638"/>
<stop offset="1" stop-color="#485A31"/>
</linearGradient>
<clipPath id="clip0_36_22672">
<rect width="1921" height="868" fill="white"/>
</clipPath>
<clipPath id="clip1_36_22672">
<rect width="182" height="313" fill="white" transform="translate(1401.62 294)"/>
</clipPath>
<clipPath id="clip2_36_22672">
<rect width="484.095" height="102.255" fill="white" transform="translate(1.17639 598.171)"/>
</clipPath>
</defs>
</svg>
