<svg width="375" height="1062" viewBox="0 0 375 1062" fill="none" xmlns="http://www.w3.org/2000/svg">
<g clip-path="url(#clip0_108_9339)">
<g clip-path="url(#clip1_108_9339)">
<g opacity="0.45">
<path d="M799 1H-310V1170H799V1Z" fill="url(#paint0_linear_108_9339)"/>
<path d="M-309.986 736.194C-309.986 736.194 -290.135 733.798 -270.048 724.362C-258.022 718.712 -247.386 706.954 -236.766 701.688C-221.56 694.16 -211.279 723.873 -191.65 718.948C-182.139 716.567 -162.998 710.237 -148.902 699.721C-133.888 688.525 -113.653 678.054 -108.387 677.048C-102.914 675.998 -94.5266 692.326 -74.5279 701.748C-59.4993 708.817 -46.7486 723.001 -32.6223 726.107C-13.5408 730.307 -12.313 719.303 -1.92908 719.303C4.19478 719.303 7.804 727.305 17.404 736.711C24.1047 743.263 39.3996 749.549 49.5468 756.426C74.2494 773.183 69.7082 795.28 102.709 782.56C106.895 780.948 120.637 794.17 132.781 802.275C139.156 806.535 151.404 808.768 158.223 813.871C166.078 819.757 183.976 836.292 191.771 840.774C211.445 852.088 219.358 847.207 226.148 846.512C235.629 845.536 248.173 832.491 259.252 835.242C270.331 837.993 359.956 870.28 359.956 870.28C359.956 870.28 416.683 849.633 445.838 850.106C474.992 850.579 512.076 839.502 512.076 839.502C512.076 839.502 573.167 813.634 591.627 813.871C610.087 814.107 619.095 801.284 634.805 806.209C650.514 811.134 662.658 794.082 662.658 794.082C662.658 794.082 702.108 751.974 712.802 757.89C723.497 763.806 735.301 772.68 748.628 783.521C761.956 794.363 787.59 787.352 799.424 800.219V949.096L163.8 969.935L-309.971 930.386V736.164L-309.986 736.194Z" fill="#7AEB7D"/>
<path d="M-309.986 1079.13H692.848L681.118 982.786C241.62 877.437 -309.986 852.9 -309.986 852.9V1079.13Z" fill="#47D14B"/>
<g style="mix-blend-mode:multiply">
<path d="M458.485 1000.14C441.903 999.854 425.306 999.352 408.724 999.248C342.383 998.671 276.115 1001.29 209.995 1005.52C193.472 1006.67 176.92 1007.59 160.412 1008.95L110.889 1013.3C102.635 1014.05 94.3812 1014.69 86.1421 1015.52L61.4247 1018.21L12.0049 1023.58C3.76581 1024.39 -4.44373 1025.57 -12.668 1026.61L-37.3262 1029.8L-86.6425 1036.19L-185.053 1050.98L-185.66 1046.21L-87.1158 1032.01L-37.7404 1025.91L-13.0526 1022.87C-4.81352 1021.88 3.396 1020.75 11.6499 1019.98L61.1289 1014.91L85.861 1012.37C94.1149 1011.58 102.384 1010.99 110.637 1010.3L160.205 1006.24C176.728 1004.97 193.295 1004.17 209.832 1003.11C276.011 999.263 342.323 997.059 408.695 998.035C425.291 998.242 441.888 998.834 458.47 999.219L483.365 1000.39C491.663 1000.79 499.961 1001.13 508.245 1001.79L533.125 1003.55L557.99 1005.86C574.542 1007.71 591.124 1009.48 607.587 1012.49C591.109 1009.59 574.527 1007.9 557.975 1006.15L533.11 1004L508.23 1002.38C499.946 1001.78 491.648 1001.5 483.35 1001.14L458.47 1000.12L458.485 1000.14ZM-269.456 922.858L-238.541 921.186L-223.083 920.358C-217.936 920.107 -212.758 920.077 -207.596 919.929L-145.662 918.48L-114.688 917.8L-83.6989 917.992L-21.7059 918.376C-16.5435 918.347 -11.3663 918.598 -6.20395 918.761L9.29799 919.293L40.3019 920.373L71.3058 921.453C76.4682 921.571 81.6453 921.941 86.8077 922.266L102.31 923.228L164.303 927.088C246.916 933.758 329.469 943.002 411.712 956.254L442.539 961.327C447.686 962.125 452.804 963.072 457.937 964.063L473.321 966.947L504.088 972.759L534.781 979.222C575.666 988.082 616.477 997.754 656.844 1010.09C616.507 997.562 575.711 987.682 534.855 978.631L504.177 972.02L473.424 966.059L458.041 963.087C452.923 962.081 447.79 961.105 442.642 960.276L411.816 955.056C329.573 941.404 247.019 931.747 164.362 924.677L102.339 920.506L86.8373 919.471C81.6749 919.131 76.4977 918.731 71.3353 918.583L40.3167 917.356L9.29799 916.128L-6.21876 915.522C-11.3959 915.33 -16.5583 915.049 -21.7355 915.049L-83.7728 914.368L-114.792 914.028L-145.795 914.561L-207.788 915.714C-212.951 915.832 -218.128 915.847 -223.29 916.069L-238.763 916.823L-269.722 918.347L-310.001 920.329V925.047L-269.471 922.858H-269.456ZM-309.986 883.073C-274.914 883.428 -239.842 883.679 -204.771 884.271L-142.009 886.415C-121.093 887.214 -100.162 887.584 -79.2465 889.033C-37.4149 891.606 4.43144 893.426 46.2334 897.301C67.1344 899.075 88.0502 900.599 108.951 902.595L171.61 909.236C255.11 918.79 338.522 930.608 421.534 946.448L452.627 952.66C462.981 954.775 473.38 956.668 483.705 959.078C504.369 963.752 525.093 968.086 545.683 973.366C586.923 983.452 628.044 994.53 668.604 1008.6C628.104 994.323 586.982 983.053 545.772 972.774C525.196 967.39 504.487 962.968 483.823 958.191C473.498 955.721 463.114 953.784 452.76 951.61L421.667 945.235C338.67 928.996 255.258 916.779 171.743 906.811L109.07 899.874C88.1686 897.774 67.2528 896.162 46.337 894.283C4.5202 890.201 -37.341 888.19 -79.2021 885.409C-100.133 883.857 -121.063 883.398 -141.994 882.496L-204.8 880.041C-239.872 879.272 -274.929 878.857 -310.001 878.34V883.058L-309.986 883.073ZM-265.921 959.818L-235.568 957.57C-225.45 956.816 -215.332 956.002 -205.185 955.632L-144.375 952.734L-113.963 951.284L-83.5214 950.574L-22.6378 949.228C-12.4905 948.888 -2.32847 949.125 7.81879 949.095L38.2902 949.169C78.9088 948.844 119.542 950.485 160.19 951.447C241.457 954.775 322.739 960.336 403.843 969.446C424.108 971.857 444.403 973.987 464.638 976.96L495.006 981.13L525.329 985.878C565.741 992.415 606.123 999.707 646.194 1009.45C606.152 999.514 565.8 992.016 525.388 985.286L495.065 980.376L464.697 976.057C444.462 972.981 424.182 970.763 403.902 968.248C322.783 958.738 241.487 952.778 160.19 949.036C119.542 947.868 78.8792 946.019 38.231 946.152L7.74483 945.915C-2.41723 945.901 -12.5793 945.605 -22.7413 945.915L-83.6693 946.965L-114.141 947.527L-144.568 948.829L-205.436 951.432C-215.584 951.757 -225.716 952.526 -235.849 953.222L-266.231 955.322L-309.986 958.339V963.087L-265.921 959.833V959.818ZM-243.215 1004.9L-214.031 1001.66C-204.297 1000.59 -194.579 999.426 -184.817 998.671L-126.329 993.583L-97.0856 991.04C-87.3229 990.3 -77.5602 989.768 -67.7975 989.117L-9.20671 985.375C0.555963 984.65 10.3334 984.384 20.1109 983.94L49.4433 982.728C88.5383 980.731 127.707 980.391 166.862 979.563C245.185 979.03 323.582 980.42 401.965 984.991C421.549 986.277 441.148 987.239 460.733 989.013L490.11 991.409L519.457 994.308C558.582 998.346 597.691 1003.06 636.624 1010C597.721 1002.86 558.611 997.947 519.486 993.702L490.139 990.655L460.762 988.111C441.178 986.248 421.579 985.168 401.994 983.793C323.612 978.823 245.185 977.019 166.802 977.152C127.633 977.788 88.4348 977.921 49.3101 979.711L19.9482 980.775C10.1707 981.16 0.363661 981.382 -9.39901 982.047L-68.049 985.493C-77.8265 986.085 -87.6039 986.588 -97.3666 987.268L-126.64 989.664L-185.186 994.456C-194.949 995.151 -204.682 996.275 -214.43 997.296L-243.644 1000.39L-302.087 1006.55L-301.599 1011.35L-243.23 1004.88L-243.215 1004.9Z" fill="#BDE0B2"/>
</g>
<g style="mix-blend-mode:multiply" opacity="0.5">
<path d="M681.118 982.786C593.239 961.725 460.156 927.398 336.244 933.018C314.796 933.994 250.48 920.698 236.739 919.307C226.044 918.243 147.957 907.934 133.787 914.027C119.527 920.15 265.598 932.5 260.568 942.661C256.101 951.683 176.181 932.397 158.238 940.294C136.701 949.775 200.809 961.888 160.59 965.334C144.008 966.754 87.4289 956.253 71.7643 951.52C55.8777 946.713 40.2426 941.152 24.2969 936.479C8.14415 931.761 -31.0101 935.695 -9.47302 950.13C9.99317 963.175 -3.34916 970.836 -24.6347 959.403C-34.2347 954.256 -44.2045 966.813 -54.4701 963.485C-64.3511 960.291 -77.1017 954.996 -87.5892 957.969C-97.056 960.646 -103.712 970.17 -111.611 975.583C-119.347 980.878 -128.548 983.94 -137.749 985.404C-157.866 988.599 -178.249 985.123 -198.188 982.239C-220.628 979 -242.594 974.075 -264.811 969.608C-279.677 966.621 -294.809 964.136 -309.956 963.677V1079.1H692.877L681.147 982.757L681.118 982.786Z" fill="#A3E7A5"/>
</g>
<path d="M802.508 1128.99H-306.887V1024.85C-120.597 1026.67 -40.4545 1025.34 189.841 967.095C467.826 896.798 670.12 923.834 802.508 970.097V1128.99Z" fill="#78E87B"/>
<g style="mix-blend-mode:multiply" opacity="0.25">
<path d="M574.801 936.435C583.07 942.011 626.263 947.114 635.729 950.87C665.225 962.584 657.4 973.898 643.865 970.467C629.088 966.725 580.112 952.704 590.022 964.699C593.572 968.988 628.999 977.847 632.327 989.872C637.105 1007.1 621.988 1005.58 610.406 1002.41C597.241 998.819 576.872 1005.64 567.82 995.536C510.309 931.377 523.03 992.948 499.096 993.125C490.931 993.184 478.255 990.981 469.039 995.536C453.744 1003.09 443.627 1015.81 426.35 1013.3C400.271 1009.51 425.64 984.68 373.602 998.553C361.916 1001.67 316.15 1007.78 323.235 996.704C327.125 990.611 363.942 973.41 409.945 967.124C442.118 962.732 418.288 960.617 375.17 966.755C297.201 977.847 300.589 988.082 265.62 993.111C246.184 995.906 253.713 986.351 216.733 986.351C202.888 986.351 152.714 1026.27 176.425 991.262C178.437 988.289 164.518 991.232 127.982 997.326C-80.1853 1048.37 -128.747 1026.57 -306.901 1024.84V1128.97H802.494V970.082C745.574 950.19 596.886 928.375 574.787 936.42L574.801 936.435Z" fill="#18C21D"/>
</g>
</g>
<path d="M927.193 1238.57H-552V1126.57C-96.0002 1145.07 21.4998 995.566 385.5 1037.07C694 1090.57 927.193 1062.05 927.193 1062.05V1238.57Z" fill="white"/>
</g>
</g>
<defs>
<linearGradient id="paint0_linear_108_9339" x1="277.03" y1="94.6008" x2="277.03" y2="1170" gradientUnits="userSpaceOnUse">
<stop stop-color="#A2E796" stop-opacity="0"/>
<stop offset="0.686824" stop-color="#AFF0A1"/>
<stop offset="1" stop-color="#9FEA7A"/>
</linearGradient>
<clipPath id="clip0_108_9339">
<rect width="375" height="1062" fill="white"/>
</clipPath>
<clipPath id="clip1_108_9339">
<rect width="375" height="1100" fill="white" transform="translate(0 1)"/>
</clipPath>
</defs>
</svg>
