<svg width="375" height="1153" viewBox="0 0 375 1153" fill="none" xmlns="http://www.w3.org/2000/svg">
<g clip-path="url(#clip0_108_9454)">
<g opacity="0.6" clip-path="url(#clip1_108_9454)">
<path d="M855 0H-585V1127H855V0Z" fill="url(#paint0_linear_108_9454)"/>
<path d="M-15.7946 531.874C-4.5041 513.261 22.5041 513.261 33.7946 531.874L179.738 772.459C191.462 791.786 177.548 816.5 154.943 816.5H-136.943C-159.548 816.5 -173.462 791.786 -161.738 772.459L-15.7946 531.874Z" fill="#ACEAAE"/>
<path d="M383.284 541.071C392.877 524.253 417.123 524.254 426.716 541.071L561.21 776.863C570.717 793.53 558.681 814.25 539.494 814.25H270.506C251.319 814.25 239.283 793.53 248.79 776.863L383.284 541.071Z" fill="#C3F6C5"/>
<path d="M174.316 439.105C185.447 419.611 213.553 419.611 224.684 439.105L408.124 760.37C419.163 779.703 405.203 803.75 382.94 803.75H16.0595C-6.20317 803.75 -20.1633 779.703 -9.12424 760.37L174.316 439.105Z" fill="#ACEAAE"/>
<path fill-rule="evenodd" clip-rule="evenodd" d="M150.272 882.313C137.061 886.638 127.523 899.04 127.523 913.668C127.523 920.029 569.851 920.876 569.851 913.668H569.855C569.855 908.601 568.878 903.762 567.101 899.328C662.821 900.625 798.697 900.348 864.748 898.181C978.692 901.389 1260 900.764 1260 895.015H1260C1260 873.665 1242.65 856.355 1221.25 856.355C1218.65 856.355 1216.12 856.614 1213.66 857.099C1213.99 854.946 1214.15 852.741 1214.15 850.497C1214.15 825.913 1194.18 805.982 1169.54 805.982C1159.53 805.982 1150.3 809.267 1142.85 814.818C1142.5 793.694 1125.24 776.672 1103.98 776.672C1095.05 776.672 1086.83 779.683 1080.27 784.73C1074.92 774.143 1063.94 766.876 1051.24 766.876C1040.42 766.876 1030.84 772.157 1024.94 780.274C1017.75 772.07 1007.2 766.876 995.417 766.876C983.638 766.876 973.111 772.051 965.926 780.241C964.599 780.106 963.252 780.037 961.888 780.037C942.691 780.037 926.727 793.811 923.358 811.993C915.976 806.234 906.685 802.803 896.589 802.803C876.802 802.803 860.101 815.983 854.824 834.024C848.261 817.594 832.17 805.982 813.362 805.982C803.358 805.982 794.121 809.267 786.677 814.818C786.326 793.694 769.064 776.672 747.807 776.672C738.878 776.672 730.659 779.683 724.096 784.73C718.748 774.143 707.763 766.876 695.067 766.876C684.246 766.876 674.666 772.157 668.762 780.274C661.578 772.07 651.021 766.876 639.242 766.876C627.463 766.876 616.935 772.051 609.751 780.241C608.423 780.106 607.077 780.037 605.713 780.037C586.515 780.037 570.552 793.811 567.183 811.993C559.801 806.234 550.51 802.803 540.414 802.803C522.23 802.803 506.654 813.933 500.153 829.737C493.952 826.479 486.888 824.635 479.393 824.635C469.388 824.635 460.152 827.919 452.708 833.47C452.356 812.346 435.094 795.324 413.838 795.324C404.909 795.324 396.689 798.335 390.127 803.383C384.779 792.795 373.794 785.529 361.097 785.529C350.276 785.529 340.696 790.81 334.792 798.927C327.608 790.722 317.051 785.529 305.272 785.529C293.493 785.529 282.966 790.704 275.781 798.894C274.453 798.759 273.107 798.689 271.743 798.689C252.546 798.689 236.582 812.463 233.213 830.646C225.831 824.887 216.54 821.456 206.444 821.456C199.026 821.456 192.042 823.308 185.931 826.574C182.546 805.338 164.107 789.106 141.87 789.106C131.865 789.106 122.629 792.391 115.185 797.942C114.834 776.818 97.5717 759.796 76.3151 759.796C67.3859 759.796 59.1664 762.807 52.6039 767.854C47.256 757.266 36.271 750 23.5741 750C12.7537 750 3.17345 755.281 -2.73056 763.398C-9.91487 755.193 -20.4718 750 -32.2506 750C-44.0294 750 -54.5571 755.175 -61.7414 763.365C-63.0692 763.23 -64.4154 763.161 -65.7798 763.161C-84.977 763.161 -100.94 776.934 -104.309 795.117C-111.691 789.358 -120.983 785.927 -131.079 785.927C-155.104 785.927 -174.58 805.358 -174.58 829.329C-174.58 835.088 -173.453 840.584 -171.412 845.614C-173.208 845.311 -175.048 845.146 -176.932 845.146C-195.196 845.146 -210 859.916 -210 878.139C-210 882.75 22.3757 884.464 150.272 882.313Z" fill="#CAFFCC"/>
<path d="M49 203.821C49 194.687 41.5475 187.281 32.3556 187.281C31.2401 187.281 30.1512 187.392 29.0968 187.599C29.2351 186.678 29.3074 185.735 29.3074 184.775C29.3074 174.257 20.7267 165.73 10.1427 165.73C5.84531 165.73 1.87788 167.136 -1.31963 169.511C-1.47047 160.473 -8.88525 153.191 -18.0158 153.191C-21.8513 153.191 -25.3819 154.479 -28.2008 156.638C-30.4979 152.109 -35.2164 149 -40.6703 149C-45.3181 149 -49.4332 151.259 -51.9692 154.732C-55.0552 151.222 -59.5898 149 -64.6493 149C-69.7088 149 -74.2308 151.214 -77.3168 154.718C-77.8872 154.66 -78.4654 154.63 -79.0515 154.63C-87.2974 154.63 -94.1544 160.523 -95.6016 168.302C-98.7724 165.838 -102.763 164.37 -107.1 164.37C-117.42 164.37 -125.785 172.683 -125.785 182.939C-125.785 185.403 -125.302 187.754 -124.425 189.906C-125.196 189.776 -125.987 189.706 -126.796 189.706C-134.641 189.706 -141 196.025 -141 203.821C-141 206.542 48.9984 206.905 48.9984 203.821H49Z" fill="white"/>
<path d="M411 246.28C411 239.068 405.116 233.222 397.86 233.222C396.979 233.222 396.119 233.309 395.287 233.473C395.396 232.746 395.453 232.001 395.453 231.243C395.453 222.94 388.679 216.208 380.323 216.208C376.931 216.208 373.798 217.318 371.274 219.193C371.155 212.058 365.301 206.309 358.093 206.309C355.065 206.309 352.277 207.326 350.052 209.03C348.238 205.454 344.513 203 340.208 203C336.538 203 333.29 204.784 331.287 207.525C328.851 204.754 325.271 203 321.277 203C317.283 203 313.712 204.748 311.276 207.514C310.826 207.468 310.369 207.445 309.907 207.445C303.397 207.445 297.983 212.097 296.841 218.238C294.338 216.293 291.187 215.135 287.763 215.135C279.616 215.135 273.011 221.697 273.011 229.794C273.011 231.739 273.394 233.595 274.086 235.294C273.477 235.192 272.853 235.136 272.214 235.136C266.02 235.136 261 240.125 261 246.28C261 248.428 410.999 248.714 410.999 246.28H411Z" fill="white"/>
<path d="M192 1153C424.512 1153 613 1085.17 613 1001.5C613 917.829 424.512 850 192 850C-40.5119 850 -229 917.829 -229 1001.5C-229 1085.17 -40.5119 1153 192 1153Z" fill="#ABF9AD"/>
</g>
</g>
<defs>
<linearGradient id="paint0_linear_108_9454" x1="190.884" y1="90.2379" x2="190.884" y2="1127" gradientUnits="userSpaceOnUse">
<stop stop-color="#A2E796" stop-opacity="0"/>
<stop offset="0.686824" stop-color="#F4FCF2"/>
<stop offset="1" stop-color="#BBEBA4"/>
</linearGradient>
<clipPath id="clip0_108_9454">
<rect width="375" height="1153" fill="white"/>
</clipPath>
<clipPath id="clip1_108_9454">
<rect width="1404" height="1283" fill="white" transform="translate(-736)"/>
</clipPath>
</defs>
</svg>
