<svg width="1440" height="1046" viewBox="0 0 1440 1046" fill="none" xmlns="http://www.w3.org/2000/svg">
<circle cx="455" cy="868" r="22" fill="#F4F4F4"/>
<circle cx="719.5" cy="1001.5" r="44.5" fill="#FAFAFA"/>
<circle cx="1164.5" cy="975.5" r="34.5" fill="#FAFAFA"/>
<circle cx="613" cy="941" r="16" fill="#F4F4F4"/>
<circle cx="841" cy="825" r="16" fill="#F4F4F4"/>
<circle cx="1221" cy="746" r="11" fill="#F4F4F4"/>
<circle cx="1099" cy="892" r="17" fill="#F4F4F4"/>
<circle cx="303.5" cy="983.5" r="34.5" fill="#FAFAFA"/>
<circle cx="805.5" cy="918.5" r="22.5" fill="#F4F4F4"/>
<circle cx="306.5" cy="253.5" r="22.5" fill="#F4F4F4"/>
<circle cx="1157.5" cy="227.5" r="13.5" fill="#F4F4F4"/>
<circle cx="359" cy="796" r="10" fill="#F4F4F4"/>
<path d="M131.89 761.606C133.636 760.229 136.22 761.163 136.682 763.338L141.098 784.116C141.261 784.881 141.716 785.552 142.366 785.987L160.03 797.786C161.878 799.021 161.788 801.767 159.863 802.879L141.467 813.499C140.789 813.89 140.292 814.531 140.079 815.283L134.316 835.728C133.712 837.868 131.073 838.631 129.421 837.144L113.635 822.93C113.054 822.406 112.291 822.131 111.51 822.161L90.2843 822.998C88.0629 823.085 86.5213 820.811 87.4256 818.78L96.0659 799.374C96.384 798.66 96.4105 797.849 96.1397 797.116L88.7855 777.187C88.0158 775.102 89.7027 772.933 91.9136 773.165L113.039 775.386C113.817 775.468 114.596 775.243 115.21 774.758L131.89 761.606Z" fill="#F4F4F4"/>
<path d="M1001.39 809.434C1000.93 807.26 1002.9 805.351 1005.06 805.894L1015.77 808.591C1016.53 808.782 1017.34 808.669 1018.01 808.276L1027.57 802.729C1029.49 801.613 1031.92 802.903 1032.07 805.121L1032.82 816.146C1032.87 816.927 1033.22 817.656 1033.81 818.178L1042.04 825.553C1043.69 827.037 1043.21 829.743 1041.15 830.571L1030.9 834.688C1030.17 834.979 1029.59 835.543 1029.27 836.258L1024.8 846.363C1023.9 848.396 1021.18 848.779 1019.75 847.073L1012.67 838.592C1012.17 837.992 1011.45 837.611 1010.67 837.531L999.681 836.401C997.469 836.174 996.265 833.704 997.447 831.821L1003.32 822.463C1003.74 821.801 1003.88 821.002 1003.72 820.237L1001.39 809.434Z" fill="#F4F4F4"/>
<path d="M226.394 143.434C225.926 141.26 227.903 139.351 230.059 139.894L240.775 142.591C241.533 142.782 242.337 142.669 243.013 142.276L252.57 136.729C254.493 135.613 256.919 136.903 257.069 139.121L257.816 150.146C257.869 150.927 258.224 151.656 258.807 152.178L267.036 159.553C268.691 161.037 268.214 163.743 266.151 164.571L255.896 168.688C255.17 168.979 254.587 169.543 254.27 170.258L249.799 180.363C248.899 182.396 246.178 182.779 244.753 181.073L237.669 172.592C237.167 171.992 236.451 171.611 235.673 171.531L224.681 170.401C222.469 170.174 221.265 167.704 222.447 165.821L228.323 156.463C228.739 155.801 228.88 155.002 228.716 154.237L226.394 143.434Z" fill="#F4F4F4"/>
<path d="M1154.39 100.434C1153.93 98.2603 1155.9 96.3514 1158.06 96.894L1168.77 99.591C1169.53 99.7819 1170.34 99.669 1171.01 99.2763L1180.57 93.7293C1182.49 92.6134 1184.92 93.9033 1185.07 96.1213L1185.82 107.146C1185.87 107.927 1186.22 108.656 1186.81 109.178L1195.04 116.553C1196.69 118.037 1196.21 120.743 1194.15 121.571L1183.9 125.688C1183.17 125.979 1182.59 126.543 1182.27 127.258L1177.8 137.363C1176.9 139.396 1174.18 139.779 1172.75 138.073L1165.67 129.592C1165.17 128.992 1164.45 128.611 1163.67 128.531L1152.68 127.401C1150.47 127.174 1149.26 124.704 1150.45 122.821L1156.32 113.463C1156.74 112.801 1156.88 112.002 1156.72 111.237L1154.39 100.434Z" fill="#F4F4F4"/>
<path d="M253.997 852.859C258.403 851.472 262.658 855.375 261.656 859.884L255.75 886.47C254.749 890.979 249.242 892.713 245.838 889.591L225.766 871.183C222.362 868.061 223.614 862.425 228.019 861.038L253.997 852.859Z" fill="#F4F4F4"/>
<path d="M211.999 312.777C216.126 314.852 216.458 320.616 212.598 323.152L169.873 351.221C166.013 353.757 160.855 351.163 160.589 346.552L157.642 295.517C157.376 290.906 162.201 287.735 166.328 289.81L211.999 312.777Z" fill="#F4F4F4"/>
<path d="M1233.53 842.239C1234.2 837.668 1239.56 835.531 1243.19 838.393L1278.14 865.976C1281.77 868.838 1280.93 874.551 1276.64 876.26L1235.28 892.738C1230.99 894.448 1226.46 890.871 1227.12 886.3L1233.53 842.239Z" fill="#F4F4F4"/>
<path d="M635.898 838.548C636.441 835.125 639.125 832.441 642.548 831.898L670.16 827.525C673.583 826.983 676.966 828.707 678.539 831.795L691.231 856.703C692.804 859.791 692.211 863.541 689.76 865.992L669.992 885.76C667.541 888.211 663.791 888.804 660.703 887.231L635.795 874.539C632.707 872.966 630.983 869.583 631.525 866.16L635.898 838.548Z" fill="#F4F4F4"/>
<path d="M1297.79 218.978C1301.21 219.535 1303.88 222.232 1304.41 225.657L1308.66 253.288C1309.19 256.714 1307.45 260.089 1304.36 261.649L1279.39 274.23C1276.3 275.79 1272.55 275.179 1270.11 272.718L1250.43 252.863C1247.99 250.401 1247.41 246.649 1249 243.567L1261.8 218.715C1263.39 215.634 1266.78 213.925 1270.2 214.483L1297.79 218.978Z" fill="#F4F4F4"/>
<path d="M1257.77 612.753C1255.1 610.538 1254.17 606.858 1255.45 603.639L1271.11 564.366C1272.39 561.147 1275.6 559.12 1279.06 559.346L1321.25 562.098C1324.71 562.323 1327.62 564.75 1328.48 568.109L1338.9 609.082C1339.75 612.441 1338.35 615.968 1335.42 617.819L1299.67 640.389C1296.74 642.24 1292.95 641.992 1290.28 639.777L1257.77 612.753Z" fill="#F4F4F4"/>
<path d="M969.876 904.321C973.594 905.595 976.349 908.756 977.104 912.613L981.133 933.189C981.888 937.046 980.528 941.013 977.566 943.595L961.761 957.372C958.798 959.955 954.683 960.76 950.966 959.486L931.131 952.687C927.414 951.412 924.658 948.252 923.903 944.395L919.874 923.818C919.119 919.962 920.479 915.995 923.441 913.413L939.247 899.635C942.209 897.053 946.324 896.247 950.042 897.522L969.876 904.321Z" fill="#F4F4F4"/>
<path d="M188.343 608.174C188.768 612.081 187.077 615.918 183.906 618.239L160.186 635.608C157.015 637.93 152.847 638.383 149.25 636.798L122.349 624.94C118.753 623.355 116.275 619.972 115.85 616.065L112.669 586.838C112.243 582.931 113.935 579.094 117.105 576.773L140.826 559.404C143.997 557.082 148.165 556.629 151.761 558.214L178.663 570.072C182.259 571.657 184.736 575.04 185.162 578.947L188.343 608.174Z" fill="#F4F4F4"/>
</svg>
