<svg width="344" height="394" viewBox="0 0 344 394" fill="none" xmlns="http://www.w3.org/2000/svg">
<path d="M0.25 90C0.25 83.3726 5.62258 78 12.25 78H138.25C144.877 78 150.25 83.3726 150.25 90V132C150.25 135.314 147.564 138 144.25 138H6.25C2.93629 138 0.25 135.314 0.25 132V90Z" fill="#F57032"/>
<path d="M65.1484 114.133C64.5234 114.133 64.1484 113.75 64.1484 113.086V104.43H61.5703C61.0234 104.43 60.6484 104.102 60.6484 103.578C60.6484 103.055 61.0156 102.727 61.5703 102.727H68.7344C69.2891 102.727 69.6562 103.055 69.6562 103.578C69.6562 104.102 69.2812 104.43 68.7344 104.43H66.1562V113.086C66.1562 113.75 65.7812 114.133 65.1484 114.133ZM72.3125 114.148C70.5156 114.148 69.375 112.984 69.375 111.07V106.578C69.375 105.93 69.7734 105.555 70.3438 105.555C70.9141 105.555 71.3203 105.93 71.3203 106.586V110.68C71.3203 111.867 71.8984 112.508 72.9922 112.508C74.1172 112.508 74.8125 111.711 74.8125 110.508V106.578C74.8125 105.93 75.2188 105.555 75.7891 105.555C76.3516 105.555 76.7578 105.93 76.7578 106.586V113.172C76.7578 113.797 76.3828 114.156 75.8281 114.156C75.2656 114.156 74.8828 113.797 74.8828 113.172V112.562H74.8438C74.4062 113.57 73.5703 114.148 72.3125 114.148ZM84.2422 102.578C83.9609 102.578 83.7734 102.406 83.7734 102.172C83.7734 102.008 83.8516 101.898 84.0234 101.75C84.2109 101.57 84.2969 101.391 84.2969 101.172C84.2969 100.867 84.0234 100.625 83.6172 100.625C83.5 100.625 83.4297 100.633 83.3438 100.648C83.25 100.664 83.1875 100.68 83.0938 100.68C82.8203 100.68 82.6562 100.539 82.6562 100.289C82.6562 100.125 82.7422 99.9844 82.8906 99.8828C83.0859 99.7422 83.3984 99.6562 83.7812 99.6562C84.8281 99.6562 85.4531 100.203 85.4531 101.109C85.4531 101.648 85.2266 102.102 84.8125 102.375C84.625 102.508 84.4531 102.578 84.2422 102.578ZM80.3516 104.68C80.0156 104.68 79.7734 104.445 79.7734 104.117C79.7734 103.961 79.8281 103.828 79.9766 103.664L81.0859 102.477C81.3281 102.188 81.6016 102.078 82.0156 102.078C82.4297 102.078 82.7031 102.188 82.9453 102.477L84.0547 103.664C84.2031 103.828 84.2578 103.961 84.2578 104.117C84.2578 104.445 84.0156 104.68 83.6797 104.68C83.4609 104.68 83.3203 104.602 83.0938 104.344L82.0391 103.195H81.9922L80.9375 104.344C80.7109 104.602 80.5703 104.68 80.3516 104.68ZM82.0156 114.164C79.5859 114.164 78.0078 112.547 78.0078 109.859C78.0078 107.188 79.6016 105.547 82.0156 105.547C84.4297 105.547 86.0234 107.18 86.0234 109.859C86.0234 112.547 84.4453 114.164 82.0156 114.164ZM82.0156 112.625C83.25 112.625 84.0469 111.625 84.0469 109.859C84.0469 108.102 83.25 107.094 82.0156 107.094C80.7891 107.094 79.9844 108.102 79.9844 109.859C79.9844 111.625 80.7812 112.625 82.0156 112.625ZM88.2891 104.555C87.6875 104.555 87.2109 104.086 87.2109 103.5C87.2109 102.906 87.6875 102.445 88.2891 102.445C88.8984 102.445 89.375 102.906 89.375 103.5C89.375 104.086 88.8984 104.555 88.2891 104.555ZM88.2891 114.156C87.6953 114.156 87.3203 113.766 87.3203 113.133V106.578C87.3203 105.953 87.6953 105.555 88.2891 105.555C88.8828 105.555 89.2656 105.953 89.2656 106.586V113.133C89.2656 113.766 88.8828 114.156 88.2891 114.156Z" fill="white"/>
<rect x="0.25" y="142" width="150" height="60" rx="6" fill="#F57032"/>
<path d="M41.7344 178.188C38.4766 178.188 36.4688 175.977 36.4688 172.359C36.4688 168.766 38.5078 166.539 41.6953 166.539C43.7812 166.539 45.4297 167.516 46.1719 169.164C46.2969 169.422 46.3594 169.688 46.3594 169.922C46.3594 170.461 46.0078 170.805 45.4688 170.805C45.0078 170.805 44.7031 170.586 44.4844 170.094C43.9609 168.883 42.9375 168.25 41.7109 168.25C39.7734 168.25 38.5312 169.844 38.5312 172.359C38.5312 174.891 39.7656 176.477 41.7188 176.477C43.0078 176.477 44 175.914 44.5156 174.727C44.7188 174.266 44.9766 174.078 45.4141 174.078C45.9688 174.078 46.3516 174.445 46.3516 174.977C46.3516 175.234 46.2891 175.469 46.1641 175.734C45.4453 177.266 43.8438 178.188 41.7344 178.188ZM50.3047 178.133C48.7031 178.133 47.5391 177.125 47.5391 175.633C47.5391 174.164 48.6719 173.281 50.6875 173.156L52.8828 173.031V172.438C52.8828 171.57 52.2969 171.07 51.3359 171.07C50.5781 171.07 50.0859 171.328 49.6016 172.039C49.3984 172.305 49.1406 172.43 48.8125 172.43C48.3359 172.43 47.9922 172.117 47.9922 171.648C47.9922 171.469 48.0391 171.297 48.125 171.117C48.5469 170.156 49.8281 169.547 51.4141 169.547C53.4688 169.547 54.8047 170.633 54.8047 172.297V177.18C54.8047 177.805 54.4062 178.156 53.8594 178.156C53.3281 178.156 52.9609 177.836 52.9297 177.258V176.68H52.8906C52.4141 177.578 51.375 178.133 50.3047 178.133ZM50.8984 176.664C51.9922 176.664 52.8828 175.93 52.8828 174.93V174.297L50.9609 174.414C50.0234 174.477 49.4844 174.898 49.4844 175.555C49.4844 176.234 50.0547 176.664 50.8984 176.664ZM57.3438 178.156C56.7578 178.156 56.375 177.781 56.375 177.133V170.547C56.375 169.914 56.7578 169.555 57.3047 169.555C57.8516 169.555 58.2422 169.914 58.2422 170.547V171.156H58.2812C58.6406 170.195 59.5156 169.562 60.6406 169.562C61.8125 169.562 62.6484 170.164 62.9531 171.227H63C63.3984 170.203 64.3828 169.562 65.5781 169.562C67.2109 169.562 68.2812 170.664 68.2812 172.32V177.133C68.2812 177.781 67.8906 178.156 67.3125 178.156C66.7266 178.156 66.3359 177.781 66.3359 177.133V172.797C66.3359 171.781 65.8047 171.203 64.8516 171.203C63.9141 171.203 63.2734 171.891 63.2734 172.883V177.133C63.2734 177.781 62.9062 178.156 62.3281 178.156C61.7422 178.156 61.3828 177.781 61.3828 177.133V172.695C61.3828 171.773 60.8203 171.203 59.9141 171.203C58.9766 171.203 58.3203 171.93 58.3203 172.93V177.133C58.3203 177.781 57.9219 178.156 57.3438 178.156ZM70.8438 178.156C70.2812 178.156 69.8984 177.812 69.8984 177.18V167.594C69.8984 166.938 70.3047 166.57 70.875 166.57C71.4453 166.57 71.8438 166.938 71.8438 167.594V171.141H71.8906C72.3672 170.172 73.3047 169.578 74.4844 169.578C76.5703 169.578 77.8984 171.211 77.8984 173.859C77.8984 176.508 76.5781 178.133 74.4766 178.133C73.2656 178.133 72.3359 177.547 71.8438 176.586H71.8047V177.18C71.8047 177.805 71.4062 178.156 70.8438 178.156ZM73.8828 176.539C75.125 176.539 75.9062 175.508 75.9062 173.859C75.9062 172.219 75.125 171.18 73.8828 171.18C72.6797 171.18 71.8359 172.25 71.8359 173.859C71.8359 175.484 72.6797 176.539 73.8828 176.539ZM80.125 178.156C79.5391 178.156 79.1562 177.773 79.1562 177.133V170.539C79.1562 169.93 79.5312 169.555 80.0859 169.555C80.625 169.555 81.0078 169.93 81.0078 170.539V171.172H81.0469C81.2734 170.203 81.9922 169.578 82.8203 169.578C83.125 169.578 83.3594 169.656 83.5078 169.789C83.6875 169.938 83.7812 170.172 83.7812 170.492C83.7812 170.797 83.6875 171.023 83.4922 171.18C83.3047 171.344 83.0156 171.43 82.6328 171.438C81.5234 171.445 81.1016 172.141 81.1016 173.148V177.133C81.1016 177.773 80.7109 178.156 80.125 178.156ZM85.6719 168.555C85.0703 168.555 84.5938 168.086 84.5938 167.5C84.5938 166.906 85.0703 166.445 85.6719 166.445C86.2812 166.445 86.7578 166.906 86.7578 167.5C86.7578 168.086 86.2812 168.555 85.6719 168.555ZM85.6719 178.156C85.0781 178.156 84.7031 177.766 84.7031 177.133V170.578C84.7031 169.953 85.0781 169.555 85.6719 169.555C86.2656 169.555 86.6484 169.953 86.6484 170.586V177.133C86.6484 177.766 86.2656 178.156 85.6719 178.156ZM91.375 178.133C89.2891 178.133 87.9375 176.484 87.9375 173.852C87.9375 171.234 89.2891 169.578 91.375 169.578C92.5625 169.578 93.5 170.195 93.9375 171.109H93.9844V167.594C93.9844 166.938 94.3828 166.57 94.9531 166.57C95.5234 166.57 95.9297 166.938 95.9297 167.594V177.18C95.9297 177.805 95.5312 178.156 94.9688 178.156C94.4062 178.156 93.9844 177.812 93.9844 177.18V176.531H93.9453C93.5469 177.484 92.6562 178.133 91.375 178.133ZM91.9609 176.539C93.1875 176.539 93.9922 175.5 93.9922 173.859C93.9922 172.234 93.1875 171.18 91.9609 171.18C90.7109 171.18 89.9297 172.219 89.9297 173.859C89.9297 175.508 90.7031 176.539 91.9609 176.539ZM101.133 181.117C99.5469 181.109 98.3281 180.5 97.7734 179.609C97.6562 179.414 97.6094 179.227 97.6094 179.023C97.6094 178.594 97.9297 178.273 98.4219 178.273C98.6953 178.273 98.8906 178.367 99.1328 178.602C99.7812 179.25 100.359 179.562 101.148 179.57C102.469 179.586 103.258 178.844 103.258 177.742V176.422H103.219C102.789 177.312 101.812 177.914 100.625 177.914C98.5469 177.914 97.2188 176.305 97.2188 173.758C97.2188 171.164 98.5312 169.578 100.664 169.578C101.844 169.578 102.758 170.188 103.234 171.125H103.266V170.547C103.266 169.906 103.688 169.555 104.242 169.555C104.805 169.555 105.211 169.906 105.211 170.547V177.734C105.211 179.82 103.688 181.133 101.133 181.117ZM101.219 176.398C102.461 176.398 103.273 175.391 103.273 173.773C103.273 172.164 102.461 171.117 101.219 171.117C99.9922 171.117 99.2109 172.148 99.2109 173.773C99.2109 175.414 99.9922 176.398 101.219 176.398ZM110.477 178.164C107.945 178.164 106.453 176.578 106.453 173.891C106.453 171.25 107.977 169.547 110.367 169.547C112.633 169.547 114.18 171.156 114.18 173.406C114.18 173.984 113.852 174.328 113.273 174.328H108.391V174.391C108.391 175.773 109.195 176.664 110.461 176.664C111.336 176.664 111.906 176.359 112.531 175.562C112.734 175.336 112.914 175.25 113.188 175.25C113.625 175.25 113.969 175.531 113.969 176C113.969 176.148 113.922 176.32 113.836 176.492C113.289 177.547 112.055 178.164 110.477 178.164ZM108.406 173.047H112.273C112.234 171.844 111.469 171.055 110.375 171.055C109.281 171.055 108.484 171.859 108.406 173.047Z" fill="white"/>
<rect x="0.25" y="206" width="150" height="60" rx="6" fill="#F57032"/>
<path d="M61.6484 242.188C58.3906 242.188 56.3828 239.977 56.3828 236.359C56.3828 232.766 58.4219 230.539 61.6094 230.539C63.6953 230.539 65.3438 231.516 66.0859 233.164C66.2109 233.422 66.2734 233.688 66.2734 233.922C66.2734 234.461 65.9219 234.805 65.3828 234.805C64.9219 234.805 64.6172 234.586 64.3984 234.094C63.875 232.883 62.8516 232.25 61.625 232.25C59.6875 232.25 58.4453 233.844 58.4453 236.359C58.4453 238.891 59.6797 240.477 61.6328 240.477C62.9219 240.477 63.9141 239.914 64.4297 238.727C64.6328 238.266 64.8906 238.078 65.3281 238.078C65.8828 238.078 66.2656 238.445 66.2656 238.977C66.2656 239.234 66.2031 239.469 66.0781 239.734C65.3594 241.266 63.7578 242.188 61.6484 242.188ZM69.0234 242C68.3984 242 68.0156 241.609 68.0156 240.953V231.773C68.0156 231.117 68.3984 230.727 69.0234 230.727H74.5156C75.0703 230.727 75.4375 231.055 75.4375 231.578C75.4375 232.102 75.0703 232.43 74.5156 232.43H70.0312V235.477H74.2812C74.7969 235.477 75.1484 235.781 75.1484 236.273C75.1484 236.766 74.8047 237.078 74.2812 237.078H70.0312V240.297H74.5156C75.0703 240.297 75.4375 240.625 75.4375 241.148C75.4375 241.672 75.0703 242 74.5156 242H69.0234ZM78.0703 242.133C77.4453 242.133 77.0625 241.75 77.0625 241.086V231.773C77.0625 231.117 77.4453 230.727 78.0703 230.727H83.4609C84.0156 230.727 84.3828 231.055 84.3828 231.578C84.3828 232.102 84.0078 232.43 83.4609 232.43H79.0781V235.758H83.0547C83.5859 235.758 83.9375 236.07 83.9375 236.578C83.9375 237.086 83.5859 237.398 83.0547 237.398H79.0781V241.086C79.0781 241.75 78.7031 242.133 78.0703 242.133ZM86.7266 242.156C86.1016 242.156 85.7188 241.766 85.7188 241.109V231.773C85.7188 231.117 86.1016 230.727 86.7266 230.727H90.1953C92.6328 230.727 94.0938 232.078 94.0938 234.234C94.0938 235.703 93.3438 236.906 92.0391 237.414L93.8203 240.539C93.9922 240.828 94.0391 241 94.0391 241.234C94.0391 241.766 93.6016 242.156 93.0234 242.156C92.5469 242.156 92.3125 241.984 92 241.43L89.9922 237.758H87.7344V241.109C87.7344 241.766 87.3516 242.156 86.7266 242.156ZM87.7344 236.211H90.0078C91.2891 236.211 92.0312 235.5 92.0312 234.281C92.0312 233.094 91.2422 232.359 89.9688 232.359H87.7344V236.211Z" fill="white"/>
<rect x="0.25" y="270" width="150" height="60" rx="6" fill="#F57032"/>
<path d="M38.9609 306.188C36.7109 306.188 35.2109 305.25 34.7734 303.969C34.7031 303.781 34.6641 303.578 34.6641 303.391C34.6641 302.828 35.0234 302.469 35.5547 302.469C36 302.469 36.2812 302.648 36.5 303.102C36.8516 304.078 37.8203 304.516 39.0234 304.516C40.3828 304.516 41.3359 303.844 41.3359 302.906C41.3359 302.094 40.7734 301.594 39.3047 301.289L38.0938 301.039C35.8359 300.578 34.7812 299.516 34.7812 297.867C34.7812 295.883 36.5234 294.539 38.9688 294.539C40.9609 294.539 42.5078 295.43 42.9688 296.922C43.0156 297.047 43.0391 297.195 43.0391 297.383C43.0391 297.875 42.6875 298.211 42.1641 298.211C41.6953 298.211 41.4062 298.008 41.1953 297.57C40.8125 296.617 40.0078 296.211 38.9531 296.211C37.7031 296.211 36.8125 296.805 36.8125 297.75C36.8125 298.516 37.375 299.008 38.7812 299.305L39.9922 299.555C42.3672 300.047 43.3672 301 43.3672 302.672C43.3672 304.828 41.6719 306.188 38.9609 306.188ZM50.6172 294.164C50.2891 294.164 50 293.922 50 293.633C50 293.484 50.0469 293.375 50.1328 293.25L51.0625 291.945C51.2969 291.617 51.4531 291.516 51.7422 291.516C52.125 291.516 52.3906 291.758 52.3906 292.117C52.3906 292.273 52.3359 292.422 52.2031 292.578L51.2188 293.812C50.9922 294.086 50.875 294.164 50.6172 294.164ZM46.6875 296.68C46.3516 296.68 46.1094 296.445 46.1094 296.117C46.1094 295.961 46.1641 295.828 46.3125 295.664L47.4219 294.477C47.6641 294.188 47.9375 294.078 48.3516 294.078C48.7656 294.078 49.0391 294.188 49.2812 294.477L50.3906 295.664C50.5391 295.828 50.5938 295.961 50.5938 296.117C50.5938 296.445 50.3516 296.68 50.0156 296.68C49.7969 296.68 49.6562 296.602 49.4297 296.344L48.375 295.195H48.3281L47.2734 296.344C47.0469 296.602 46.9062 296.68 46.6875 296.68ZM48.3516 306.164C45.9219 306.164 44.3438 304.547 44.3438 301.859C44.3438 299.188 45.9375 297.547 48.3516 297.547C50.7656 297.547 52.3594 299.18 52.3594 301.859C52.3594 304.547 50.7812 306.164 48.3516 306.164ZM48.3516 304.625C49.5859 304.625 50.3828 303.625 50.3828 301.859C50.3828 300.102 49.5859 299.094 48.3516 299.094C47.125 299.094 46.3203 300.102 46.3203 301.859C46.3203 303.625 47.1172 304.625 48.3516 304.625ZM57.8125 306.156C57.25 306.156 56.8672 305.812 56.8672 305.18V295.594C56.8672 294.938 57.2734 294.57 57.8438 294.57C58.4141 294.57 58.8125 294.938 58.8125 295.594V299.141H58.8594C59.3359 298.172 60.2734 297.578 61.4531 297.578C63.5391 297.578 64.8672 299.211 64.8672 301.859C64.8672 304.508 63.5469 306.133 61.4453 306.133C60.2344 306.133 59.3047 305.547 58.8125 304.586H58.7734V305.18C58.7734 305.805 58.375 306.156 57.8125 306.156ZM60.8516 304.539C62.0938 304.539 62.875 303.508 62.875 301.859C62.875 300.219 62.0938 299.18 60.8516 299.18C59.6484 299.18 58.8047 300.25 58.8047 301.859C58.8047 303.484 59.6484 304.539 60.8516 304.539ZM69.0234 306.148C67.2266 306.148 66.0859 304.984 66.0859 303.07V298.578C66.0859 297.93 66.4844 297.555 67.0547 297.555C67.625 297.555 68.0312 297.93 68.0312 298.586V302.68C68.0312 303.867 68.6094 304.508 69.7031 304.508C70.8281 304.508 71.5234 303.711 71.5234 302.508V298.578C71.5234 297.93 71.9297 297.555 72.5 297.555C73.0625 297.555 73.4688 297.93 73.4688 298.586V305.172C73.4688 305.797 73.0938 306.156 72.5391 306.156C71.9766 306.156 71.5938 305.797 71.5938 305.172V304.562H71.5547C71.1172 305.57 70.2812 306.148 69.0234 306.148ZM80.9531 294.578C80.6719 294.578 80.4844 294.406 80.4844 294.172C80.4844 294.008 80.5625 293.898 80.7344 293.75C80.9219 293.57 81.0078 293.391 81.0078 293.172C81.0078 292.867 80.7344 292.625 80.3281 292.625C80.2109 292.625 80.1406 292.633 80.0547 292.648C79.9609 292.664 79.8984 292.68 79.8047 292.68C79.5312 292.68 79.3672 292.539 79.3672 292.289C79.3672 292.125 79.4531 291.984 79.6016 291.883C79.7969 291.742 80.1094 291.656 80.4922 291.656C81.5391 291.656 82.1641 292.203 82.1641 293.109C82.1641 293.648 81.9375 294.102 81.5234 294.375C81.3359 294.508 81.1641 294.578 80.9531 294.578ZM77.0625 296.68C76.7266 296.68 76.4844 296.445 76.4844 296.117C76.4844 295.961 76.5391 295.828 76.6875 295.664L77.7969 294.477C78.0391 294.188 78.3125 294.078 78.7266 294.078C79.1406 294.078 79.4141 294.188 79.6562 294.477L80.7656 295.664C80.9141 295.828 80.9688 295.961 80.9688 296.117C80.9688 296.445 80.7266 296.68 80.3906 296.68C80.1719 296.68 80.0312 296.602 79.8047 296.344L78.75 295.195H78.7031L77.6484 296.344C77.4219 296.602 77.2812 296.68 77.0625 296.68ZM78.7266 306.164C76.2969 306.164 74.7188 304.547 74.7188 301.859C74.7188 299.188 76.3125 297.547 78.7266 297.547C81.1406 297.547 82.7344 299.18 82.7344 301.859C82.7344 304.547 81.1562 306.164 78.7266 306.164ZM78.7266 304.625C79.9609 304.625 80.7578 303.625 80.7578 301.859C80.7578 300.102 79.9609 299.094 78.7266 299.094C77.5 299.094 76.6953 300.102 76.6953 301.859C76.6953 303.625 77.4922 304.625 78.7266 304.625ZM85 296.555C84.3984 296.555 83.9219 296.086 83.9219 295.5C83.9219 294.906 84.3984 294.445 85 294.445C85.6094 294.445 86.0859 294.906 86.0859 295.5C86.0859 296.086 85.6094 296.555 85 296.555ZM85 306.156C84.4062 306.156 84.0312 305.766 84.0312 305.133V298.578C84.0312 297.953 84.4062 297.555 85 297.555C85.5938 297.555 85.9766 297.953 85.9766 298.586V305.133C85.9766 305.766 85.5938 306.156 85 306.156ZM91.8438 306.156C91.2734 306.156 90.8672 305.789 90.8672 305.133V295.57C90.8672 294.953 91.2344 294.57 91.8281 294.57C92.4297 294.57 92.7891 294.953 92.7891 295.57V299.141H92.8281C93.2734 298.133 94.1875 297.562 95.4453 297.562C97.2734 297.562 98.3438 298.766 98.3438 300.664V305.133C98.3438 305.789 97.9375 306.156 97.3672 306.156C96.7969 306.156 96.3984 305.789 96.3984 305.133V301.062C96.3984 299.906 95.8203 299.211 94.6953 299.211C93.5234 299.211 92.8125 300.023 92.8125 301.242V305.133C92.8125 305.789 92.4141 306.156 91.8438 306.156ZM103.57 306.164C101.141 306.164 99.5625 304.547 99.5625 301.859C99.5625 299.188 101.156 297.547 103.57 297.547C105.984 297.547 107.578 299.18 107.578 301.859C107.578 304.547 106 306.164 103.57 306.164ZM103.57 304.625C104.805 304.625 105.602 303.625 105.602 301.859C105.602 300.102 104.805 299.094 103.57 299.094C102.344 299.094 101.539 300.102 101.539 301.859C101.539 303.625 102.336 304.625 103.57 304.625ZM103.57 309.375C102.969 309.375 102.484 308.891 102.484 308.289C102.484 307.695 102.969 307.203 103.57 307.203C104.18 307.203 104.656 307.695 104.656 308.289C104.656 308.891 104.18 309.375 103.57 309.375ZM112.469 306.164C110.047 306.164 108.484 304.523 108.484 301.867C108.484 299.227 110.039 297.547 112.453 297.547C114.078 297.547 115.461 298.383 115.859 299.547C115.922 299.711 115.961 299.875 115.961 300.016C115.961 300.5 115.594 300.797 115.125 300.797C114.734 300.797 114.5 300.633 114.273 300.242C113.859 299.484 113.312 299.125 112.508 299.125C111.258 299.125 110.461 300.164 110.461 301.859C110.461 303.578 111.266 304.594 112.5 304.594C113.359 304.594 113.891 304.195 114.266 303.531C114.531 303.094 114.742 302.93 115.164 302.93C115.625 302.93 115.984 303.242 115.984 303.727C115.984 303.875 115.945 304.039 115.867 304.227C115.406 305.359 114.031 306.164 112.469 306.164Z" fill="white"/>
<path d="M0.25 340C0.25 336.686 2.93629 334 6.25 334H144.25C147.564 334 150.25 336.686 150.25 340V382C150.25 388.627 144.877 394 138.25 394H12.25C5.62258 394 0.25 388.627 0.25 382V340Z" fill="#F57032"/>
<path d="M27.0156 358C26.3906 358 26.0078 357.609 26.0078 356.953V347.773C26.0078 347.117 26.3906 346.727 27.0156 346.727H30.125C33.4922 346.727 35.4844 348.766 35.4844 352.336C35.4844 355.906 33.5 358 30.125 358H27.0156ZM28.0234 356.297H29.9141C32.1797 356.297 33.4297 354.914 33.4297 352.344C33.4297 349.82 32.1641 348.43 29.9141 348.43H28.0234V356.297ZM39.7891 358.148C37.9922 358.148 36.8516 356.984 36.8516 355.07V350.578C36.8516 349.93 37.25 349.555 37.8203 349.555C38.3906 349.555 38.7969 349.93 38.7969 350.586V354.68C38.7969 355.867 39.375 356.508 40.4688 356.508C41.5938 356.508 42.2891 355.711 42.2891 354.508V350.734C42.2891 350.086 42.6953 349.719 43.2656 349.719H44.1641C44.5859 349.719 44.7969 349.516 44.7969 349.109V348.586C44.7969 348.078 45.1016 347.758 45.5859 347.758C46.0625 347.758 46.375 348.078 46.375 348.594V349.477C46.375 350.453 45.7578 351.031 44.7109 351.031H44.2344V357.172C44.2344 357.797 43.8594 358.156 43.3047 358.156C42.7422 358.156 42.3594 357.797 42.3594 357.172V356.562H42.3203C41.8828 357.57 41.0469 358.148 39.7891 358.148ZM40.5469 361.375C39.9453 361.375 39.4609 360.891 39.4609 360.289C39.4609 359.695 39.9453 359.203 40.5469 359.203C41.1562 359.203 41.6328 359.695 41.6328 360.289C41.6328 360.891 41.1562 361.375 40.5469 361.375ZM53.7109 348.781C53.3359 348.781 53.0625 348.547 53.0625 348.219C53.0625 348.047 53.1016 347.93 53.2109 347.781L54.2188 346.344C54.4844 345.961 54.6562 345.852 54.9688 345.852C55.3984 345.852 55.6953 346.125 55.6953 346.516C55.6953 346.703 55.625 346.867 55.4844 347.047L54.3359 348.445C54.1172 348.711 53.9844 348.781 53.7109 348.781ZM52.4297 358.133C50.8281 358.133 49.6641 357.125 49.6641 355.633C49.6641 354.164 50.7969 353.281 52.8125 353.156L55.0078 353.031V352.438C55.0078 351.57 54.4219 351.07 53.4609 351.07C52.7031 351.07 52.2109 351.328 51.7266 352.039C51.5234 352.305 51.2656 352.43 50.9375 352.43C50.4609 352.43 50.1172 352.117 50.1172 351.648C50.1172 351.469 50.1641 351.297 50.25 351.117C50.6719 350.156 51.9531 349.547 53.5391 349.547C55.5938 349.547 56.9297 350.633 56.9297 352.297V357.18C56.9297 357.805 56.5312 358.156 55.9844 358.156C55.4531 358.156 55.0859 357.836 55.0547 357.258V356.68H55.0156C54.5391 357.578 53.5 358.133 52.4297 358.133ZM53.0234 356.664C54.1172 356.664 55.0078 355.93 55.0078 354.93V354.297L53.0859 354.414C52.1484 354.477 51.6094 354.898 51.6094 355.555C51.6094 356.234 52.1797 356.664 53.0234 356.664ZM59.4688 358.156C58.8984 358.156 58.5 357.789 58.5 357.133V350.539C58.5 349.938 58.8516 349.555 59.4297 349.555C60 349.555 60.3906 349.938 60.3906 350.539V351.117H60.4297C60.875 350.133 61.7344 349.562 63.0078 349.562C64.8359 349.562 65.875 350.734 65.875 352.648V357.133C65.875 357.789 65.4766 358.156 64.9062 358.156C64.3359 358.156 63.9297 357.789 63.9297 357.133V353.039C63.9297 351.867 63.3828 351.211 62.2734 351.211C61.1562 351.211 60.4453 352.016 60.4453 353.203V357.133C60.4453 357.789 60.0391 358.156 59.4688 358.156ZM74.2812 358.164C71.8594 358.164 70.2969 356.523 70.2969 353.867C70.2969 351.227 71.8516 349.547 74.2656 349.547C75.8906 349.547 77.2734 350.383 77.6719 351.547C77.7344 351.711 77.7734 351.875 77.7734 352.016C77.7734 352.5 77.4062 352.797 76.9375 352.797C76.5469 352.797 76.3125 352.633 76.0859 352.242C75.6719 351.484 75.125 351.125 74.3203 351.125C73.0703 351.125 72.2734 352.164 72.2734 353.859C72.2734 355.578 73.0781 356.594 74.3125 356.594C75.1719 356.594 75.7031 356.195 76.0781 355.531C76.3438 355.094 76.5547 354.93 76.9766 354.93C77.4375 354.93 77.7969 355.242 77.7969 355.727C77.7969 355.875 77.7578 356.039 77.6797 356.227C77.2188 357.359 75.8438 358.164 74.2812 358.164ZM82.8203 348.781C82.4453 348.781 82.1719 348.547 82.1719 348.219C82.1719 348.047 82.2109 347.93 82.3203 347.781L83.3281 346.344C83.5938 345.961 83.7656 345.852 84.0781 345.852C84.5078 345.852 84.8047 346.125 84.8047 346.516C84.8047 346.703 84.7344 346.867 84.5938 347.047L83.4453 348.445C83.2266 348.711 83.0938 348.781 82.8203 348.781ZM81.5391 358.133C79.9375 358.133 78.7734 357.125 78.7734 355.633C78.7734 354.164 79.9062 353.281 81.9219 353.156L84.1172 353.031V352.438C84.1172 351.57 83.5312 351.07 82.5703 351.07C81.8125 351.07 81.3203 351.328 80.8359 352.039C80.6328 352.305 80.375 352.43 80.0469 352.43C79.5703 352.43 79.2266 352.117 79.2266 351.648C79.2266 351.469 79.2734 351.297 79.3594 351.117C79.7812 350.156 81.0625 349.547 82.6484 349.547C84.7031 349.547 86.0391 350.633 86.0391 352.297V357.18C86.0391 357.805 85.6406 358.156 85.0938 358.156C84.5625 358.156 84.1953 357.836 84.1641 357.258V356.68H84.125C83.6484 357.578 82.6094 358.133 81.5391 358.133ZM82.1328 356.664C83.2266 356.664 84.1172 355.93 84.1172 354.93V354.297L82.1953 354.414C81.2578 354.477 80.7188 354.898 80.7188 355.555C80.7188 356.234 81.2891 356.664 82.1328 356.664ZM91.7812 358.156C91.2109 358.156 90.8125 357.789 90.8125 357.133V350.539C90.8125 349.938 91.1641 349.555 91.7422 349.555C92.3125 349.555 92.7031 349.938 92.7031 350.539V351.117H92.7422C93.1875 350.133 94.0469 349.562 95.3203 349.562C97.1484 349.562 98.1875 350.734 98.1875 352.648V357.133C98.1875 357.789 97.7891 358.156 97.2188 358.156C96.6484 358.156 96.2422 357.789 96.2422 357.133V353.039C96.2422 351.867 95.6953 351.211 94.5859 351.211C93.4688 351.211 92.7578 352.016 92.7578 353.203V357.133C92.7578 357.789 92.3516 358.156 91.7812 358.156ZM100.781 358.156C100.211 358.156 99.8047 357.789 99.8047 357.133V347.57C99.8047 346.953 100.172 346.57 100.766 346.57C101.367 346.57 101.727 346.953 101.727 347.57V351.141H101.766C102.211 350.133 103.125 349.562 104.383 349.562C106.211 349.562 107.281 350.766 107.281 352.664V357.133C107.281 357.789 106.875 358.156 106.305 358.156C105.734 358.156 105.336 357.789 105.336 357.133V353.062C105.336 351.906 104.758 351.211 103.633 351.211C102.461 351.211 101.75 352.023 101.75 353.242V357.133C101.75 357.789 101.352 358.156 100.781 358.156ZM110.57 348.781C110.227 348.781 109.969 348.531 109.969 348.219C109.969 348.047 110.031 347.93 110.156 347.773L111.352 346.414C111.625 346.086 111.891 345.961 112.32 345.961C112.719 345.961 112.992 346.086 113.266 346.406L114.453 347.773C114.578 347.93 114.648 348.047 114.648 348.219C114.648 348.531 114.391 348.781 114.039 348.781C113.797 348.781 113.648 348.695 113.445 348.453L112.336 347.117H112.281L111.164 348.453C110.969 348.695 110.82 348.781 110.57 348.781ZM111.273 358.133C109.672 358.133 108.508 357.125 108.508 355.633C108.508 354.164 109.641 353.281 111.656 353.156L113.852 353.031V352.438C113.852 351.57 113.266 351.07 112.305 351.07C111.547 351.07 111.055 351.328 110.57 352.039C110.367 352.305 110.109 352.43 109.781 352.43C109.305 352.43 108.961 352.117 108.961 351.648C108.961 351.469 109.008 351.297 109.094 351.117C109.516 350.156 110.797 349.547 112.383 349.547C114.438 349.547 115.773 350.633 115.773 352.297V357.18C115.773 357.805 115.375 358.156 114.828 358.156C114.297 358.156 113.93 357.836 113.898 357.258V356.68H113.859C113.383 357.578 112.344 358.133 111.273 358.133ZM111.867 356.664C112.961 356.664 113.852 355.93 113.852 354.93V354.297L111.93 354.414C110.992 354.477 110.453 354.898 110.453 355.555C110.453 356.234 111.023 356.664 111.867 356.664ZM118.312 358.156C117.742 358.156 117.344 357.789 117.344 357.133V350.539C117.344 349.938 117.695 349.555 118.273 349.555C118.844 349.555 119.234 349.938 119.234 350.539V351.117H119.273C119.719 350.133 120.578 349.562 121.852 349.562C123.68 349.562 124.719 350.734 124.719 352.648V357.133C124.719 357.789 124.32 358.156 123.75 358.156C123.18 358.156 122.773 357.789 122.773 357.133V353.039C122.773 351.867 122.227 351.211 121.117 351.211C120 351.211 119.289 352.016 119.289 353.203V357.133C119.289 357.789 118.883 358.156 118.312 358.156ZM66.8984 382.156C66.5781 382.156 66.3906 382.07 66.125 381.789L65.3828 380.992C64.5 381.758 63.2109 382.195 61.8516 382.195C59.5234 382.195 57.9766 380.93 57.9766 379.031C57.9766 377.734 58.6484 376.773 60.1094 375.984C60.2656 375.906 60.5469 375.75 60.5859 375.734C59.5703 374.672 59.1875 373.961 59.1875 373.141C59.1875 371.664 60.4922 370.562 62.2578 370.562C64.0312 370.562 65.2891 371.625 65.2891 373.117C65.2891 374.273 64.5781 375.164 62.9609 376.031L65.3359 378.602C65.625 378.094 65.8203 377.422 65.8281 376.352C65.8359 375.797 66.1172 375.453 66.6484 375.453C67.1797 375.453 67.4766 375.82 67.4766 376.359C67.4766 377.773 67.1562 378.961 66.5312 379.836L67.3672 380.711C67.6172 380.984 67.6875 381.141 67.6875 381.398C67.6875 381.82 67.3594 382.156 66.8984 382.156ZM62.0156 375.07C63.1562 374.484 63.6094 373.961 63.6094 373.234C63.6094 372.469 63.0625 371.93 62.2656 371.93C61.4766 371.93 60.9141 372.484 60.9141 373.242C60.9141 373.797 61.2109 374.281 62.0156 375.07ZM62.0469 380.719C62.9297 380.719 63.8281 380.375 64.3203 379.836L61.5234 376.797C61.4297 376.836 61.2578 376.93 61.1953 376.977C60.2266 377.578 59.8359 378.125 59.8359 378.883C59.8359 379.977 60.7266 380.719 62.0469 380.719ZM73.4531 382.156C72.8906 382.156 72.5078 381.812 72.5078 381.18V371.594C72.5078 370.938 72.9141 370.57 73.4844 370.57C74.0547 370.57 74.4531 370.938 74.4531 371.594V375.141H74.5C74.9766 374.172 75.9141 373.578 77.0938 373.578C79.1797 373.578 80.5078 375.211 80.5078 377.859C80.5078 380.508 79.1875 382.133 77.0859 382.133C75.875 382.133 74.9453 381.547 74.4531 380.586H74.4141V381.18C74.4141 381.805 74.0156 382.156 73.4531 382.156ZM76.4922 380.539C77.7344 380.539 78.5156 379.508 78.5156 377.859C78.5156 376.219 77.7344 375.18 76.4922 375.18C75.2891 375.18 74.4453 376.25 74.4453 377.859C74.4453 379.484 75.2891 380.539 76.4922 380.539ZM84.9766 372.781C84.7109 372.781 84.5391 372.695 84.3359 372.445L83.1797 371.047C83.0391 370.867 82.9766 370.703 82.9766 370.516C82.9766 370.125 83.2656 369.852 83.6875 369.852C84.0078 369.852 84.1719 369.961 84.4453 370.344L85.4609 371.781C85.5625 371.93 85.6016 372.047 85.6016 372.219C85.6016 372.539 85.3359 372.781 84.9766 372.781ZM84.1953 382.133C82.5938 382.133 81.4297 381.125 81.4297 379.633C81.4297 378.164 82.5625 377.281 84.5781 377.156L86.7734 377.031V376.438C86.7734 375.57 86.1875 375.07 85.2266 375.07C84.4688 375.07 83.9766 375.328 83.4922 376.039C83.2891 376.305 83.0312 376.43 82.7031 376.43C82.2266 376.43 81.8828 376.117 81.8828 375.648C81.8828 375.469 81.9297 375.297 82.0156 375.117C82.4375 374.156 83.7188 373.547 85.3047 373.547C87.3594 373.547 88.6953 374.633 88.6953 376.297V381.18C88.6953 381.805 88.2969 382.156 87.75 382.156C87.2188 382.156 86.8516 381.836 86.8203 381.258V380.68H86.7812C86.3047 381.578 85.2656 382.133 84.1953 382.133ZM84.7891 380.664C85.8828 380.664 86.7734 379.93 86.7734 378.93V378.297L84.8516 378.414C83.9141 378.477 83.375 378.898 83.375 379.555C83.375 380.234 83.9453 380.664 84.7891 380.664ZM91.2812 372.555C90.6797 372.555 90.2031 372.086 90.2031 371.5C90.2031 370.906 90.6797 370.445 91.2812 370.445C91.8906 370.445 92.3672 370.906 92.3672 371.5C92.3672 372.086 91.8906 372.555 91.2812 372.555ZM91.2812 382.156C90.6875 382.156 90.3125 381.766 90.3125 381.133V374.578C90.3125 373.953 90.6875 373.555 91.2812 373.555C91.875 373.555 92.2578 373.953 92.2578 374.586V381.133C92.2578 381.766 91.875 382.156 91.2812 382.156Z" fill="white"/>
<path d="M157.25 36C157.25 29.3726 162.623 24 169.25 24H204.583C211.211 24 216.583 29.3726 216.583 36V66C216.583 69.3137 213.897 72 210.583 72H163.25C159.936 72 157.25 69.3137 157.25 66V36Z" fill="#71ABFB"/>
<path d="M166.88 53C166.402 53 166.115 52.6992 166.115 52.207V43.8193C166.115 43.3271 166.402 43.0264 166.88 43.0264C167.352 43.0264 167.646 43.3271 167.646 43.8193V51.6738H171.638C172.062 51.6738 172.349 51.9336 172.349 52.3369C172.349 52.7402 172.062 53 171.638 53H166.88ZM176.314 53.1367C174.147 53.1367 172.876 51.7627 172.876 49.4385C172.876 47.1553 174.174 45.6787 176.212 45.6787C178.126 45.6787 179.445 47.0596 179.445 49.0215C179.445 49.5 179.172 49.7734 178.714 49.7734H174.366V49.8076C174.366 51.1201 175.104 51.9404 176.28 51.9404C177.087 51.9404 177.592 51.6602 178.139 50.915C178.297 50.7305 178.447 50.6553 178.659 50.6553C179.014 50.6553 179.274 50.8877 179.274 51.2568C179.274 51.373 179.233 51.5098 179.172 51.6533C178.7 52.5967 177.654 53.1367 176.314 53.1367ZM174.373 48.7412H177.968C177.934 47.6133 177.23 46.8682 176.205 46.8682C175.186 46.8682 174.448 47.6201 174.373 48.7412ZM183.321 53.1299C182.795 53.1299 182.507 52.9111 182.302 52.3779L180.17 46.7656C180.122 46.6357 180.088 46.4922 180.088 46.3555C180.088 45.9453 180.402 45.6787 180.833 45.6787C181.174 45.6787 181.407 45.8633 181.53 46.2598L183.314 51.5576H183.341L185.126 46.2461C185.249 45.8633 185.481 45.6787 185.816 45.6787C186.24 45.6787 186.541 45.959 186.541 46.3486C186.541 46.4785 186.513 46.6221 186.465 46.7451L184.333 52.3779C184.141 52.8975 183.827 53.1299 183.321 53.1299ZM190.451 53.1367C188.284 53.1367 187.012 51.7627 187.012 49.4385C187.012 47.1553 188.311 45.6787 190.348 45.6787C192.262 45.6787 193.582 47.0596 193.582 49.0215C193.582 49.5 193.308 49.7734 192.85 49.7734H188.503V49.8076C188.503 51.1201 189.241 51.9404 190.417 51.9404C191.223 51.9404 191.729 51.6602 192.276 50.915C192.433 50.7305 192.584 50.6553 192.796 50.6553C193.151 50.6553 193.411 50.8877 193.411 51.2568C193.411 51.373 193.37 51.5098 193.308 51.6533C192.837 52.5967 191.791 53.1367 190.451 53.1367ZM188.509 48.7412H192.105C192.071 47.6133 191.367 46.8682 190.341 46.8682C189.323 46.8682 188.585 47.6201 188.509 48.7412ZM195.523 53.1299C195.092 53.1299 194.785 52.8359 194.785 52.3506V43.7852C194.785 43.2998 195.092 43.0059 195.523 43.0059C195.954 43.0059 196.261 43.2998 196.261 43.7852V52.3506C196.261 52.8359 195.954 53.1299 195.523 53.1299ZM204.266 53.1846C201.887 53.1846 200.486 51.2021 200.486 48.0576C200.486 44.9336 201.908 42.9512 204.266 42.9512C206.625 42.9512 208.033 44.9268 208.033 48.0508C208.033 51.1953 206.638 53.1846 204.266 53.1846ZM204.266 51.8994C205.688 51.8994 206.488 50.4502 206.488 48.0576C206.488 45.6992 205.674 44.2363 204.266 44.2363C202.858 44.2363 202.038 45.7061 202.038 48.0576C202.038 50.4434 202.838 51.8994 204.266 51.8994Z" fill="white"/>
<path d="M220.583 20C220.583 13.3726 225.956 8 232.583 8H267.917C274.544 8 279.917 13.3726 279.917 20V66C279.917 69.3137 277.23 72 273.917 72H226.583C223.27 72 220.583 69.3137 220.583 66V20Z" fill="#4791F8"/>
<path d="M231.383 45C230.904 45 230.617 44.6992 230.617 44.207V35.8193C230.617 35.3271 230.904 35.0264 231.383 35.0264C231.854 35.0264 232.148 35.3271 232.148 35.8193V43.6738H236.141C236.564 43.6738 236.852 43.9336 236.852 44.3369C236.852 44.7402 236.564 45 236.141 45H231.383ZM240.816 45.1367C238.649 45.1367 237.378 43.7627 237.378 41.4385C237.378 39.1553 238.677 37.6787 240.714 37.6787C242.628 37.6787 243.947 39.0596 243.947 41.0215C243.947 41.5 243.674 41.7734 243.216 41.7734H238.868V41.8076C238.868 43.1201 239.606 43.9404 240.782 43.9404C241.589 43.9404 242.095 43.6602 242.642 42.915C242.799 42.7305 242.949 42.6553 243.161 42.6553C243.517 42.6553 243.776 42.8877 243.776 43.2568C243.776 43.373 243.735 43.5098 243.674 43.6533C243.202 44.5967 242.156 45.1367 240.816 45.1367ZM238.875 40.7412H242.471C242.437 39.6133 241.732 38.8682 240.707 38.8682C239.688 38.8682 238.95 39.6201 238.875 40.7412ZM247.823 45.1299C247.297 45.1299 247.01 44.9111 246.805 44.3779L244.672 38.7656C244.624 38.6357 244.59 38.4922 244.59 38.3555C244.59 37.9453 244.904 37.6787 245.335 37.6787C245.677 37.6787 245.909 37.8633 246.032 38.2598L247.816 43.5576H247.844L249.628 38.2461C249.751 37.8633 249.983 37.6787 250.318 37.6787C250.742 37.6787 251.043 37.959 251.043 38.3486C251.043 38.4785 251.016 38.6221 250.968 38.7451L248.835 44.3779C248.644 44.8975 248.329 45.1299 247.823 45.1299ZM254.953 45.1367C252.786 45.1367 251.515 43.7627 251.515 41.4385C251.515 39.1553 252.813 37.6787 254.851 37.6787C256.765 37.6787 258.084 39.0596 258.084 41.0215C258.084 41.5 257.811 41.7734 257.353 41.7734H253.005V41.8076C253.005 43.1201 253.743 43.9404 254.919 43.9404C255.726 43.9404 256.231 43.6602 256.778 42.915C256.936 42.7305 257.086 42.6553 257.298 42.6553C257.653 42.6553 257.913 42.8877 257.913 43.2568C257.913 43.373 257.872 43.5098 257.811 43.6533C257.339 44.5967 256.293 45.1367 254.953 45.1367ZM253.012 40.7412H256.607C256.573 39.6133 255.869 38.8682 254.844 38.8682C253.825 38.8682 253.087 39.6201 253.012 40.7412ZM260.025 45.1299C259.595 45.1299 259.287 44.8359 259.287 44.3506V35.7852C259.287 35.2998 259.595 35.0059 260.025 35.0059C260.456 35.0059 260.764 35.2998 260.764 35.7852V44.3506C260.764 44.8359 260.456 45.1299 260.025 45.1299ZM268.399 45.1299C267.955 45.1299 267.647 44.8154 267.647 44.3506V36.6875H267.613L265.911 37.877C265.761 37.9863 265.624 38.0342 265.453 38.0342C265.118 38.0342 264.879 37.7949 264.879 37.4463C264.879 37.1934 264.975 37.0156 265.262 36.8174L267.312 35.3613C267.729 35.0674 267.955 35.0059 268.283 35.0059C268.823 35.0059 269.145 35.3271 269.145 35.8604V44.3506C269.145 44.8154 268.837 45.1299 268.399 45.1299Z" fill="white"/>
<path d="M283.917 12C283.917 5.37258 289.289 0 295.917 0H331.25C337.877 0 343.25 5.37258 343.25 12V66C343.25 69.3137 340.564 72 337.25 72H289.917C286.603 72 283.917 69.3137 283.917 66V12Z" fill="#1E76F1"/>
<path d="M293.862 41C293.383 41 293.096 40.6992 293.096 40.207V31.8193C293.096 31.3271 293.383 31.0264 293.862 31.0264C294.333 31.0264 294.627 31.3271 294.627 31.8193V39.6738H298.619C299.043 39.6738 299.33 39.9336 299.33 40.3369C299.33 40.7402 299.043 41 298.619 41H293.862ZM303.295 41.1367C301.128 41.1367 299.857 39.7627 299.857 37.4385C299.857 35.1553 301.156 33.6787 303.193 33.6787C305.107 33.6787 306.426 35.0596 306.426 37.0215C306.426 37.5 306.153 37.7734 305.695 37.7734H301.347V37.8076C301.347 39.1201 302.085 39.9404 303.261 39.9404C304.068 39.9404 304.573 39.6602 305.12 38.915C305.278 38.7305 305.428 38.6553 305.64 38.6553C305.995 38.6553 306.255 38.8877 306.255 39.2568C306.255 39.373 306.214 39.5098 306.153 39.6533C305.681 40.5967 304.635 41.1367 303.295 41.1367ZM301.354 36.7412H304.949C304.915 35.6133 304.211 34.8682 303.186 34.8682C302.167 34.8682 301.429 35.6201 301.354 36.7412ZM310.302 41.1299C309.776 41.1299 309.489 40.9111 309.283 40.3779L307.151 34.7656C307.103 34.6357 307.069 34.4922 307.069 34.3555C307.069 33.9453 307.383 33.6787 307.814 33.6787C308.156 33.6787 308.388 33.8633 308.511 34.2598L310.295 39.5576H310.323L312.107 34.2461C312.23 33.8633 312.462 33.6787 312.797 33.6787C313.221 33.6787 313.522 33.959 313.522 34.3486C313.522 34.4785 313.494 34.6221 313.447 34.7451L311.314 40.3779C311.122 40.8975 310.808 41.1299 310.302 41.1299ZM317.432 41.1367C315.265 41.1367 313.993 39.7627 313.993 37.4385C313.993 35.1553 315.292 33.6787 317.329 33.6787C319.243 33.6787 320.563 35.0596 320.563 37.0215C320.563 37.5 320.289 37.7734 319.831 37.7734H315.484V37.8076C315.484 39.1201 316.222 39.9404 317.398 39.9404C318.204 39.9404 318.71 39.6602 319.257 38.915C319.414 38.7305 319.565 38.6553 319.777 38.6553C320.132 38.6553 320.392 38.8877 320.392 39.2568C320.392 39.373 320.351 39.5098 320.289 39.6533C319.818 40.5967 318.772 41.1367 317.432 41.1367ZM315.49 36.7412H319.086C319.052 35.6133 318.348 34.8682 317.323 34.8682C316.304 34.8682 315.566 35.6201 315.49 36.7412ZM322.504 41.1299C322.073 41.1299 321.766 40.8359 321.766 40.3506V31.7852C321.766 31.2998 322.073 31.0059 322.504 31.0059C322.935 31.0059 323.242 31.2998 323.242 31.7852V40.3506C323.242 40.8359 322.935 41.1299 322.504 41.1299ZM328.335 41C327.87 41 327.611 40.7402 327.611 40.3574C327.611 40.0566 327.699 39.8926 328.034 39.5576L331.117 36.4404C332.403 35.1279 332.717 34.6221 332.717 33.8359C332.717 32.8994 331.992 32.2158 331.001 32.2158C330.031 32.2158 329.361 32.7148 329.019 33.6787C328.882 33.9863 328.704 34.1709 328.328 34.1709C327.898 34.1709 327.652 33.9043 327.652 33.5215C327.652 33.4053 327.665 33.3027 327.693 33.2002C327.905 32.1611 329.046 30.9512 331.008 30.9512C332.895 30.9512 334.228 32.1133 334.228 33.7402C334.228 34.8613 333.701 35.6543 332.04 37.3154L329.689 39.6738V39.708H333.783C334.2 39.708 334.46 39.9678 334.46 40.3574C334.46 40.7402 334.2 41 333.783 41H328.335Z" fill="white"/>
<rect x="157.25" y="78" width="186" height="60" rx="6" fill="#B1E5FC"/>
<path d="M243.844 114.156C243.289 114.156 242.883 113.797 242.883 113.164V111.836H238.438C237.711 111.836 237.234 111.375 237.234 110.703C237.234 110.266 237.359 109.898 237.672 109.336C238.461 107.922 239.742 105.992 241.094 104.008C241.828 102.914 242.32 102.57 243.148 102.57C244.188 102.57 244.805 103.117 244.805 104.055V110.18H245.594C246.125 110.18 246.445 110.523 246.445 111.008C246.445 111.5 246.125 111.836 245.586 111.836H244.805V113.164C244.805 113.797 244.406 114.156 243.844 114.156ZM242.914 110.227V104.258H242.883C241.094 106.82 239.977 108.508 239.062 110.172V110.227H242.914ZM248.516 110.289C247.984 110.289 247.586 109.961 247.586 109.422C247.586 108.883 247.984 108.555 248.516 108.555H252.047C252.586 108.555 252.977 108.883 252.977 109.422C252.977 109.961 252.586 110.289 252.047 110.289H248.516ZM259.008 114.227C257.25 114.227 255.859 113.367 255.078 111.719C254.664 110.852 254.453 109.773 254.453 108.492C254.453 104.734 256.172 102.492 259.039 102.492C260.758 102.492 262.07 103.242 262.633 104.312C262.758 104.539 262.812 104.734 262.812 104.953C262.812 105.414 262.484 105.766 261.953 105.766C261.555 105.766 261.305 105.578 260.992 105.18C260.469 104.461 259.867 104.133 259.031 104.133C257.328 104.133 256.422 105.703 256.383 108.297V108.414H256.422C256.867 107.375 257.992 106.594 259.523 106.594C261.695 106.594 263.219 108.156 263.219 110.289C263.219 112.578 261.445 114.227 259.008 114.227ZM258.977 112.586C260.234 112.586 261.234 111.602 261.234 110.367C261.242 109.07 260.297 108.148 259 108.148C257.703 108.148 256.727 109.07 256.727 110.328C256.727 111.594 257.719 112.586 258.977 112.586Z" fill="#57595C"/>
<rect x="157.25" y="142" width="186" height="60" rx="6" fill="#B1E5FC"/>
<path d="M226.977 178.188C224.727 178.188 223.227 177.25 222.789 175.969C222.719 175.781 222.68 175.578 222.68 175.391C222.68 174.828 223.039 174.469 223.57 174.469C224.016 174.469 224.297 174.648 224.516 175.102C224.867 176.078 225.836 176.516 227.039 176.516C228.398 176.516 229.352 175.844 229.352 174.906C229.352 174.094 228.789 173.594 227.32 173.289L226.109 173.039C223.852 172.578 222.797 171.516 222.797 169.867C222.797 167.883 224.539 166.539 226.984 166.539C228.977 166.539 230.523 167.43 230.984 168.922C231.031 169.047 231.055 169.195 231.055 169.383C231.055 169.875 230.703 170.211 230.18 170.211C229.711 170.211 229.422 170.008 229.211 169.57C228.828 168.617 228.023 168.211 226.969 168.211C225.719 168.211 224.828 168.805 224.828 169.75C224.828 170.516 225.391 171.008 226.797 171.305L228.008 171.555C230.383 172.047 231.383 173 231.383 174.672C231.383 176.828 229.688 178.188 226.977 178.188ZM233.242 175.953V171.219H232.719C232.234 171.219 231.938 170.93 231.938 170.461C231.938 170 232.234 169.719 232.719 169.719H233.242V168.617C233.242 167.992 233.617 167.602 234.219 167.602C234.812 167.602 235.188 167.992 235.188 168.617V169.719H236.086C236.57 169.719 236.867 170 236.867 170.461C236.867 170.93 236.57 171.219 236.086 171.219H235.188V175.531C235.188 176.156 235.406 176.43 235.969 176.477L236.109 176.492C236.625 176.539 236.891 176.758 236.891 177.211C236.891 177.781 236.391 178.086 235.5 178.086H235.422C233.977 178.086 233.242 177.367 233.242 175.953ZM240.398 178.133C238.797 178.133 237.633 177.125 237.633 175.633C237.633 174.164 238.766 173.281 240.781 173.156L242.977 173.031V172.438C242.977 171.57 242.391 171.07 241.43 171.07C240.672 171.07 240.18 171.328 239.695 172.039C239.492 172.305 239.234 172.43 238.906 172.43C238.43 172.43 238.086 172.117 238.086 171.648C238.086 171.469 238.133 171.297 238.219 171.117C238.641 170.156 239.922 169.547 241.508 169.547C243.562 169.547 244.898 170.633 244.898 172.297V177.18C244.898 177.805 244.5 178.156 243.953 178.156C243.422 178.156 243.055 177.836 243.023 177.258V176.68H242.984C242.508 177.578 241.469 178.133 240.398 178.133ZM240.992 176.664C242.086 176.664 242.977 175.93 242.977 174.93V174.297L241.055 174.414C240.117 174.477 239.578 174.898 239.578 175.555C239.578 176.234 240.148 176.664 240.992 176.664ZM247.438 178.156C246.852 178.156 246.469 177.773 246.469 177.133V170.539C246.469 169.93 246.844 169.555 247.398 169.555C247.938 169.555 248.32 169.93 248.32 170.539V171.172H248.359C248.586 170.203 249.305 169.578 250.133 169.578C250.438 169.578 250.672 169.656 250.82 169.789C251 169.938 251.094 170.172 251.094 170.492C251.094 170.797 251 171.023 250.805 171.18C250.617 171.344 250.328 171.43 249.945 171.438C248.836 171.445 248.414 172.141 248.414 173.148V177.133C248.414 177.773 248.023 178.156 247.438 178.156ZM252.508 175.953V171.219H251.984C251.5 171.219 251.203 170.93 251.203 170.461C251.203 170 251.5 169.719 251.984 169.719H252.508V168.617C252.508 167.992 252.883 167.602 253.484 167.602C254.078 167.602 254.453 167.992 254.453 168.617V169.719H255.352C255.836 169.719 256.133 170 256.133 170.461C256.133 170.93 255.836 171.219 255.352 171.219H254.453V175.531C254.453 176.156 254.672 176.43 255.234 176.477L255.375 176.492C255.891 176.539 256.156 176.758 256.156 177.211C256.156 177.781 255.656 178.086 254.766 178.086H254.688C253.242 178.086 252.508 177.367 252.508 175.953ZM260.867 178.164C258.336 178.164 256.844 176.578 256.844 173.891C256.844 171.25 258.367 169.547 260.758 169.547C263.023 169.547 264.57 171.156 264.57 173.406C264.57 173.984 264.242 174.328 263.664 174.328H258.781V174.391C258.781 175.773 259.586 176.664 260.852 176.664C261.727 176.664 262.297 176.359 262.922 175.562C263.125 175.336 263.305 175.25 263.578 175.25C264.016 175.25 264.359 175.531 264.359 176C264.359 176.148 264.312 176.32 264.227 176.492C263.68 177.547 262.445 178.164 260.867 178.164ZM258.797 173.047H262.664C262.625 171.844 261.859 171.055 260.766 171.055C259.672 171.055 258.875 171.859 258.797 173.047ZM266.797 178.156C266.211 178.156 265.828 177.773 265.828 177.133V170.539C265.828 169.93 266.203 169.555 266.758 169.555C267.297 169.555 267.68 169.93 267.68 170.539V171.172H267.719C267.945 170.203 268.664 169.578 269.492 169.578C269.797 169.578 270.031 169.656 270.18 169.789C270.359 169.938 270.453 170.172 270.453 170.492C270.453 170.797 270.359 171.023 270.164 171.18C269.977 171.344 269.688 171.43 269.305 171.438C268.195 171.445 267.773 172.141 267.773 173.148V177.133C267.773 177.773 267.383 178.156 266.797 178.156ZM274.523 178.164C272.773 178.164 271.547 177.492 271.148 176.5C271.094 176.359 271.07 176.234 271.07 176.117C271.07 175.648 271.414 175.352 271.883 175.352C272.203 175.352 272.477 175.5 272.727 175.828C273.164 176.461 273.664 176.742 274.594 176.742C275.5 176.742 276.102 176.359 276.102 175.734C276.102 175.234 275.789 174.961 274.938 174.766L273.594 174.461C271.977 174.094 271.18 173.297 271.18 172.094C271.18 170.555 272.508 169.547 274.555 169.547C276.148 169.547 277.383 170.328 277.641 171.281C277.664 171.383 277.68 171.477 277.68 171.57C277.68 171.977 277.422 172.266 276.93 172.266C276.648 172.266 276.367 172.164 276.188 171.906C275.805 171.336 275.328 170.977 274.508 170.977C273.656 170.977 273.07 171.391 273.07 171.984C273.07 172.469 273.43 172.797 274.289 172.992L275.609 173.281C277.359 173.68 278.055 174.312 278.055 175.539C278.055 177.125 276.633 178.164 274.523 178.164Z" fill="#57595C"/>
<rect x="157.25" y="206" width="186" height="60" rx="6" fill="#B1E5FC"/>
<path d="M228.406 242.133C227.781 242.133 227.398 241.75 227.398 241.086V231.773C227.398 231.117 227.781 230.727 228.406 230.727H231.781C234.023 230.727 235.578 232.25 235.578 234.5C235.578 236.75 233.977 238.273 231.695 238.273H229.414V241.086C229.414 241.75 229.039 242.133 228.406 242.133ZM229.414 236.648H231.242C232.688 236.648 233.531 235.867 233.531 234.5C233.531 233.148 232.695 232.375 231.25 232.375H229.414V236.648ZM237.828 242.156C237.242 242.156 236.859 241.773 236.859 241.133V234.539C236.859 233.93 237.234 233.555 237.789 233.555C238.328 233.555 238.711 233.93 238.711 234.539V235.172H238.75C238.977 234.203 239.695 233.578 240.523 233.578C240.828 233.578 241.062 233.656 241.211 233.789C241.391 233.938 241.484 234.172 241.484 234.492C241.484 234.797 241.391 235.023 241.195 235.18C241.008 235.344 240.719 235.43 240.336 235.438C239.227 235.445 238.805 236.141 238.805 237.148V241.133C238.805 241.773 238.414 242.156 237.828 242.156ZM245.727 242.164C243.195 242.164 241.703 240.578 241.703 237.891C241.703 235.25 243.227 233.547 245.617 233.547C247.883 233.547 249.43 235.156 249.43 237.406C249.43 237.984 249.102 238.328 248.523 238.328H243.641V238.391C243.641 239.773 244.445 240.664 245.711 240.664C246.586 240.664 247.156 240.359 247.781 239.562C247.984 239.336 248.164 239.25 248.438 239.25C248.875 239.25 249.219 239.531 249.219 240C249.219 240.148 249.172 240.32 249.086 240.492C248.539 241.547 247.305 242.164 245.727 242.164ZM243.656 237.047H247.523C247.484 235.844 246.719 235.055 245.625 235.055C244.531 235.055 243.734 235.859 243.656 237.047ZM251.617 238.289C251.086 238.289 250.688 237.961 250.688 237.422C250.688 236.883 251.086 236.555 251.617 236.555H255.148C255.688 236.555 256.078 236.883 256.078 237.422C256.078 237.961 255.688 238.289 255.148 238.289H251.617ZM258.062 242.133C257.445 242.133 257.047 241.773 257.047 241.203C257.047 241.047 257.086 240.828 257.18 240.586L260.453 231.688C260.727 230.938 261.18 230.594 261.914 230.594C262.656 230.594 263.109 230.922 263.391 231.68L266.672 240.586C266.766 240.844 266.805 241.023 266.805 241.203C266.805 241.75 266.383 242.133 265.797 242.133C265.25 242.133 264.945 241.883 264.766 241.281L264.023 239.125H259.812L259.07 241.266C258.883 241.875 258.586 242.133 258.062 242.133ZM260.289 237.531H263.531L261.93 232.719H261.875L260.289 237.531ZM271.289 242.156C270.703 242.156 270.297 241.75 270.297 241.141V232.68H270.258L268.438 233.945C268.242 234.086 268.086 234.141 267.867 234.141C267.445 234.141 267.141 233.836 267.141 233.391C267.141 233.078 267.266 232.844 267.602 232.609L269.906 230.992C270.406 230.641 270.719 230.57 271.141 230.57C271.852 230.57 272.281 231 272.281 231.695V241.141C272.281 241.75 271.875 242.156 271.289 242.156Z" fill="#57595C"/>
<rect x="157.25" y="270" width="59.3333" height="60" rx="6" fill="#B1E5FC"/>
<path d="M182.018 306.227C180.26 306.227 178.87 305.367 178.089 303.719C177.674 302.852 177.464 301.773 177.464 300.492C177.464 296.734 179.182 294.492 182.049 294.492C183.768 294.492 185.081 295.242 185.643 296.312C185.768 296.539 185.823 296.734 185.823 296.953C185.823 297.414 185.495 297.766 184.964 297.766C184.565 297.766 184.315 297.578 184.003 297.18C183.479 296.461 182.878 296.133 182.042 296.133C180.339 296.133 179.432 297.703 179.393 300.297V300.414H179.432C179.878 299.375 181.003 298.594 182.534 298.594C184.706 298.594 186.229 300.156 186.229 302.289C186.229 304.578 184.456 306.227 182.018 306.227ZM181.987 304.586C183.245 304.586 184.245 303.602 184.245 302.367C184.253 301.07 183.307 300.148 182.01 300.148C180.714 300.148 179.737 301.07 179.737 302.328C179.737 303.594 180.729 304.586 181.987 304.586ZM191.94 306.227C189.159 306.227 187.503 303.969 187.503 300.352C187.503 296.75 189.174 294.5 191.94 294.5C194.698 294.5 196.362 296.734 196.362 300.344C196.362 303.953 194.714 306.227 191.94 306.227ZM191.94 304.578C193.464 304.578 194.331 303.023 194.331 300.352C194.331 297.711 193.448 296.148 191.94 296.148C190.424 296.148 189.534 297.719 189.534 300.344C189.534 303.016 190.409 304.578 191.94 304.578Z" fill="#57595C"/>
<path d="M157.25 340C157.25 336.686 159.936 334 163.25 334H210.583C213.897 334 216.583 336.686 216.583 340V382C216.583 388.627 211.211 394 204.583 394H169.25C162.623 394 157.25 388.627 157.25 382V340Z" fill="#B1E5FC"/>
<path d="M189.026 370.156C188.471 370.156 188.065 369.797 188.065 369.164V367.836H183.62C182.893 367.836 182.417 367.375 182.417 366.703C182.417 366.266 182.542 365.898 182.854 365.336C183.643 363.922 184.924 361.992 186.276 360.008C187.01 358.914 187.503 358.57 188.331 358.57C189.37 358.57 189.987 359.117 189.987 360.055V366.18H190.776C191.307 366.18 191.628 366.523 191.628 367.008C191.628 367.5 191.307 367.836 190.768 367.836H189.987V369.164C189.987 369.797 189.589 370.156 189.026 370.156ZM188.096 366.227V360.258H188.065C186.276 362.82 185.159 364.508 184.245 366.172V366.227H188.096Z" fill="#57595C"/>
<rect x="220.583" y="270" width="59.3333" height="60" rx="6" fill="#B1E5FC"/>
<path d="M245.352 306.227C243.594 306.227 242.203 305.367 241.422 303.719C241.008 302.852 240.797 301.773 240.797 300.492C240.797 296.734 242.516 294.492 245.383 294.492C247.102 294.492 248.414 295.242 248.977 296.312C249.102 296.539 249.156 296.734 249.156 296.953C249.156 297.414 248.828 297.766 248.297 297.766C247.898 297.766 247.648 297.578 247.336 297.18C246.812 296.461 246.211 296.133 245.375 296.133C243.672 296.133 242.766 297.703 242.727 300.297V300.414H242.766C243.211 299.375 244.336 298.594 245.867 298.594C248.039 298.594 249.562 300.156 249.562 302.289C249.562 304.578 247.789 306.227 245.352 306.227ZM245.32 304.586C246.578 304.586 247.578 303.602 247.578 302.367C247.586 301.07 246.641 300.148 245.344 300.148C244.047 300.148 243.07 301.07 243.07 302.328C243.07 303.594 244.062 304.586 245.32 304.586ZM255.273 306.227C252.492 306.227 250.836 303.969 250.836 300.352C250.836 296.75 252.508 294.5 255.273 294.5C258.031 294.5 259.695 296.734 259.695 300.344C259.695 303.953 258.047 306.227 255.273 306.227ZM255.273 304.578C256.797 304.578 257.664 303.023 257.664 300.352C257.664 297.711 256.781 296.148 255.273 296.148C253.758 296.148 252.867 297.719 252.867 300.344C252.867 303.016 253.742 304.578 255.273 304.578Z" fill="#57595C"/>
<path d="M220.583 340C220.583 336.686 223.27 334 226.583 334H273.917C277.23 334 279.917 336.686 279.917 340V382C279.917 388.627 274.544 394 267.917 394H232.583C225.956 394 220.583 388.627 220.583 382V340Z" fill="#B1E5FC"/>
<path d="M252.359 370.156C251.805 370.156 251.398 369.797 251.398 369.164V367.836H246.953C246.227 367.836 245.75 367.375 245.75 366.703C245.75 366.266 245.875 365.898 246.188 365.336C246.977 363.922 248.258 361.992 249.609 360.008C250.344 358.914 250.836 358.57 251.664 358.57C252.703 358.57 253.32 359.117 253.32 360.055V366.18H254.109C254.641 366.18 254.961 366.523 254.961 367.008C254.961 367.5 254.641 367.836 254.102 367.836H253.32V369.164C253.32 369.797 252.922 370.156 252.359 370.156ZM251.43 366.227V360.258H251.398C249.609 362.82 248.492 364.508 247.578 366.172V366.227H251.43Z" fill="#57595C"/>
<rect x="283.917" y="270" width="59.3333" height="60" rx="6" fill="#B1E5FC"/>
<path d="M308.685 306.227C306.927 306.227 305.536 305.367 304.755 303.719C304.341 302.852 304.13 301.773 304.13 300.492C304.13 296.734 305.849 294.492 308.716 294.492C310.435 294.492 311.747 295.242 312.31 296.312C312.435 296.539 312.49 296.734 312.49 296.953C312.49 297.414 312.161 297.766 311.63 297.766C311.232 297.766 310.982 297.578 310.669 297.18C310.146 296.461 309.544 296.133 308.708 296.133C307.005 296.133 306.099 297.703 306.06 300.297V300.414H306.099C306.544 299.375 307.669 298.594 309.2 298.594C311.372 298.594 312.896 300.156 312.896 302.289C312.896 304.578 311.122 306.227 308.685 306.227ZM308.654 304.586C309.911 304.586 310.911 303.602 310.911 302.367C310.919 301.07 309.974 300.148 308.677 300.148C307.38 300.148 306.404 301.07 306.404 302.328C306.404 303.594 307.396 304.586 308.654 304.586ZM318.607 306.227C315.825 306.227 314.169 303.969 314.169 300.352C314.169 296.75 315.841 294.5 318.607 294.5C321.365 294.5 323.029 296.734 323.029 300.344C323.029 303.953 321.38 306.227 318.607 306.227ZM318.607 304.578C320.13 304.578 320.997 303.023 320.997 300.352C320.997 297.711 320.115 296.148 318.607 296.148C317.091 296.148 316.2 297.719 316.2 300.344C316.2 303.016 317.075 304.578 318.607 304.578Z" fill="#57595C"/>
<path d="M283.917 340C283.917 336.686 286.603 334 289.917 334H337.25C340.564 334 343.25 336.686 343.25 340V382C343.25 388.627 337.877 394 331.25 394H295.917C289.289 394 283.917 388.627 283.917 382V340Z" fill="#B1E5FC"/>
<path d="M313.583 370.227C310.997 370.227 309.193 368.875 309.193 366.953C309.193 365.492 310.232 364.375 311.74 364.07V364.023C310.443 363.68 309.599 362.719 309.599 361.508C309.599 359.773 311.255 358.5 313.583 358.5C315.911 358.5 317.56 359.766 317.56 361.516C317.56 362.711 316.724 363.664 315.427 364.023V364.07C316.935 364.383 317.982 365.5 317.982 366.953C317.982 368.883 316.161 370.227 313.583 370.227ZM313.583 363.383C314.747 363.383 315.575 362.695 315.575 361.711C315.575 360.711 314.747 360.023 313.583 360.023C312.411 360.023 311.591 360.719 311.591 361.711C311.591 362.695 312.411 363.383 313.583 363.383ZM313.583 368.688C314.935 368.688 315.888 367.898 315.888 366.805C315.888 365.703 314.935 364.922 313.583 364.922C312.232 364.922 311.279 365.711 311.279 366.805C311.279 367.898 312.232 368.688 313.583 368.688Z" fill="#57595C"/>
</svg>
