<svg width="343" height="394" viewBox="0 0 343 394" fill="none" xmlns="http://www.w3.org/2000/svg">
<path d="M0 90C0 83.3726 5.37258 78 12 78H138C144.627 78 150 83.3726 150 90V132C150 135.314 147.314 138 144 138H6C2.68629 138 0 135.314 0 132V90Z" fill="#F57032"/>
<path d="M64.8984 114.133C64.2734 114.133 63.8984 113.75 63.8984 113.086V104.43H61.3203C60.7734 104.43 60.3984 104.102 60.3984 103.578C60.3984 103.055 60.7656 102.727 61.3203 102.727H68.4844C69.0391 102.727 69.4062 103.055 69.4062 103.578C69.4062 104.102 69.0312 104.43 68.4844 104.43H65.9062V113.086C65.9062 113.75 65.5312 114.133 64.8984 114.133ZM72.0625 114.148C70.2656 114.148 69.125 112.984 69.125 111.07V106.578C69.125 105.93 69.5234 105.555 70.0938 105.555C70.6641 105.555 71.0703 105.93 71.0703 106.586V110.68C71.0703 111.867 71.6484 112.508 72.7422 112.508C73.8672 112.508 74.5625 111.711 74.5625 110.508V106.578C74.5625 105.93 74.9688 105.555 75.5391 105.555C76.1016 105.555 76.5078 105.93 76.5078 106.586V113.172C76.5078 113.797 76.1328 114.156 75.5781 114.156C75.0156 114.156 74.6328 113.797 74.6328 113.172V112.562H74.5938C74.1562 113.57 73.3203 114.148 72.0625 114.148ZM83.9922 102.578C83.7109 102.578 83.5234 102.406 83.5234 102.172C83.5234 102.008 83.6016 101.898 83.7734 101.75C83.9609 101.57 84.0469 101.391 84.0469 101.172C84.0469 100.867 83.7734 100.625 83.3672 100.625C83.25 100.625 83.1797 100.633 83.0938 100.648C83 100.664 82.9375 100.68 82.8438 100.68C82.5703 100.68 82.4062 100.539 82.4062 100.289C82.4062 100.125 82.4922 99.9844 82.6406 99.8828C82.8359 99.7422 83.1484 99.6562 83.5312 99.6562C84.5781 99.6562 85.2031 100.203 85.2031 101.109C85.2031 101.648 84.9766 102.102 84.5625 102.375C84.375 102.508 84.2031 102.578 83.9922 102.578ZM80.1016 104.68C79.7656 104.68 79.5234 104.445 79.5234 104.117C79.5234 103.961 79.5781 103.828 79.7266 103.664L80.8359 102.477C81.0781 102.188 81.3516 102.078 81.7656 102.078C82.1797 102.078 82.4531 102.188 82.6953 102.477L83.8047 103.664C83.9531 103.828 84.0078 103.961 84.0078 104.117C84.0078 104.445 83.7656 104.68 83.4297 104.68C83.2109 104.68 83.0703 104.602 82.8438 104.344L81.7891 103.195H81.7422L80.6875 104.344C80.4609 104.602 80.3203 104.68 80.1016 104.68ZM81.7656 114.164C79.3359 114.164 77.7578 112.547 77.7578 109.859C77.7578 107.188 79.3516 105.547 81.7656 105.547C84.1797 105.547 85.7734 107.18 85.7734 109.859C85.7734 112.547 84.1953 114.164 81.7656 114.164ZM81.7656 112.625C83 112.625 83.7969 111.625 83.7969 109.859C83.7969 108.102 83 107.094 81.7656 107.094C80.5391 107.094 79.7344 108.102 79.7344 109.859C79.7344 111.625 80.5312 112.625 81.7656 112.625ZM88.0391 104.555C87.4375 104.555 86.9609 104.086 86.9609 103.5C86.9609 102.906 87.4375 102.445 88.0391 102.445C88.6484 102.445 89.125 102.906 89.125 103.5C89.125 104.086 88.6484 104.555 88.0391 104.555ZM88.0391 114.156C87.4453 114.156 87.0703 113.766 87.0703 113.133V106.578C87.0703 105.953 87.4453 105.555 88.0391 105.555C88.6328 105.555 89.0156 105.953 89.0156 106.586V113.133C89.0156 113.766 88.6328 114.156 88.0391 114.156Z" fill="white"/>
<rect y="142" width="150" height="60" rx="6" fill="#F57032"/>
<path d="M41.4844 178.188C38.2266 178.188 36.2188 175.977 36.2188 172.359C36.2188 168.766 38.2578 166.539 41.4453 166.539C43.5312 166.539 45.1797 167.516 45.9219 169.164C46.0469 169.422 46.1094 169.688 46.1094 169.922C46.1094 170.461 45.7578 170.805 45.2188 170.805C44.7578 170.805 44.4531 170.586 44.2344 170.094C43.7109 168.883 42.6875 168.25 41.4609 168.25C39.5234 168.25 38.2812 169.844 38.2812 172.359C38.2812 174.891 39.5156 176.477 41.4688 176.477C42.7578 176.477 43.75 175.914 44.2656 174.727C44.4688 174.266 44.7266 174.078 45.1641 174.078C45.7188 174.078 46.1016 174.445 46.1016 174.977C46.1016 175.234 46.0391 175.469 45.9141 175.734C45.1953 177.266 43.5938 178.188 41.4844 178.188ZM50.0547 178.133C48.4531 178.133 47.2891 177.125 47.2891 175.633C47.2891 174.164 48.4219 173.281 50.4375 173.156L52.6328 173.031V172.438C52.6328 171.57 52.0469 171.07 51.0859 171.07C50.3281 171.07 49.8359 171.328 49.3516 172.039C49.1484 172.305 48.8906 172.43 48.5625 172.43C48.0859 172.43 47.7422 172.117 47.7422 171.648C47.7422 171.469 47.7891 171.297 47.875 171.117C48.2969 170.156 49.5781 169.547 51.1641 169.547C53.2188 169.547 54.5547 170.633 54.5547 172.297V177.18C54.5547 177.805 54.1562 178.156 53.6094 178.156C53.0781 178.156 52.7109 177.836 52.6797 177.258V176.68H52.6406C52.1641 177.578 51.125 178.133 50.0547 178.133ZM50.6484 176.664C51.7422 176.664 52.6328 175.93 52.6328 174.93V174.297L50.7109 174.414C49.7734 174.477 49.2344 174.898 49.2344 175.555C49.2344 176.234 49.8047 176.664 50.6484 176.664ZM57.0938 178.156C56.5078 178.156 56.125 177.781 56.125 177.133V170.547C56.125 169.914 56.5078 169.555 57.0547 169.555C57.6016 169.555 57.9922 169.914 57.9922 170.547V171.156H58.0312C58.3906 170.195 59.2656 169.562 60.3906 169.562C61.5625 169.562 62.3984 170.164 62.7031 171.227H62.75C63.1484 170.203 64.1328 169.562 65.3281 169.562C66.9609 169.562 68.0312 170.664 68.0312 172.32V177.133C68.0312 177.781 67.6406 178.156 67.0625 178.156C66.4766 178.156 66.0859 177.781 66.0859 177.133V172.797C66.0859 171.781 65.5547 171.203 64.6016 171.203C63.6641 171.203 63.0234 171.891 63.0234 172.883V177.133C63.0234 177.781 62.6562 178.156 62.0781 178.156C61.4922 178.156 61.1328 177.781 61.1328 177.133V172.695C61.1328 171.773 60.5703 171.203 59.6641 171.203C58.7266 171.203 58.0703 171.93 58.0703 172.93V177.133C58.0703 177.781 57.6719 178.156 57.0938 178.156ZM70.5938 178.156C70.0312 178.156 69.6484 177.812 69.6484 177.18V167.594C69.6484 166.938 70.0547 166.57 70.625 166.57C71.1953 166.57 71.5938 166.938 71.5938 167.594V171.141H71.6406C72.1172 170.172 73.0547 169.578 74.2344 169.578C76.3203 169.578 77.6484 171.211 77.6484 173.859C77.6484 176.508 76.3281 178.133 74.2266 178.133C73.0156 178.133 72.0859 177.547 71.5938 176.586H71.5547V177.18C71.5547 177.805 71.1562 178.156 70.5938 178.156ZM73.6328 176.539C74.875 176.539 75.6562 175.508 75.6562 173.859C75.6562 172.219 74.875 171.18 73.6328 171.18C72.4297 171.18 71.5859 172.25 71.5859 173.859C71.5859 175.484 72.4297 176.539 73.6328 176.539ZM79.875 178.156C79.2891 178.156 78.9062 177.773 78.9062 177.133V170.539C78.9062 169.93 79.2812 169.555 79.8359 169.555C80.375 169.555 80.7578 169.93 80.7578 170.539V171.172H80.7969C81.0234 170.203 81.7422 169.578 82.5703 169.578C82.875 169.578 83.1094 169.656 83.2578 169.789C83.4375 169.938 83.5312 170.172 83.5312 170.492C83.5312 170.797 83.4375 171.023 83.2422 171.18C83.0547 171.344 82.7656 171.43 82.3828 171.438C81.2734 171.445 80.8516 172.141 80.8516 173.148V177.133C80.8516 177.773 80.4609 178.156 79.875 178.156ZM85.4219 168.555C84.8203 168.555 84.3438 168.086 84.3438 167.5C84.3438 166.906 84.8203 166.445 85.4219 166.445C86.0312 166.445 86.5078 166.906 86.5078 167.5C86.5078 168.086 86.0312 168.555 85.4219 168.555ZM85.4219 178.156C84.8281 178.156 84.4531 177.766 84.4531 177.133V170.578C84.4531 169.953 84.8281 169.555 85.4219 169.555C86.0156 169.555 86.3984 169.953 86.3984 170.586V177.133C86.3984 177.766 86.0156 178.156 85.4219 178.156ZM91.125 178.133C89.0391 178.133 87.6875 176.484 87.6875 173.852C87.6875 171.234 89.0391 169.578 91.125 169.578C92.3125 169.578 93.25 170.195 93.6875 171.109H93.7344V167.594C93.7344 166.938 94.1328 166.57 94.7031 166.57C95.2734 166.57 95.6797 166.938 95.6797 167.594V177.18C95.6797 177.805 95.2812 178.156 94.7188 178.156C94.1562 178.156 93.7344 177.812 93.7344 177.18V176.531H93.6953C93.2969 177.484 92.4062 178.133 91.125 178.133ZM91.7109 176.539C92.9375 176.539 93.7422 175.5 93.7422 173.859C93.7422 172.234 92.9375 171.18 91.7109 171.18C90.4609 171.18 89.6797 172.219 89.6797 173.859C89.6797 175.508 90.4531 176.539 91.7109 176.539ZM100.883 181.117C99.2969 181.109 98.0781 180.5 97.5234 179.609C97.4062 179.414 97.3594 179.227 97.3594 179.023C97.3594 178.594 97.6797 178.273 98.1719 178.273C98.4453 178.273 98.6406 178.367 98.8828 178.602C99.5312 179.25 100.109 179.562 100.898 179.57C102.219 179.586 103.008 178.844 103.008 177.742V176.422H102.969C102.539 177.312 101.562 177.914 100.375 177.914C98.2969 177.914 96.9688 176.305 96.9688 173.758C96.9688 171.164 98.2812 169.578 100.414 169.578C101.594 169.578 102.508 170.188 102.984 171.125H103.016V170.547C103.016 169.906 103.438 169.555 103.992 169.555C104.555 169.555 104.961 169.906 104.961 170.547V177.734C104.961 179.82 103.438 181.133 100.883 181.117ZM100.969 176.398C102.211 176.398 103.023 175.391 103.023 173.773C103.023 172.164 102.211 171.117 100.969 171.117C99.7422 171.117 98.9609 172.148 98.9609 173.773C98.9609 175.414 99.7422 176.398 100.969 176.398ZM110.227 178.164C107.695 178.164 106.203 176.578 106.203 173.891C106.203 171.25 107.727 169.547 110.117 169.547C112.383 169.547 113.93 171.156 113.93 173.406C113.93 173.984 113.602 174.328 113.023 174.328H108.141V174.391C108.141 175.773 108.945 176.664 110.211 176.664C111.086 176.664 111.656 176.359 112.281 175.562C112.484 175.336 112.664 175.25 112.938 175.25C113.375 175.25 113.719 175.531 113.719 176C113.719 176.148 113.672 176.32 113.586 176.492C113.039 177.547 111.805 178.164 110.227 178.164ZM108.156 173.047H112.023C111.984 171.844 111.219 171.055 110.125 171.055C109.031 171.055 108.234 171.859 108.156 173.047Z" fill="white"/>
<rect y="206" width="150" height="60" rx="6" fill="#F57032"/>
<path d="M61.3984 242.188C58.1406 242.188 56.1328 239.977 56.1328 236.359C56.1328 232.766 58.1719 230.539 61.3594 230.539C63.4453 230.539 65.0938 231.516 65.8359 233.164C65.9609 233.422 66.0234 233.688 66.0234 233.922C66.0234 234.461 65.6719 234.805 65.1328 234.805C64.6719 234.805 64.3672 234.586 64.1484 234.094C63.625 232.883 62.6016 232.25 61.375 232.25C59.4375 232.25 58.1953 233.844 58.1953 236.359C58.1953 238.891 59.4297 240.477 61.3828 240.477C62.6719 240.477 63.6641 239.914 64.1797 238.727C64.3828 238.266 64.6406 238.078 65.0781 238.078C65.6328 238.078 66.0156 238.445 66.0156 238.977C66.0156 239.234 65.9531 239.469 65.8281 239.734C65.1094 241.266 63.5078 242.188 61.3984 242.188ZM68.7734 242C68.1484 242 67.7656 241.609 67.7656 240.953V231.773C67.7656 231.117 68.1484 230.727 68.7734 230.727H74.2656C74.8203 230.727 75.1875 231.055 75.1875 231.578C75.1875 232.102 74.8203 232.43 74.2656 232.43H69.7812V235.477H74.0312C74.5469 235.477 74.8984 235.781 74.8984 236.273C74.8984 236.766 74.5547 237.078 74.0312 237.078H69.7812V240.297H74.2656C74.8203 240.297 75.1875 240.625 75.1875 241.148C75.1875 241.672 74.8203 242 74.2656 242H68.7734ZM77.8203 242.133C77.1953 242.133 76.8125 241.75 76.8125 241.086V231.773C76.8125 231.117 77.1953 230.727 77.8203 230.727H83.2109C83.7656 230.727 84.1328 231.055 84.1328 231.578C84.1328 232.102 83.7578 232.43 83.2109 232.43H78.8281V235.758H82.8047C83.3359 235.758 83.6875 236.07 83.6875 236.578C83.6875 237.086 83.3359 237.398 82.8047 237.398H78.8281V241.086C78.8281 241.75 78.4531 242.133 77.8203 242.133ZM86.4766 242.156C85.8516 242.156 85.4688 241.766 85.4688 241.109V231.773C85.4688 231.117 85.8516 230.727 86.4766 230.727H89.9453C92.3828 230.727 93.8438 232.078 93.8438 234.234C93.8438 235.703 93.0938 236.906 91.7891 237.414L93.5703 240.539C93.7422 240.828 93.7891 241 93.7891 241.234C93.7891 241.766 93.3516 242.156 92.7734 242.156C92.2969 242.156 92.0625 241.984 91.75 241.43L89.7422 237.758H87.4844V241.109C87.4844 241.766 87.1016 242.156 86.4766 242.156ZM87.4844 236.211H89.7578C91.0391 236.211 91.7812 235.5 91.7812 234.281C91.7812 233.094 90.9922 232.359 89.7188 232.359H87.4844V236.211Z" fill="white"/>
<rect y="270" width="150" height="60" rx="6" fill="#F57032"/>
<path d="M38.7109 306.188C36.4609 306.188 34.9609 305.25 34.5234 303.969C34.4531 303.781 34.4141 303.578 34.4141 303.391C34.4141 302.828 34.7734 302.469 35.3047 302.469C35.75 302.469 36.0312 302.648 36.25 303.102C36.6016 304.078 37.5703 304.516 38.7734 304.516C40.1328 304.516 41.0859 303.844 41.0859 302.906C41.0859 302.094 40.5234 301.594 39.0547 301.289L37.8438 301.039C35.5859 300.578 34.5312 299.516 34.5312 297.867C34.5312 295.883 36.2734 294.539 38.7188 294.539C40.7109 294.539 42.2578 295.43 42.7188 296.922C42.7656 297.047 42.7891 297.195 42.7891 297.383C42.7891 297.875 42.4375 298.211 41.9141 298.211C41.4453 298.211 41.1562 298.008 40.9453 297.57C40.5625 296.617 39.7578 296.211 38.7031 296.211C37.4531 296.211 36.5625 296.805 36.5625 297.75C36.5625 298.516 37.125 299.008 38.5312 299.305L39.7422 299.555C42.1172 300.047 43.1172 301 43.1172 302.672C43.1172 304.828 41.4219 306.188 38.7109 306.188ZM50.3672 294.164C50.0391 294.164 49.75 293.922 49.75 293.633C49.75 293.484 49.7969 293.375 49.8828 293.25L50.8125 291.945C51.0469 291.617 51.2031 291.516 51.4922 291.516C51.875 291.516 52.1406 291.758 52.1406 292.117C52.1406 292.273 52.0859 292.422 51.9531 292.578L50.9688 293.812C50.7422 294.086 50.625 294.164 50.3672 294.164ZM46.4375 296.68C46.1016 296.68 45.8594 296.445 45.8594 296.117C45.8594 295.961 45.9141 295.828 46.0625 295.664L47.1719 294.477C47.4141 294.188 47.6875 294.078 48.1016 294.078C48.5156 294.078 48.7891 294.188 49.0312 294.477L50.1406 295.664C50.2891 295.828 50.3438 295.961 50.3438 296.117C50.3438 296.445 50.1016 296.68 49.7656 296.68C49.5469 296.68 49.4062 296.602 49.1797 296.344L48.125 295.195H48.0781L47.0234 296.344C46.7969 296.602 46.6562 296.68 46.4375 296.68ZM48.1016 306.164C45.6719 306.164 44.0938 304.547 44.0938 301.859C44.0938 299.188 45.6875 297.547 48.1016 297.547C50.5156 297.547 52.1094 299.18 52.1094 301.859C52.1094 304.547 50.5312 306.164 48.1016 306.164ZM48.1016 304.625C49.3359 304.625 50.1328 303.625 50.1328 301.859C50.1328 300.102 49.3359 299.094 48.1016 299.094C46.875 299.094 46.0703 300.102 46.0703 301.859C46.0703 303.625 46.8672 304.625 48.1016 304.625ZM57.5625 306.156C57 306.156 56.6172 305.812 56.6172 305.18V295.594C56.6172 294.938 57.0234 294.57 57.5938 294.57C58.1641 294.57 58.5625 294.938 58.5625 295.594V299.141H58.6094C59.0859 298.172 60.0234 297.578 61.2031 297.578C63.2891 297.578 64.6172 299.211 64.6172 301.859C64.6172 304.508 63.2969 306.133 61.1953 306.133C59.9844 306.133 59.0547 305.547 58.5625 304.586H58.5234V305.18C58.5234 305.805 58.125 306.156 57.5625 306.156ZM60.6016 304.539C61.8438 304.539 62.625 303.508 62.625 301.859C62.625 300.219 61.8438 299.18 60.6016 299.18C59.3984 299.18 58.5547 300.25 58.5547 301.859C58.5547 303.484 59.3984 304.539 60.6016 304.539ZM68.7734 306.148C66.9766 306.148 65.8359 304.984 65.8359 303.07V298.578C65.8359 297.93 66.2344 297.555 66.8047 297.555C67.375 297.555 67.7812 297.93 67.7812 298.586V302.68C67.7812 303.867 68.3594 304.508 69.4531 304.508C70.5781 304.508 71.2734 303.711 71.2734 302.508V298.578C71.2734 297.93 71.6797 297.555 72.25 297.555C72.8125 297.555 73.2188 297.93 73.2188 298.586V305.172C73.2188 305.797 72.8438 306.156 72.2891 306.156C71.7266 306.156 71.3438 305.797 71.3438 305.172V304.562H71.3047C70.8672 305.57 70.0312 306.148 68.7734 306.148ZM80.7031 294.578C80.4219 294.578 80.2344 294.406 80.2344 294.172C80.2344 294.008 80.3125 293.898 80.4844 293.75C80.6719 293.57 80.7578 293.391 80.7578 293.172C80.7578 292.867 80.4844 292.625 80.0781 292.625C79.9609 292.625 79.8906 292.633 79.8047 292.648C79.7109 292.664 79.6484 292.68 79.5547 292.68C79.2812 292.68 79.1172 292.539 79.1172 292.289C79.1172 292.125 79.2031 291.984 79.3516 291.883C79.5469 291.742 79.8594 291.656 80.2422 291.656C81.2891 291.656 81.9141 292.203 81.9141 293.109C81.9141 293.648 81.6875 294.102 81.2734 294.375C81.0859 294.508 80.9141 294.578 80.7031 294.578ZM76.8125 296.68C76.4766 296.68 76.2344 296.445 76.2344 296.117C76.2344 295.961 76.2891 295.828 76.4375 295.664L77.5469 294.477C77.7891 294.188 78.0625 294.078 78.4766 294.078C78.8906 294.078 79.1641 294.188 79.4062 294.477L80.5156 295.664C80.6641 295.828 80.7188 295.961 80.7188 296.117C80.7188 296.445 80.4766 296.68 80.1406 296.68C79.9219 296.68 79.7812 296.602 79.5547 296.344L78.5 295.195H78.4531L77.3984 296.344C77.1719 296.602 77.0312 296.68 76.8125 296.68ZM78.4766 306.164C76.0469 306.164 74.4688 304.547 74.4688 301.859C74.4688 299.188 76.0625 297.547 78.4766 297.547C80.8906 297.547 82.4844 299.18 82.4844 301.859C82.4844 304.547 80.9062 306.164 78.4766 306.164ZM78.4766 304.625C79.7109 304.625 80.5078 303.625 80.5078 301.859C80.5078 300.102 79.7109 299.094 78.4766 299.094C77.25 299.094 76.4453 300.102 76.4453 301.859C76.4453 303.625 77.2422 304.625 78.4766 304.625ZM84.75 296.555C84.1484 296.555 83.6719 296.086 83.6719 295.5C83.6719 294.906 84.1484 294.445 84.75 294.445C85.3594 294.445 85.8359 294.906 85.8359 295.5C85.8359 296.086 85.3594 296.555 84.75 296.555ZM84.75 306.156C84.1562 306.156 83.7812 305.766 83.7812 305.133V298.578C83.7812 297.953 84.1562 297.555 84.75 297.555C85.3438 297.555 85.7266 297.953 85.7266 298.586V305.133C85.7266 305.766 85.3438 306.156 84.75 306.156ZM91.5938 306.156C91.0234 306.156 90.6172 305.789 90.6172 305.133V295.57C90.6172 294.953 90.9844 294.57 91.5781 294.57C92.1797 294.57 92.5391 294.953 92.5391 295.57V299.141H92.5781C93.0234 298.133 93.9375 297.562 95.1953 297.562C97.0234 297.562 98.0938 298.766 98.0938 300.664V305.133C98.0938 305.789 97.6875 306.156 97.1172 306.156C96.5469 306.156 96.1484 305.789 96.1484 305.133V301.062C96.1484 299.906 95.5703 299.211 94.4453 299.211C93.2734 299.211 92.5625 300.023 92.5625 301.242V305.133C92.5625 305.789 92.1641 306.156 91.5938 306.156ZM103.32 306.164C100.891 306.164 99.3125 304.547 99.3125 301.859C99.3125 299.188 100.906 297.547 103.32 297.547C105.734 297.547 107.328 299.18 107.328 301.859C107.328 304.547 105.75 306.164 103.32 306.164ZM103.32 304.625C104.555 304.625 105.352 303.625 105.352 301.859C105.352 300.102 104.555 299.094 103.32 299.094C102.094 299.094 101.289 300.102 101.289 301.859C101.289 303.625 102.086 304.625 103.32 304.625ZM103.32 309.375C102.719 309.375 102.234 308.891 102.234 308.289C102.234 307.695 102.719 307.203 103.32 307.203C103.93 307.203 104.406 307.695 104.406 308.289C104.406 308.891 103.93 309.375 103.32 309.375ZM112.219 306.164C109.797 306.164 108.234 304.523 108.234 301.867C108.234 299.227 109.789 297.547 112.203 297.547C113.828 297.547 115.211 298.383 115.609 299.547C115.672 299.711 115.711 299.875 115.711 300.016C115.711 300.5 115.344 300.797 114.875 300.797C114.484 300.797 114.25 300.633 114.023 300.242C113.609 299.484 113.062 299.125 112.258 299.125C111.008 299.125 110.211 300.164 110.211 301.859C110.211 303.578 111.016 304.594 112.25 304.594C113.109 304.594 113.641 304.195 114.016 303.531C114.281 303.094 114.492 302.93 114.914 302.93C115.375 302.93 115.734 303.242 115.734 303.727C115.734 303.875 115.695 304.039 115.617 304.227C115.156 305.359 113.781 306.164 112.219 306.164Z" fill="white"/>
<path d="M0 340C0 336.686 2.68629 334 6 334H144C147.314 334 150 336.686 150 340V382C150 388.627 144.627 394 138 394H12C5.37258 394 0 388.627 0 382V340Z" fill="#F57032"/>
<path d="M26.7656 358C26.1406 358 25.7578 357.609 25.7578 356.953V347.773C25.7578 347.117 26.1406 346.727 26.7656 346.727H29.875C33.2422 346.727 35.2344 348.766 35.2344 352.336C35.2344 355.906 33.25 358 29.875 358H26.7656ZM27.7734 356.297H29.6641C31.9297 356.297 33.1797 354.914 33.1797 352.344C33.1797 349.82 31.9141 348.43 29.6641 348.43H27.7734V356.297ZM39.5391 358.148C37.7422 358.148 36.6016 356.984 36.6016 355.07V350.578C36.6016 349.93 37 349.555 37.5703 349.555C38.1406 349.555 38.5469 349.93 38.5469 350.586V354.68C38.5469 355.867 39.125 356.508 40.2188 356.508C41.3438 356.508 42.0391 355.711 42.0391 354.508V350.734C42.0391 350.086 42.4453 349.719 43.0156 349.719H43.9141C44.3359 349.719 44.5469 349.516 44.5469 349.109V348.586C44.5469 348.078 44.8516 347.758 45.3359 347.758C45.8125 347.758 46.125 348.078 46.125 348.594V349.477C46.125 350.453 45.5078 351.031 44.4609 351.031H43.9844V357.172C43.9844 357.797 43.6094 358.156 43.0547 358.156C42.4922 358.156 42.1094 357.797 42.1094 357.172V356.562H42.0703C41.6328 357.57 40.7969 358.148 39.5391 358.148ZM40.2969 361.375C39.6953 361.375 39.2109 360.891 39.2109 360.289C39.2109 359.695 39.6953 359.203 40.2969 359.203C40.9062 359.203 41.3828 359.695 41.3828 360.289C41.3828 360.891 40.9062 361.375 40.2969 361.375ZM53.4609 348.781C53.0859 348.781 52.8125 348.547 52.8125 348.219C52.8125 348.047 52.8516 347.93 52.9609 347.781L53.9688 346.344C54.2344 345.961 54.4062 345.852 54.7188 345.852C55.1484 345.852 55.4453 346.125 55.4453 346.516C55.4453 346.703 55.375 346.867 55.2344 347.047L54.0859 348.445C53.8672 348.711 53.7344 348.781 53.4609 348.781ZM52.1797 358.133C50.5781 358.133 49.4141 357.125 49.4141 355.633C49.4141 354.164 50.5469 353.281 52.5625 353.156L54.7578 353.031V352.438C54.7578 351.57 54.1719 351.07 53.2109 351.07C52.4531 351.07 51.9609 351.328 51.4766 352.039C51.2734 352.305 51.0156 352.43 50.6875 352.43C50.2109 352.43 49.8672 352.117 49.8672 351.648C49.8672 351.469 49.9141 351.297 50 351.117C50.4219 350.156 51.7031 349.547 53.2891 349.547C55.3438 349.547 56.6797 350.633 56.6797 352.297V357.18C56.6797 357.805 56.2812 358.156 55.7344 358.156C55.2031 358.156 54.8359 357.836 54.8047 357.258V356.68H54.7656C54.2891 357.578 53.25 358.133 52.1797 358.133ZM52.7734 356.664C53.8672 356.664 54.7578 355.93 54.7578 354.93V354.297L52.8359 354.414C51.8984 354.477 51.3594 354.898 51.3594 355.555C51.3594 356.234 51.9297 356.664 52.7734 356.664ZM59.2188 358.156C58.6484 358.156 58.25 357.789 58.25 357.133V350.539C58.25 349.938 58.6016 349.555 59.1797 349.555C59.75 349.555 60.1406 349.938 60.1406 350.539V351.117H60.1797C60.625 350.133 61.4844 349.562 62.7578 349.562C64.5859 349.562 65.625 350.734 65.625 352.648V357.133C65.625 357.789 65.2266 358.156 64.6562 358.156C64.0859 358.156 63.6797 357.789 63.6797 357.133V353.039C63.6797 351.867 63.1328 351.211 62.0234 351.211C60.9062 351.211 60.1953 352.016 60.1953 353.203V357.133C60.1953 357.789 59.7891 358.156 59.2188 358.156ZM74.0312 358.164C71.6094 358.164 70.0469 356.523 70.0469 353.867C70.0469 351.227 71.6016 349.547 74.0156 349.547C75.6406 349.547 77.0234 350.383 77.4219 351.547C77.4844 351.711 77.5234 351.875 77.5234 352.016C77.5234 352.5 77.1562 352.797 76.6875 352.797C76.2969 352.797 76.0625 352.633 75.8359 352.242C75.4219 351.484 74.875 351.125 74.0703 351.125C72.8203 351.125 72.0234 352.164 72.0234 353.859C72.0234 355.578 72.8281 356.594 74.0625 356.594C74.9219 356.594 75.4531 356.195 75.8281 355.531C76.0938 355.094 76.3047 354.93 76.7266 354.93C77.1875 354.93 77.5469 355.242 77.5469 355.727C77.5469 355.875 77.5078 356.039 77.4297 356.227C76.9688 357.359 75.5938 358.164 74.0312 358.164ZM82.5703 348.781C82.1953 348.781 81.9219 348.547 81.9219 348.219C81.9219 348.047 81.9609 347.93 82.0703 347.781L83.0781 346.344C83.3438 345.961 83.5156 345.852 83.8281 345.852C84.2578 345.852 84.5547 346.125 84.5547 346.516C84.5547 346.703 84.4844 346.867 84.3438 347.047L83.1953 348.445C82.9766 348.711 82.8438 348.781 82.5703 348.781ZM81.2891 358.133C79.6875 358.133 78.5234 357.125 78.5234 355.633C78.5234 354.164 79.6562 353.281 81.6719 353.156L83.8672 353.031V352.438C83.8672 351.57 83.2812 351.07 82.3203 351.07C81.5625 351.07 81.0703 351.328 80.5859 352.039C80.3828 352.305 80.125 352.43 79.7969 352.43C79.3203 352.43 78.9766 352.117 78.9766 351.648C78.9766 351.469 79.0234 351.297 79.1094 351.117C79.5312 350.156 80.8125 349.547 82.3984 349.547C84.4531 349.547 85.7891 350.633 85.7891 352.297V357.18C85.7891 357.805 85.3906 358.156 84.8438 358.156C84.3125 358.156 83.9453 357.836 83.9141 357.258V356.68H83.875C83.3984 357.578 82.3594 358.133 81.2891 358.133ZM81.8828 356.664C82.9766 356.664 83.8672 355.93 83.8672 354.93V354.297L81.9453 354.414C81.0078 354.477 80.4688 354.898 80.4688 355.555C80.4688 356.234 81.0391 356.664 81.8828 356.664ZM91.5312 358.156C90.9609 358.156 90.5625 357.789 90.5625 357.133V350.539C90.5625 349.938 90.9141 349.555 91.4922 349.555C92.0625 349.555 92.4531 349.938 92.4531 350.539V351.117H92.4922C92.9375 350.133 93.7969 349.562 95.0703 349.562C96.8984 349.562 97.9375 350.734 97.9375 352.648V357.133C97.9375 357.789 97.5391 358.156 96.9688 358.156C96.3984 358.156 95.9922 357.789 95.9922 357.133V353.039C95.9922 351.867 95.4453 351.211 94.3359 351.211C93.2188 351.211 92.5078 352.016 92.5078 353.203V357.133C92.5078 357.789 92.1016 358.156 91.5312 358.156ZM100.531 358.156C99.9609 358.156 99.5547 357.789 99.5547 357.133V347.57C99.5547 346.953 99.9219 346.57 100.516 346.57C101.117 346.57 101.477 346.953 101.477 347.57V351.141H101.516C101.961 350.133 102.875 349.562 104.133 349.562C105.961 349.562 107.031 350.766 107.031 352.664V357.133C107.031 357.789 106.625 358.156 106.055 358.156C105.484 358.156 105.086 357.789 105.086 357.133V353.062C105.086 351.906 104.508 351.211 103.383 351.211C102.211 351.211 101.5 352.023 101.5 353.242V357.133C101.5 357.789 101.102 358.156 100.531 358.156ZM110.32 348.781C109.977 348.781 109.719 348.531 109.719 348.219C109.719 348.047 109.781 347.93 109.906 347.773L111.102 346.414C111.375 346.086 111.641 345.961 112.07 345.961C112.469 345.961 112.742 346.086 113.016 346.406L114.203 347.773C114.328 347.93 114.398 348.047 114.398 348.219C114.398 348.531 114.141 348.781 113.789 348.781C113.547 348.781 113.398 348.695 113.195 348.453L112.086 347.117H112.031L110.914 348.453C110.719 348.695 110.57 348.781 110.32 348.781ZM111.023 358.133C109.422 358.133 108.258 357.125 108.258 355.633C108.258 354.164 109.391 353.281 111.406 353.156L113.602 353.031V352.438C113.602 351.57 113.016 351.07 112.055 351.07C111.297 351.07 110.805 351.328 110.32 352.039C110.117 352.305 109.859 352.43 109.531 352.43C109.055 352.43 108.711 352.117 108.711 351.648C108.711 351.469 108.758 351.297 108.844 351.117C109.266 350.156 110.547 349.547 112.133 349.547C114.188 349.547 115.523 350.633 115.523 352.297V357.18C115.523 357.805 115.125 358.156 114.578 358.156C114.047 358.156 113.68 357.836 113.648 357.258V356.68H113.609C113.133 357.578 112.094 358.133 111.023 358.133ZM111.617 356.664C112.711 356.664 113.602 355.93 113.602 354.93V354.297L111.68 354.414C110.742 354.477 110.203 354.898 110.203 355.555C110.203 356.234 110.773 356.664 111.617 356.664ZM118.062 358.156C117.492 358.156 117.094 357.789 117.094 357.133V350.539C117.094 349.938 117.445 349.555 118.023 349.555C118.594 349.555 118.984 349.938 118.984 350.539V351.117H119.023C119.469 350.133 120.328 349.562 121.602 349.562C123.43 349.562 124.469 350.734 124.469 352.648V357.133C124.469 357.789 124.07 358.156 123.5 358.156C122.93 358.156 122.523 357.789 122.523 357.133V353.039C122.523 351.867 121.977 351.211 120.867 351.211C119.75 351.211 119.039 352.016 119.039 353.203V357.133C119.039 357.789 118.633 358.156 118.062 358.156ZM66.6484 382.156C66.3281 382.156 66.1406 382.07 65.875 381.789L65.1328 380.992C64.25 381.758 62.9609 382.195 61.6016 382.195C59.2734 382.195 57.7266 380.93 57.7266 379.031C57.7266 377.734 58.3984 376.773 59.8594 375.984C60.0156 375.906 60.2969 375.75 60.3359 375.734C59.3203 374.672 58.9375 373.961 58.9375 373.141C58.9375 371.664 60.2422 370.562 62.0078 370.562C63.7812 370.562 65.0391 371.625 65.0391 373.117C65.0391 374.273 64.3281 375.164 62.7109 376.031L65.0859 378.602C65.375 378.094 65.5703 377.422 65.5781 376.352C65.5859 375.797 65.8672 375.453 66.3984 375.453C66.9297 375.453 67.2266 375.82 67.2266 376.359C67.2266 377.773 66.9062 378.961 66.2812 379.836L67.1172 380.711C67.3672 380.984 67.4375 381.141 67.4375 381.398C67.4375 381.82 67.1094 382.156 66.6484 382.156ZM61.7656 375.07C62.9062 374.484 63.3594 373.961 63.3594 373.234C63.3594 372.469 62.8125 371.93 62.0156 371.93C61.2266 371.93 60.6641 372.484 60.6641 373.242C60.6641 373.797 60.9609 374.281 61.7656 375.07ZM61.7969 380.719C62.6797 380.719 63.5781 380.375 64.0703 379.836L61.2734 376.797C61.1797 376.836 61.0078 376.93 60.9453 376.977C59.9766 377.578 59.5859 378.125 59.5859 378.883C59.5859 379.977 60.4766 380.719 61.7969 380.719ZM73.2031 382.156C72.6406 382.156 72.2578 381.812 72.2578 381.18V371.594C72.2578 370.938 72.6641 370.57 73.2344 370.57C73.8047 370.57 74.2031 370.938 74.2031 371.594V375.141H74.25C74.7266 374.172 75.6641 373.578 76.8438 373.578C78.9297 373.578 80.2578 375.211 80.2578 377.859C80.2578 380.508 78.9375 382.133 76.8359 382.133C75.625 382.133 74.6953 381.547 74.2031 380.586H74.1641V381.18C74.1641 381.805 73.7656 382.156 73.2031 382.156ZM76.2422 380.539C77.4844 380.539 78.2656 379.508 78.2656 377.859C78.2656 376.219 77.4844 375.18 76.2422 375.18C75.0391 375.18 74.1953 376.25 74.1953 377.859C74.1953 379.484 75.0391 380.539 76.2422 380.539ZM84.7266 372.781C84.4609 372.781 84.2891 372.695 84.0859 372.445L82.9297 371.047C82.7891 370.867 82.7266 370.703 82.7266 370.516C82.7266 370.125 83.0156 369.852 83.4375 369.852C83.7578 369.852 83.9219 369.961 84.1953 370.344L85.2109 371.781C85.3125 371.93 85.3516 372.047 85.3516 372.219C85.3516 372.539 85.0859 372.781 84.7266 372.781ZM83.9453 382.133C82.3438 382.133 81.1797 381.125 81.1797 379.633C81.1797 378.164 82.3125 377.281 84.3281 377.156L86.5234 377.031V376.438C86.5234 375.57 85.9375 375.07 84.9766 375.07C84.2188 375.07 83.7266 375.328 83.2422 376.039C83.0391 376.305 82.7812 376.43 82.4531 376.43C81.9766 376.43 81.6328 376.117 81.6328 375.648C81.6328 375.469 81.6797 375.297 81.7656 375.117C82.1875 374.156 83.4688 373.547 85.0547 373.547C87.1094 373.547 88.4453 374.633 88.4453 376.297V381.18C88.4453 381.805 88.0469 382.156 87.5 382.156C86.9688 382.156 86.6016 381.836 86.5703 381.258V380.68H86.5312C86.0547 381.578 85.0156 382.133 83.9453 382.133ZM84.5391 380.664C85.6328 380.664 86.5234 379.93 86.5234 378.93V378.297L84.6016 378.414C83.6641 378.477 83.125 378.898 83.125 379.555C83.125 380.234 83.6953 380.664 84.5391 380.664ZM91.0312 372.555C90.4297 372.555 89.9531 372.086 89.9531 371.5C89.9531 370.906 90.4297 370.445 91.0312 370.445C91.6406 370.445 92.1172 370.906 92.1172 371.5C92.1172 372.086 91.6406 372.555 91.0312 372.555ZM91.0312 382.156C90.4375 382.156 90.0625 381.766 90.0625 381.133V374.578C90.0625 373.953 90.4375 373.555 91.0312 373.555C91.625 373.555 92.0078 373.953 92.0078 374.586V381.133C92.0078 381.766 91.625 382.156 91.0312 382.156Z" fill="white"/>
<path d="M157 20C157 13.3726 162.373 8 169 8H236C242.627 8 248 13.3726 248 20V66C248 69.3137 245.314 72 242 72H163C159.686 72 157 69.3137 157 66V20Z" fill="#FFB356"/>
<path d="M182.594 45C182.115 45 181.828 44.6992 181.828 44.207V35.8193C181.828 35.3271 182.115 35.0264 182.594 35.0264C183.065 35.0264 183.359 35.3271 183.359 35.8193V43.6738H187.352C187.775 43.6738 188.062 43.9336 188.062 44.3369C188.062 44.7402 187.775 45 187.352 45H182.594ZM192.027 45.1367C189.86 45.1367 188.589 43.7627 188.589 41.4385C188.589 39.1553 189.888 37.6787 191.925 37.6787C193.839 37.6787 195.158 39.0596 195.158 41.0215C195.158 41.5 194.885 41.7734 194.427 41.7734H190.079V41.8076C190.079 43.1201 190.817 43.9404 191.993 43.9404C192.8 43.9404 193.306 43.6602 193.853 42.915C194.01 42.7305 194.16 42.6553 194.372 42.6553C194.728 42.6553 194.987 42.8877 194.987 43.2568C194.987 43.373 194.946 43.5098 194.885 43.6533C194.413 44.5967 193.367 45.1367 192.027 45.1367ZM190.086 40.7412H193.682C193.647 39.6133 192.943 38.8682 191.918 38.8682C190.899 38.8682 190.161 39.6201 190.086 40.7412ZM199.034 45.1299C198.508 45.1299 198.221 44.9111 198.016 44.3779L195.883 38.7656C195.835 38.6357 195.801 38.4922 195.801 38.3555C195.801 37.9453 196.115 37.6787 196.546 37.6787C196.888 37.6787 197.12 37.8633 197.243 38.2598L199.027 43.5576H199.055L200.839 38.2461C200.962 37.8633 201.194 37.6787 201.529 37.6787C201.953 37.6787 202.254 37.959 202.254 38.3486C202.254 38.4785 202.227 38.6221 202.179 38.7451L200.046 44.3779C199.854 44.8975 199.54 45.1299 199.034 45.1299ZM206.164 45.1367C203.997 45.1367 202.726 43.7627 202.726 41.4385C202.726 39.1553 204.024 37.6787 206.062 37.6787C207.976 37.6787 209.295 39.0596 209.295 41.0215C209.295 41.5 209.021 41.7734 208.563 41.7734H204.216V41.8076C204.216 43.1201 204.954 43.9404 206.13 43.9404C206.937 43.9404 207.442 43.6602 207.989 42.915C208.146 42.7305 208.297 42.6553 208.509 42.6553C208.864 42.6553 209.124 42.8877 209.124 43.2568C209.124 43.373 209.083 43.5098 209.021 43.6533C208.55 44.5967 207.504 45.1367 206.164 45.1367ZM204.223 40.7412H207.818C207.784 39.6133 207.08 38.8682 206.055 38.8682C205.036 38.8682 204.298 39.6201 204.223 40.7412ZM211.236 45.1299C210.806 45.1299 210.498 44.8359 210.498 44.3506V35.7852C210.498 35.2998 210.806 35.0059 211.236 35.0059C211.667 35.0059 211.975 35.2998 211.975 35.7852V44.3506C211.975 44.8359 211.667 45.1299 211.236 45.1299ZM219.815 45.1846C218.195 45.1846 217.095 44.5557 216.548 43.5576C216.411 43.3047 216.35 43.0654 216.35 42.8193C216.35 42.4092 216.609 42.1426 217.04 42.1426C217.368 42.1426 217.56 42.293 217.717 42.6484C218.052 43.4346 218.694 43.9062 219.822 43.9062C221.019 43.9062 221.825 43.2227 221.832 42.2656C221.839 41.1377 221.025 40.5088 219.706 40.5088H219.05C218.66 40.5088 218.414 40.2695 218.414 39.9141C218.414 39.5586 218.66 39.3193 219.05 39.3193H219.665C220.793 39.3193 221.559 38.6494 221.559 37.7334C221.559 36.8174 220.971 36.209 219.802 36.209C218.804 36.209 218.243 36.626 217.901 37.4463C217.737 37.8428 217.573 37.9863 217.211 37.9863C216.78 37.9863 216.548 37.7402 216.548 37.3301C216.548 37.0635 216.603 36.8379 216.732 36.585C217.225 35.6074 218.298 34.9512 219.802 34.9512C221.812 34.9512 223.049 36.0518 223.049 37.5215C223.049 38.752 222.181 39.5859 220.971 39.8389V39.873C222.42 40.0029 223.391 40.8848 223.391 42.2656C223.391 44.002 221.873 45.1846 219.815 45.1846Z" fill="white"/>
<path d="M252 12C252 5.37258 257.373 0 264 0H331C337.627 0 343 5.37258 343 12V66C343 69.3137 340.314 72 337 72H258C254.686 72 252 69.3137 252 66V12Z" fill="#FF9D35"/>
<path d="M277.491 41C277.013 41 276.726 40.6992 276.726 40.207V31.8193C276.726 31.3271 277.013 31.0264 277.491 31.0264C277.963 31.0264 278.257 31.3271 278.257 31.8193V39.6738H282.249C282.673 39.6738 282.96 39.9336 282.96 40.3369C282.96 40.7402 282.673 41 282.249 41H277.491ZM286.925 41.1367C284.758 41.1367 283.486 39.7627 283.486 37.4385C283.486 35.1553 284.785 33.6787 286.822 33.6787C288.736 33.6787 290.056 35.0596 290.056 37.0215C290.056 37.5 289.782 37.7734 289.324 37.7734H284.977V37.8076C284.977 39.1201 285.715 39.9404 286.891 39.9404C287.697 39.9404 288.203 39.6602 288.75 38.915C288.907 38.7305 289.058 38.6553 289.27 38.6553C289.625 38.6553 289.885 38.8877 289.885 39.2568C289.885 39.373 289.844 39.5098 289.782 39.6533C289.311 40.5967 288.265 41.1367 286.925 41.1367ZM284.983 36.7412H288.579C288.545 35.6133 287.841 34.8682 286.815 34.8682C285.797 34.8682 285.059 35.6201 284.983 36.7412ZM293.932 41.1299C293.405 41.1299 293.118 40.9111 292.913 40.3779L290.78 34.7656C290.732 34.6357 290.698 34.4922 290.698 34.3555C290.698 33.9453 291.013 33.6787 291.443 33.6787C291.785 33.6787 292.018 33.8633 292.141 34.2598L293.925 39.5576H293.952L295.736 34.2461C295.859 33.8633 296.092 33.6787 296.427 33.6787C296.851 33.6787 297.151 33.959 297.151 34.3486C297.151 34.4785 297.124 34.6221 297.076 34.7451L294.943 40.3779C294.752 40.8975 294.438 41.1299 293.932 41.1299ZM301.062 41.1367C298.895 41.1367 297.623 39.7627 297.623 37.4385C297.623 35.1553 298.922 33.6787 300.959 33.6787C302.873 33.6787 304.192 35.0596 304.192 37.0215C304.192 37.5 303.919 37.7734 303.461 37.7734H299.113V37.8076C299.113 39.1201 299.852 39.9404 301.027 39.9404C301.834 39.9404 302.34 39.6602 302.887 38.915C303.044 38.7305 303.194 38.6553 303.406 38.6553C303.762 38.6553 304.021 38.8877 304.021 39.2568C304.021 39.373 303.98 39.5098 303.919 39.6533C303.447 40.5967 302.401 41.1367 301.062 41.1367ZM299.12 36.7412H302.716C302.682 35.6133 301.978 34.8682 300.952 34.8682C299.934 34.8682 299.195 35.6201 299.12 36.7412ZM306.134 41.1299C305.703 41.1299 305.396 40.8359 305.396 40.3506V31.7852C305.396 31.2998 305.703 31.0059 306.134 31.0059C306.564 31.0059 306.872 31.2998 306.872 31.7852V40.3506C306.872 40.8359 306.564 41.1299 306.134 41.1299ZM316.688 41.1299C316.265 41.1299 315.957 40.8359 315.957 40.3643V39.0381H311.896C311.35 39.0381 311.001 38.6963 311.001 38.1699C311.001 37.8213 311.083 37.5479 311.343 37.0967C312.04 35.8457 313.264 34.0137 314.535 32.168C315.137 31.2793 315.526 31.0059 316.169 31.0059C316.969 31.0059 317.427 31.4229 317.427 32.1611V37.7529H318.206C318.609 37.7529 318.876 38.0127 318.876 38.3955C318.876 38.7783 318.609 39.0381 318.206 39.0381H317.427V40.3643C317.427 40.8359 317.119 41.1299 316.688 41.1299ZM315.971 37.7734V32.3594H315.943C314.269 34.7588 313.236 36.3037 312.437 37.7324V37.7734H315.971Z" fill="white"/>
<rect x="157" y="78" width="186" height="60" rx="6" fill="#FFEFD0"/>
<path d="M241.68 114.227C239.922 114.227 238.531 113.367 237.75 111.719C237.336 110.852 237.125 109.773 237.125 108.492C237.125 104.734 238.844 102.492 241.711 102.492C243.43 102.492 244.742 103.242 245.305 104.312C245.43 104.539 245.484 104.734 245.484 104.953C245.484 105.414 245.156 105.766 244.625 105.766C244.227 105.766 243.977 105.578 243.664 105.18C243.141 104.461 242.539 104.133 241.703 104.133C240 104.133 239.094 105.703 239.055 108.297V108.414H239.094C239.539 107.375 240.664 106.594 242.195 106.594C244.367 106.594 245.891 108.156 245.891 110.289C245.891 112.578 244.117 114.227 241.68 114.227ZM241.648 112.586C242.906 112.586 243.906 111.602 243.906 110.367C243.914 109.07 242.969 108.148 241.672 108.148C240.375 108.148 239.398 109.07 239.398 110.328C239.398 111.594 240.391 112.586 241.648 112.586ZM248.219 110.289C247.688 110.289 247.289 109.961 247.289 109.422C247.289 108.883 247.688 108.555 248.219 108.555H251.75C252.289 108.555 252.68 108.883 252.68 109.422C252.68 109.961 252.289 110.289 251.75 110.289H248.219ZM258.234 114.227C256.391 114.227 255.102 113.328 254.633 112.383C254.523 112.156 254.469 111.969 254.469 111.766C254.469 111.297 254.781 110.953 255.32 110.953C255.727 110.953 255.977 111.141 256.289 111.539C256.82 112.25 257.359 112.594 258.297 112.594C260.039 112.594 260.906 110.984 260.93 108.43V108.305H260.898C260.469 109.398 259.305 110.133 257.844 110.133C255.734 110.133 254.102 108.617 254.102 106.438C254.102 104.141 255.875 102.492 258.312 102.492C260.07 102.492 261.469 103.359 262.242 105C262.648 105.867 262.867 106.945 262.867 108.234C262.867 112 261.141 114.227 258.234 114.227ZM258.312 108.57C259.617 108.57 260.594 107.656 260.594 106.398C260.594 105.133 259.609 104.148 258.336 104.148C257.078 104.148 256.078 105.125 256.078 106.359C256.078 107.648 257.031 108.57 258.312 108.57Z" fill="#57595C"/>
<rect x="157" y="142" width="186" height="60" rx="6" fill="#FFEFD0"/>
<path d="M225.711 178.133C225.141 178.133 224.805 177.781 224.805 177.188V167.875C224.805 167.078 225.297 166.594 226.102 166.594C226.797 166.594 227.195 166.891 227.492 167.641L230.594 175.234H230.656L233.75 167.641C234.047 166.898 234.453 166.594 235.156 166.594C235.961 166.594 236.438 167.07 236.438 167.875V177.188C236.438 177.781 236.102 178.133 235.531 178.133C234.961 178.133 234.625 177.781 234.625 177.188V170H234.57L231.578 177.25C231.383 177.719 231.094 177.93 230.625 177.93C230.164 177.93 229.859 177.719 229.672 177.258L226.68 170H226.625V177.188C226.625 177.781 226.281 178.133 225.711 178.133ZM241.898 178.164C239.469 178.164 237.891 176.547 237.891 173.859C237.891 171.188 239.484 169.547 241.898 169.547C244.312 169.547 245.906 171.18 245.906 173.859C245.906 176.547 244.328 178.164 241.898 178.164ZM241.898 176.625C243.133 176.625 243.93 175.625 243.93 173.859C243.93 172.102 243.133 171.094 241.898 171.094C240.672 171.094 239.867 172.102 239.867 173.859C239.867 175.625 240.664 176.625 241.898 176.625ZM250.25 178.156C249.531 178.156 249.141 177.867 248.883 177.164L246.555 170.992C246.492 170.82 246.445 170.625 246.445 170.438C246.445 169.906 246.859 169.555 247.422 169.555C247.883 169.555 248.195 169.805 248.344 170.328L250.234 176.195H250.273L252.164 170.312C252.312 169.797 252.625 169.555 253.078 169.555C253.625 169.555 254.023 169.93 254.023 170.43C254.023 170.609 253.984 170.797 253.922 170.961L251.594 177.164C251.352 177.844 250.938 178.156 250.25 178.156ZM258.57 178.164C256.039 178.164 254.547 176.578 254.547 173.891C254.547 171.25 256.07 169.547 258.461 169.547C260.727 169.547 262.273 171.156 262.273 173.406C262.273 173.984 261.945 174.328 261.367 174.328H256.484V174.391C256.484 175.773 257.289 176.664 258.555 176.664C259.43 176.664 260 176.359 260.625 175.562C260.828 175.336 261.008 175.25 261.281 175.25C261.719 175.25 262.062 175.531 262.062 176C262.062 176.148 262.016 176.32 261.93 176.492C261.383 177.547 260.148 178.164 258.57 178.164ZM256.5 173.047H260.367C260.328 171.844 259.562 171.055 258.469 171.055C257.375 171.055 256.578 171.859 256.5 173.047ZM264.5 178.156C263.914 178.156 263.531 177.773 263.531 177.133V170.539C263.531 169.93 263.906 169.555 264.461 169.555C265 169.555 265.383 169.93 265.383 170.539V171.172H265.422C265.648 170.203 266.367 169.578 267.195 169.578C267.5 169.578 267.734 169.656 267.883 169.789C268.062 169.938 268.156 170.172 268.156 170.492C268.156 170.797 268.062 171.023 267.867 171.18C267.68 171.344 267.391 171.43 267.008 171.438C265.898 171.445 265.477 172.141 265.477 173.148V177.133C265.477 177.773 265.086 178.156 264.5 178.156ZM272.227 178.164C270.477 178.164 269.25 177.492 268.852 176.5C268.797 176.359 268.773 176.234 268.773 176.117C268.773 175.648 269.117 175.352 269.586 175.352C269.906 175.352 270.18 175.5 270.43 175.828C270.867 176.461 271.367 176.742 272.297 176.742C273.203 176.742 273.805 176.359 273.805 175.734C273.805 175.234 273.492 174.961 272.641 174.766L271.297 174.461C269.68 174.094 268.883 173.297 268.883 172.094C268.883 170.555 270.211 169.547 272.258 169.547C273.852 169.547 275.086 170.328 275.344 171.281C275.367 171.383 275.383 171.477 275.383 171.57C275.383 171.977 275.125 172.266 274.633 172.266C274.352 172.266 274.07 172.164 273.891 171.906C273.508 171.336 273.031 170.977 272.211 170.977C271.359 170.977 270.773 171.391 270.773 171.984C270.773 172.469 271.133 172.797 271.992 172.992L273.312 173.281C275.062 173.68 275.758 174.312 275.758 175.539C275.758 177.125 274.336 178.164 272.227 178.164Z" fill="#57595C"/>
<rect x="157" y="206" width="186" height="60" rx="6" fill="#FFEFD0"/>
<path d="M242.727 242.133C242.109 242.133 241.711 241.773 241.711 241.203C241.711 241.047 241.75 240.828 241.844 240.586L245.117 231.688C245.391 230.938 245.844 230.594 246.578 230.594C247.32 230.594 247.773 230.922 248.055 231.68L251.336 240.586C251.43 240.844 251.469 241.023 251.469 241.203C251.469 241.75 251.047 242.133 250.461 242.133C249.914 242.133 249.609 241.883 249.43 241.281L248.688 239.125H244.477L243.734 241.266C243.547 241.875 243.25 242.133 242.727 242.133ZM244.953 237.531H248.195L246.594 232.719H246.539L244.953 237.531ZM255.953 242.156C255.367 242.156 254.961 241.75 254.961 241.141V232.68H254.922L253.102 233.945C252.906 234.086 252.75 234.141 252.531 234.141C252.109 234.141 251.805 233.836 251.805 233.391C251.805 233.078 251.93 232.844 252.266 232.609L254.57 230.992C255.07 230.641 255.383 230.57 255.805 230.57C256.516 230.57 256.945 231 256.945 231.695V241.141C256.945 241.75 256.539 242.156 255.953 242.156Z" fill="#57595C"/>
<rect x="157" y="270" width="91" height="60" rx="6" fill="#FFEFD0"/>
<path d="M197.602 306.227C195.844 306.227 194.453 305.367 193.672 303.719C193.258 302.852 193.047 301.773 193.047 300.492C193.047 296.734 194.766 294.492 197.633 294.492C199.352 294.492 200.664 295.242 201.227 296.312C201.352 296.539 201.406 296.734 201.406 296.953C201.406 297.414 201.078 297.766 200.547 297.766C200.148 297.766 199.898 297.578 199.586 297.18C199.062 296.461 198.461 296.133 197.625 296.133C195.922 296.133 195.016 297.703 194.977 300.297V300.414H195.016C195.461 299.375 196.586 298.594 198.117 298.594C200.289 298.594 201.812 300.156 201.812 302.289C201.812 304.578 200.039 306.227 197.602 306.227ZM197.57 304.586C198.828 304.586 199.828 303.602 199.828 302.367C199.836 301.07 198.891 300.148 197.594 300.148C196.297 300.148 195.32 301.07 195.32 302.328C195.32 303.594 196.312 304.586 197.57 304.586ZM207.523 306.227C204.742 306.227 203.086 303.969 203.086 300.352C203.086 296.75 204.758 294.5 207.523 294.5C210.281 294.5 211.945 296.734 211.945 300.344C211.945 303.953 210.297 306.227 207.523 306.227ZM207.523 304.578C209.047 304.578 209.914 303.023 209.914 300.352C209.914 297.711 209.031 296.148 207.523 296.148C206.008 296.148 205.117 297.719 205.117 300.344C205.117 303.016 205.992 304.578 207.523 304.578Z" fill="#57595C"/>
<path d="M157 340C157 336.686 159.686 334 163 334H242C245.314 334 248 336.686 248 340V382C248 388.627 242.627 394 236 394H169C162.373 394 157 388.627 157 382V340Z" fill="#FFEFD0"/>
<path d="M202.5 370.227C199.914 370.227 198.109 368.875 198.109 366.953C198.109 365.492 199.148 364.375 200.656 364.07V364.023C199.359 363.68 198.516 362.719 198.516 361.508C198.516 359.773 200.172 358.5 202.5 358.5C204.828 358.5 206.477 359.766 206.477 361.516C206.477 362.711 205.641 363.664 204.344 364.023V364.07C205.852 364.383 206.898 365.5 206.898 366.953C206.898 368.883 205.078 370.227 202.5 370.227ZM202.5 363.383C203.664 363.383 204.492 362.695 204.492 361.711C204.492 360.711 203.664 360.023 202.5 360.023C201.328 360.023 200.508 360.719 200.508 361.711C200.508 362.695 201.328 363.383 202.5 363.383ZM202.5 368.688C203.852 368.688 204.805 367.898 204.805 366.805C204.805 365.703 203.852 364.922 202.5 364.922C201.148 364.922 200.195 365.711 200.195 366.805C200.195 367.898 201.148 368.688 202.5 368.688Z" fill="#57595C"/>
<rect x="252" y="270" width="91" height="60" rx="6" fill="#FFEFD0"/>
<path d="M292.602 306.227C290.844 306.227 289.453 305.367 288.672 303.719C288.258 302.852 288.047 301.773 288.047 300.492C288.047 296.734 289.766 294.492 292.633 294.492C294.352 294.492 295.664 295.242 296.227 296.312C296.352 296.539 296.406 296.734 296.406 296.953C296.406 297.414 296.078 297.766 295.547 297.766C295.148 297.766 294.898 297.578 294.586 297.18C294.062 296.461 293.461 296.133 292.625 296.133C290.922 296.133 290.016 297.703 289.977 300.297V300.414H290.016C290.461 299.375 291.586 298.594 293.117 298.594C295.289 298.594 296.812 300.156 296.812 302.289C296.812 304.578 295.039 306.227 292.602 306.227ZM292.57 304.586C293.828 304.586 294.828 303.602 294.828 302.367C294.836 301.07 293.891 300.148 292.594 300.148C291.297 300.148 290.32 301.07 290.32 302.328C290.32 303.594 291.312 304.586 292.57 304.586ZM302.523 306.227C299.742 306.227 298.086 303.969 298.086 300.352C298.086 296.75 299.758 294.5 302.523 294.5C305.281 294.5 306.945 296.734 306.945 300.344C306.945 303.953 305.297 306.227 302.523 306.227ZM302.523 304.578C304.047 304.578 304.914 303.023 304.914 300.352C304.914 297.711 304.031 296.148 302.523 296.148C301.008 296.148 300.117 297.719 300.117 300.344C300.117 303.016 300.992 304.578 302.523 304.578Z" fill="#57595C"/>
<path d="M252 340C252 336.686 254.686 334 258 334H337C340.314 334 343 336.686 343 340V382C343 388.627 337.627 394 331 394H264C257.373 394 252 388.627 252 382V340Z" fill="#FFEFD0"/>
<path d="M297.5 370.227C294.914 370.227 293.109 368.875 293.109 366.953C293.109 365.492 294.148 364.375 295.656 364.07V364.023C294.359 363.68 293.516 362.719 293.516 361.508C293.516 359.773 295.172 358.5 297.5 358.5C299.828 358.5 301.477 359.766 301.477 361.516C301.477 362.711 300.641 363.664 299.344 364.023V364.07C300.852 364.383 301.898 365.5 301.898 366.953C301.898 368.883 300.078 370.227 297.5 370.227ZM297.5 363.383C298.664 363.383 299.492 362.695 299.492 361.711C299.492 360.711 298.664 360.023 297.5 360.023C296.328 360.023 295.508 360.719 295.508 361.711C295.508 362.695 296.328 363.383 297.5 363.383ZM297.5 368.688C298.852 368.688 299.805 367.898 299.805 366.805C299.805 365.703 298.852 364.922 297.5 364.922C296.148 364.922 295.195 365.711 295.195 366.805C295.195 367.898 296.148 368.688 297.5 368.688Z" fill="#57595C"/>
</svg>
