<svg width="375" height="379" viewBox="0 0 375 379" fill="none" xmlns="http://www.w3.org/2000/svg">
<path opacity="0.3" d="M-256.5 80.0285C-368.5 82.0285 -516.167 45.5285 -576 27.0285V592.5H950.5V80.0285C950 66.6951 918.4 34.5283 796 12.5283C643 -14.9717 542.5 47.0285 406 59.0285C269.5 71.0285 217.5 -1.47148 62 5.02852C-93.5 11.5285 -116.5 77.5285 -256.5 80.0285Z" fill="url(#paint0_linear_108_10010)"/>
<path opacity="0.3" d="M-276 42.0275C-372.8 86.4276 -516.333 96.5275 -576 96.0275L-575.5 630.5H935L934.5 0.0276654C833.5 0.0276654 827.5 39.5278 708 49.0278C588.5 58.5278 496.5 1.52767 381 0.0276654C265.5 -1.47233 171.5 58.5275 79.5 57.5275C-12.5 56.5275 -155 -13.4725 -276 42.0275Z" fill="url(#paint1_linear_108_10010)"/>
<path opacity="0.3" d="M-174.017 42.7721C-276.861 79.255 -484.857 78.687 -576 73.8427V493H952V73.8427C801.5 73.8427 683.251 17.4146 556.278 14.2074C397.561 10.1983 269.5 65.8245 184.456 51.2915C99.4111 36.7585 -45.4611 -2.83146 -174.017 42.7721Z" fill="url(#paint2_linear_108_10010)"/>
<circle cx="206.5" cy="1361.5" r="1015.5" fill="white"/>
<g clip-path="url(#clip0_108_10010)">
<path fill-rule="evenodd" clip-rule="evenodd" d="M233.711 358.917H239.267V297.06H240.3V277.69L237.664 276.332V270.658C235.25 267.489 234.839 266.584 233.711 264.479V278.111C235.324 278.564 236.758 280.775 237.053 283.438C237.38 286.428 236.157 288.849 234.312 288.849C234.112 288.849 233.911 288.817 233.711 288.765V358.917ZM233.711 284.249V282.575L233.838 283.027L236.273 281.354L233.964 283.501L234.28 284.68L233.785 284.712L233.711 284.238V284.249ZM217.539 358.917H233.711V288.765C232.098 288.312 230.664 286.101 230.369 283.438C230.042 280.448 231.265 278.027 233.11 278.027C233.31 278.027 233.511 278.059 233.711 278.111V264.479C233.258 263.637 232.688 262.594 231.824 261.142V254.741C235.134 255.194 231.118 251.467 229.273 248.699C227.438 245.951 225.625 239.424 225.688 235.108V234.982C225.688 234.245 225.52 233.613 225.277 233.287C225.52 233.097 225.688 232.718 225.688 232.276C225.688 231.645 225.34 231.129 224.908 231.129C224.476 231.129 224.128 231.645 224.128 232.276C224.128 232.708 224.297 233.087 224.539 233.287C224.297 233.613 224.128 234.255 224.128 234.982C224.128 235.034 224.128 235.087 224.128 235.14C224.191 239.372 223.19 242.361 220.66 248.151C219.279 251.288 217.961 253.088 217.539 254.015V254.741C217.75 254.868 218.214 254.857 219.026 254.741V261.142C218.404 262.194 217.929 263.026 217.539 263.731V278.206C217.718 278.185 217.908 278.164 218.098 278.164C220.691 278.164 222.547 280.648 222.241 283.722C221.956 286.575 219.911 288.923 217.539 289.238V358.907V358.917ZM233.711 282.575V284.249L233.637 283.806L232.952 284.459L232.615 283.912L233.532 283.27L233.015 280.101L233.711 282.575ZM217.539 284.996V280.448L217.76 283.354L221.197 281.891L217.792 283.828L217.866 284.996H217.539ZM211.583 358.917H217.539V289.249C217.36 289.27 217.17 289.291 216.98 289.291C214.387 289.291 212.531 286.807 212.837 283.733C213.122 280.88 215.167 278.532 217.539 278.217V263.742C216.074 266.416 215.873 267.153 213.185 270.669V276.774L210.549 277.701V297.071H211.583V358.928V358.917ZM217.539 254.015C217.37 254.394 217.349 254.625 217.539 254.741V254.015ZM217.539 280.48V284.996H217.244L217.318 284.091L216.306 284.68L216.042 284.122L217.339 283.564L217.55 280.49L217.539 280.48Z" fill="white"/>
<path fill-rule="evenodd" clip-rule="evenodd" d="M148.455 355.752H154.643V272.935H156.435V265.166H153.441V258.597H154.843V254.808H153.241V251.229H149.857V254.808H148.254V258.597H149.657V265.166H146.663V272.935H148.455V355.752Z" fill="white"/>
<path fill-rule="evenodd" clip-rule="evenodd" d="M274.921 368.41H296.923V275.677H296.354V268.729H295.5L294.646 262.023L293.792 268.729H292.938V275.677H292.369V281.667H292C292 280.277 291.536 279.004 290.745 277.983C290.809 277.677 290.84 277.372 290.84 277.046C290.84 274.614 289.058 272.593 286.718 272.224L285.948 266.192L285.179 272.224C282.838 272.593 281.057 274.614 281.057 277.046C281.057 277.361 281.088 277.677 281.152 277.983C280.361 279.004 279.897 280.277 279.897 281.667H279.528V275.677H278.959V268.729H278.105L277.251 262.023L276.397 268.729H275.543V275.677H274.974V368.421L274.921 368.41Z" fill="white"/>
<path fill-rule="evenodd" clip-rule="evenodd" d="M247.711 365.388H268.385V321.658C268.385 271.707 247.711 269.707 247.711 321.658V365.388Z" fill="white"/>
<path d="M182.138 279.757C183.413 279.757 184.499 278.925 184.879 277.778L184.383 275.062C183.856 274.409 183.044 273.988 182.138 273.988C181.231 273.988 180.419 274.409 179.892 275.062L179.397 277.778C179.776 278.925 180.862 279.757 182.138 279.757ZM180.103 275.062H184.162L184.657 277.778H182.602V278.862H181.663V277.778H179.608L180.103 275.062Z" fill="white"/>
<path d="M182.138 272.271C159.714 272.271 141.539 290.42 141.539 312.822C141.539 335.224 159.714 353.372 182.138 353.372C204.561 353.372 222.747 335.224 222.747 312.822C222.747 290.42 204.572 272.271 182.138 272.271ZM182.138 352.677C160.094 352.677 142.235 334.834 142.235 312.822C142.235 290.81 160.104 272.966 182.138 272.966C204.182 272.966 222.051 290.81 222.051 312.822C222.051 334.834 204.182 352.677 182.138 352.677Z" fill="white"/>
<path d="M193.502 281.45C194.778 281.45 195.864 280.619 196.243 279.471L195.748 276.755C195.221 276.103 194.409 275.682 193.502 275.682C192.596 275.682 191.784 276.103 191.257 276.755L190.761 279.471C191.141 280.619 192.227 281.45 193.502 281.45ZM191.478 276.745H195.537L196.033 279.461H193.966V280.545H193.028V279.461H190.972L191.468 276.745H191.478Z" fill="white"/>
<path d="M203.18 286.4C204.456 286.4 205.542 285.568 205.921 284.421L205.426 281.705C204.899 281.052 204.087 280.631 203.18 280.631C202.274 280.631 201.462 281.052 200.935 281.705L200.439 284.421C200.819 285.568 201.905 286.4 203.18 286.4ZM201.156 281.705H205.215L205.711 284.421H203.655V285.505H202.716V284.421H200.661L201.156 281.705Z" fill="white"/>
<path d="M211.161 294.493C212.437 294.493 213.522 293.662 213.902 292.514L213.406 289.798C212.879 289.146 212.068 288.725 211.161 288.725C210.254 288.725 209.443 289.146 208.915 289.798L208.42 292.514C208.799 293.662 209.885 294.493 211.161 294.493ZM209.137 289.798H213.196L213.691 292.514H211.635V293.599H210.697V292.514H208.641L209.137 289.798Z" fill="white"/>
<path d="M216.242 303.79C217.518 303.79 218.604 302.959 218.983 301.811L218.488 299.095C217.961 298.443 217.149 298.021 216.242 298.021C215.336 298.021 214.524 298.443 213.997 299.095L213.501 301.811C213.881 302.959 214.967 303.79 216.242 303.79ZM214.218 299.095H218.277L218.773 301.811H216.717V302.896H215.779V301.811H213.723L214.218 299.095Z" fill="white"/>
<path d="M220.428 311.054C219.901 310.402 219.089 309.98 218.182 309.98C217.276 309.98 216.464 310.402 215.937 311.054L215.441 313.77C215.821 314.918 216.907 315.749 218.182 315.749C219.458 315.749 220.544 314.918 220.923 313.77L220.428 311.054ZM218.646 313.77V314.855H217.708V313.77H215.652L216.147 311.054H220.206L220.702 313.77H218.646Z" fill="white"/>
<path d="M216.611 320.611C215.705 320.611 214.893 321.032 214.366 321.685L213.87 324.401C214.25 325.549 215.336 326.38 216.611 326.38C217.887 326.38 218.973 325.549 219.352 324.401L218.857 321.685C218.33 321.032 217.518 320.611 216.611 320.611ZM219.141 324.401H217.075V325.485H216.137V324.401H214.071L214.566 321.685H218.625L219.12 324.401H219.141Z" fill="white"/>
<path d="M211.161 331.002C210.254 331.002 209.443 331.423 208.915 332.076L208.42 334.792C208.799 335.939 209.885 336.771 211.161 336.771C212.437 336.771 213.522 335.939 213.902 334.792L213.406 332.076C212.879 331.423 212.068 331.002 211.161 331.002ZM213.691 334.792H211.635V335.876H210.697V334.792H208.641L209.137 332.076H213.196L213.691 334.792Z" fill="white"/>
<path d="M202.695 339.328C201.789 339.328 200.977 339.749 200.45 340.402L199.954 343.118C200.334 344.265 201.42 345.097 202.695 345.097C203.971 345.097 205.057 344.265 205.436 343.118L204.941 340.402C204.414 339.749 203.602 339.328 202.695 339.328ZM205.226 343.118H203.17V344.202H202.231V343.118H200.176L200.671 340.402H204.73L205.226 343.118Z" fill="white"/>
<path d="M192.901 344.402C191.995 344.402 191.183 344.823 190.656 345.476L190.16 348.192C190.54 349.34 191.626 350.171 192.901 350.171C194.177 350.171 195.263 349.34 195.642 348.192L195.147 345.476C194.62 344.823 193.808 344.402 192.901 344.402ZM195.432 348.192H193.376V349.266H192.438V348.192H190.382L190.877 345.476H194.936L195.432 348.192Z" fill="white"/>
<path d="M170.72 281.45C171.996 281.45 173.082 280.619 173.461 279.471L172.966 276.755C172.439 276.103 171.627 275.682 170.72 275.682C169.814 275.682 169.002 276.103 168.475 276.755L167.979 279.471C168.359 280.619 169.445 281.45 170.72 281.45ZM168.686 276.745H172.744L173.24 279.461H171.184V280.545H170.246V279.461H168.19L168.686 276.745Z" fill="white"/>
<path d="M161.042 286.4C162.318 286.4 163.404 285.568 163.783 284.421L163.288 281.705C162.761 281.052 161.949 280.631 161.042 280.631C160.136 280.631 159.324 281.052 158.797 281.705L158.301 284.421C158.681 285.568 159.767 286.4 161.042 286.4ZM159.008 281.705H163.067L163.562 284.421H161.506V285.505H160.568V284.421H158.512L159.008 281.705Z" fill="white"/>
<path d="M153.062 294.493C154.337 294.493 155.423 293.662 155.803 292.514L155.307 289.798C154.78 289.146 153.968 288.725 153.062 288.725C152.155 288.725 151.343 289.146 150.816 289.798L150.321 292.514C150.7 293.662 151.786 294.493 153.062 294.493ZM151.027 289.798H155.086L155.581 292.514H153.526V293.599H152.587V292.514H150.532L151.027 289.798Z" fill="white"/>
<path d="M147.98 303.79C149.256 303.79 150.342 302.959 150.721 301.811L150.226 299.095C149.699 298.443 148.887 298.021 147.98 298.021C147.074 298.021 146.262 298.443 145.735 299.095L145.239 301.811C145.619 302.959 146.705 303.79 147.98 303.79ZM145.946 299.095H150.005L150.5 301.811H148.444V302.896H147.506V301.811H145.45L145.946 299.095Z" fill="white"/>
<path d="M148.792 313.77L148.297 311.054C147.769 310.402 146.958 309.98 146.051 309.98C145.144 309.98 144.333 310.402 143.806 311.054L143.31 313.77C143.69 314.918 144.775 315.749 146.051 315.749C147.327 315.749 148.413 314.918 148.792 313.77ZM143.51 313.77L144.006 311.054H148.065L148.56 313.77H146.504V314.855H145.566V313.77H143.51Z" fill="white"/>
<path d="M149.868 321.685C149.34 321.032 148.529 320.611 147.622 320.611C146.715 320.611 145.904 321.032 145.376 321.685L144.881 324.401C145.261 325.549 146.346 326.38 147.622 326.38C148.898 326.38 149.983 325.549 150.363 324.401L149.868 321.685ZM148.086 324.401V325.485H147.148V324.401H145.092L145.587 321.685H149.646L150.142 324.401H148.075H148.086Z" fill="white"/>
<path d="M153.062 331.002C152.155 331.002 151.343 331.423 150.816 332.076L150.321 334.792C150.7 335.939 151.786 336.771 153.062 336.771C154.337 336.771 155.423 335.939 155.803 334.792L155.307 332.076C154.78 331.423 153.968 331.002 153.062 331.002ZM155.592 334.792H153.536V335.876H152.598V334.792H150.542L151.038 332.076H155.096L155.592 334.792Z" fill="white"/>
<path d="M161.527 339.328C160.621 339.328 159.809 339.749 159.282 340.402L158.786 343.118C159.166 344.265 160.252 345.097 161.527 345.097C162.803 345.097 163.889 344.265 164.268 343.118L163.773 340.402C163.246 339.749 162.434 339.328 161.527 339.328ZM164.058 343.118H162.002V344.202H161.064V343.118H159.008L159.503 340.402H163.562L164.058 343.118Z" fill="white"/>
<path d="M171.321 344.402C170.415 344.402 169.603 344.823 169.076 345.476L168.58 348.192C168.96 349.34 170.046 350.171 171.321 350.171C172.597 350.171 173.683 349.34 174.062 348.192L173.567 345.476C173.04 344.823 172.228 344.402 171.321 344.402ZM173.851 348.192H171.796V349.266H170.857V348.192H168.802L169.297 345.476H173.356L173.851 348.192Z" fill="white"/>
<path d="M182.138 345.971C181.231 345.971 180.419 346.392 179.892 347.044L179.397 349.76C179.776 350.908 180.862 351.74 182.138 351.74C183.413 351.74 184.499 350.908 184.879 349.76L184.383 347.044C183.856 346.392 183.044 345.971 182.138 345.971ZM184.668 349.76H182.612V350.845H181.674V349.76H179.618L180.114 347.044H184.172L184.668 349.76Z" fill="white"/>
<path d="M201.198 338.613C201.725 338.224 202.242 337.813 202.748 337.392C202.917 337.245 203.096 337.108 203.275 336.96C203.813 336.487 204.34 336.002 204.857 335.497C204.899 335.455 204.93 335.413 204.973 335.371C205.552 334.781 206.111 334.16 206.649 333.529C206.754 333.402 206.87 333.287 206.976 333.171C207.598 332.413 208.188 331.623 208.747 330.802C208.757 330.781 208.778 330.771 208.789 330.749C209.358 329.907 209.896 329.034 210.381 328.128C210.592 327.739 210.771 327.318 210.971 326.918C211.214 326.423 211.467 325.949 211.677 325.444C211.983 324.739 212.236 324.002 212.489 323.265C212.563 323.054 212.658 322.844 212.732 322.633C212.732 322.623 212.732 322.602 212.742 322.591C213.016 321.728 213.248 320.843 213.449 319.949C213.491 319.77 213.543 319.591 213.586 319.422C213.691 318.906 213.754 318.37 213.839 317.843C213.923 317.285 214.039 316.717 214.092 316.159C214.102 316.012 214.102 315.854 214.123 315.706C214.208 314.759 214.26 313.822 214.271 312.885C214.271 312.874 214.271 312.864 214.271 312.843C214.271 312.727 214.25 312.611 214.25 312.495C214.25 311.559 214.197 310.622 214.113 309.695C214.081 309.348 214.018 309.011 213.965 308.664C213.87 307.99 213.786 307.306 213.659 306.632C213.554 306.106 213.417 305.6 213.29 305.084C213.175 304.611 213.069 304.126 212.921 303.653C212.742 303.053 212.521 302.474 212.31 301.884C212.173 301.505 212.046 301.126 211.899 300.758C211.656 300.158 211.382 299.589 211.098 299.01C210.961 298.737 210.855 298.452 210.718 298.179C210.665 298.084 210.613 297.989 210.56 297.894C210.402 297.6 210.244 297.315 210.075 297.031C209.759 296.473 209.432 295.926 209.084 295.399C208.926 295.168 208.778 294.926 208.62 294.694C208.104 293.936 207.555 293.199 206.976 292.494C206.923 292.431 206.87 292.378 206.828 292.315C206.269 291.641 205.679 290.999 205.057 290.378C204.994 290.315 204.941 290.241 204.878 290.178C204.772 290.073 204.646 289.968 204.54 289.862C204.235 289.567 203.929 289.283 203.623 288.999C203.423 288.82 203.212 288.641 203.012 288.473C202.685 288.188 202.347 287.904 202 287.641C201.789 287.473 201.567 287.315 201.346 287.157C200.998 286.904 200.661 286.641 200.302 286.399C199.923 286.136 199.522 285.894 199.132 285.651C198.932 285.525 198.742 285.388 198.542 285.272C197.993 284.946 197.435 284.651 196.865 284.357C196.612 284.23 196.359 284.114 196.106 283.988C195.79 283.841 195.484 283.683 195.158 283.546C194.81 283.399 194.462 283.251 194.114 283.114C193.882 283.02 193.65 282.925 193.408 282.841C193.017 282.693 192.627 282.556 192.227 282.43C192.142 282.399 192.048 282.367 191.963 282.335C191.879 282.304 191.784 282.293 191.7 282.262C191.109 282.072 190.508 281.914 189.897 281.756C189.697 281.704 189.496 281.662 189.296 281.609C188.769 281.493 188.242 281.388 187.704 281.293C187.525 281.262 187.335 281.209 187.156 281.188C187.072 281.177 186.977 281.167 186.892 281.156C186.397 281.083 185.901 281.03 185.406 280.977C185.079 280.946 184.742 280.904 184.415 280.872C184.172 280.851 183.919 280.851 183.677 280.841C183.139 280.819 182.591 280.777 182.053 280.777C180.746 280.777 179.46 280.893 178.184 281.051C177.9 281.083 177.605 281.114 177.32 281.156C177.267 281.156 177.214 281.156 177.162 281.177C176.624 281.262 176.086 281.377 175.559 281.483C175.022 281.598 174.495 281.725 173.978 281.862C173.683 281.935 173.377 282.009 173.092 282.093C173.029 282.114 172.966 282.125 172.903 282.146C170.098 282.988 167.452 284.22 165.027 285.757C164.89 285.841 164.753 285.936 164.606 286.03C163.836 286.536 163.077 287.062 162.36 287.63C162.276 287.704 162.192 287.778 162.107 287.841C161.496 288.336 160.905 288.841 160.336 289.378C160.136 289.567 159.925 289.757 159.725 289.946C159.64 290.031 159.556 290.104 159.472 290.189C159.261 290.399 159.071 290.641 158.86 290.862C158.417 291.325 157.975 291.789 157.563 292.283C157.31 292.589 157.068 292.915 156.825 293.231C156.446 293.726 156.056 294.21 155.697 294.736C155.423 295.136 155.17 295.568 154.917 295.978C154.633 296.431 154.348 296.873 154.084 297.347C153.758 297.937 153.473 298.558 153.178 299.168C153.03 299.495 152.862 299.8 152.714 300.126C152.345 300.968 152.029 301.832 151.734 302.716C151.691 302.832 151.639 302.947 151.596 303.074C151.596 303.084 151.596 303.105 151.586 303.116C151.312 303.99 151.08 304.884 150.88 305.779C150.837 305.948 150.785 306.116 150.753 306.285C150.648 306.811 150.584 307.348 150.5 307.885C150.416 308.443 150.3 309 150.247 309.558C150.236 309.716 150.236 309.864 150.215 310.022C150.131 310.959 150.078 311.906 150.078 312.832C150.078 312.843 150.078 312.864 150.078 312.874C150.078 312.99 150.099 313.106 150.099 313.232C150.099 314.169 150.152 315.096 150.236 316.022C150.268 316.369 150.331 316.717 150.384 317.064C150.479 317.738 150.563 318.422 150.69 319.085C150.795 319.612 150.932 320.117 151.059 320.633C151.175 321.107 151.28 321.591 151.428 322.054C151.607 322.654 151.828 323.244 152.039 323.823C152.176 324.202 152.303 324.581 152.45 324.949C152.693 325.539 152.967 326.118 153.241 326.697C153.378 326.97 153.484 327.265 153.621 327.539C153.663 327.623 153.726 327.707 153.768 327.791C153.979 328.191 154.2 328.57 154.432 328.96C154.706 329.423 154.981 329.897 155.276 330.349C155.497 330.697 155.729 331.034 155.972 331.36C156.319 331.844 156.678 332.329 157.047 332.792C157.268 333.076 157.49 333.35 157.722 333.623C158.154 334.139 158.618 334.634 159.082 335.118C159.219 335.266 159.345 335.413 159.482 335.56C159.567 335.645 159.661 335.729 159.756 335.813C159.999 336.045 160.241 336.276 160.494 336.508C160.853 336.834 161.222 337.16 161.601 337.476C161.844 337.676 162.076 337.887 162.329 338.087C162.919 338.55 163.52 338.992 164.142 339.413C164.353 339.561 164.574 339.687 164.785 339.834C165.302 340.171 165.818 340.487 166.356 340.782C166.556 340.887 166.746 341.003 166.946 341.108C168.633 342.013 170.404 342.782 172.26 343.382C172.302 343.393 172.333 343.414 172.375 343.424C172.407 343.424 172.428 343.435 172.46 343.445C172.618 343.498 172.766 343.55 172.913 343.603C173.409 343.75 173.904 343.866 174.41 343.993C174.568 344.035 174.716 344.077 174.874 344.119C175.422 344.245 175.981 344.35 176.529 344.445C176.751 344.487 176.961 344.54 177.183 344.572C177.225 344.572 177.267 344.572 177.309 344.582C177.678 344.635 178.058 344.677 178.437 344.719C179.65 344.866 180.873 344.961 182.074 344.961C182.57 344.961 183.065 344.929 183.55 344.908C183.846 344.898 184.151 344.898 184.447 344.877C184.805 344.856 185.163 344.803 185.522 344.772C185.975 344.729 186.439 344.677 186.882 344.614C186.977 344.603 187.082 344.593 187.177 344.582C187.377 344.551 187.567 344.498 187.767 344.466C188.305 344.372 188.832 344.266 189.349 344.15C189.591 344.098 189.823 344.035 190.055 343.982C190.656 343.835 191.246 343.666 191.837 343.477C191.995 343.424 192.164 343.382 192.322 343.319C193.06 343.077 193.787 342.803 194.493 342.508C194.514 342.508 194.536 342.498 194.557 342.487C195.948 341.908 197.287 341.234 198.573 340.477C199.301 340.045 199.997 339.571 200.692 339.087C200.872 338.961 201.061 338.824 201.241 338.687L201.198 338.613ZM198.51 339.592C197.867 339.982 197.203 340.35 196.528 340.698C196.465 340.729 196.402 340.75 196.349 340.782C195.758 341.087 195.158 341.361 194.546 341.624C194.43 341.677 194.314 341.719 194.209 341.761C193.661 341.992 193.102 342.203 192.543 342.403C192.48 342.424 192.427 342.445 192.364 342.466L187.145 326.623L185.174 320.643C185.722 320.433 186.239 320.17 186.724 319.854L198.542 336.097L200.239 338.424C199.67 338.824 199.111 339.224 198.51 339.592ZM191.383 342.792C190.877 342.95 190.361 343.087 189.844 343.214C189.633 343.266 189.423 343.329 189.201 343.382C188.758 343.487 188.316 343.561 187.862 343.645C187.567 343.698 187.282 343.761 186.977 343.814C186.228 343.929 185.48 344.024 184.731 344.087C184.352 344.119 183.962 344.129 183.582 344.14C183.245 344.161 182.897 344.172 182.559 344.182V321.212C183.171 321.18 183.772 321.086 184.341 320.928L187.124 329.391L191.52 342.75C191.52 342.75 191.415 342.782 191.362 342.803L191.383 342.792ZM181.252 344.161C180.641 344.14 180.04 344.119 179.439 344.077C178.68 344.014 177.921 343.919 177.162 343.803C176.888 343.761 176.624 343.698 176.35 343.645C175.211 343.435 174.083 343.171 172.945 342.824L177.13 329.802L179.977 320.949C180.535 321.096 181.105 321.18 181.695 321.212V344.193C181.547 344.193 181.389 344.182 181.242 344.172L181.252 344.161ZM171.785 342.413C171.026 342.15 170.288 341.856 169.571 341.54C169.287 341.413 169.012 341.298 168.728 341.171C168.433 341.034 168.137 340.887 167.842 340.74C167.389 340.508 166.946 340.266 166.514 340.013C166.314 339.898 166.124 339.792 165.924 339.676C165.28 339.287 164.637 338.876 164.026 338.445L172.871 326.297L177.562 319.854C178.068 320.18 178.606 320.454 179.175 320.665L177.151 326.97L172.154 342.529C172.038 342.487 171.922 342.445 171.806 342.403L171.785 342.413ZM163.088 337.75C162.645 337.413 162.213 337.066 161.791 336.708C161.664 336.603 161.538 336.497 161.411 336.381C160.979 336.002 160.557 335.602 160.146 335.202C160.041 335.097 159.925 334.992 159.82 334.887C159.556 334.623 159.303 334.339 159.039 334.066C158.86 333.876 158.691 333.687 158.523 333.497C158.312 333.255 158.101 333.002 157.89 332.75C157.69 332.497 157.49 332.255 157.289 332.002C157.205 331.897 157.131 331.792 157.057 331.686L169.181 322.823L175.612 318.117C175.981 318.57 176.392 318.98 176.845 319.349L172.86 324.833L163.33 337.939C163.246 337.876 163.172 337.824 163.088 337.761V337.75ZM156.52 330.971C156.109 330.392 155.719 329.792 155.35 329.191C155.297 329.107 155.244 329.023 155.202 328.928C154.886 328.402 154.58 327.865 154.295 327.318C154.232 327.191 154.158 327.054 154.095 326.928C153.895 326.528 153.694 326.128 153.515 325.718C153.462 325.591 153.399 325.465 153.346 325.339C153.167 324.917 152.988 324.496 152.819 324.065C152.767 323.928 152.724 323.802 152.672 323.665C152.577 323.412 152.493 323.159 152.408 322.907L172.86 316.275L174.284 315.812C174.505 316.38 174.769 316.917 175.106 317.422L169.181 321.749L156.541 330.992C156.541 330.992 156.53 330.971 156.52 330.971ZM151.965 321.517C151.839 321.075 151.712 320.622 151.607 320.17C151.544 319.928 151.502 319.686 151.438 319.433C151.333 318.928 151.227 318.422 151.143 317.906C151.112 317.727 151.08 317.559 151.059 317.38C150.869 316.064 150.764 314.717 150.743 313.348L169.181 313.285L173.746 313.264C173.778 313.853 173.873 314.432 174.02 314.98L172.86 315.359L152.134 322.086C152.071 321.896 152.029 321.696 151.965 321.496V321.517ZM150.806 310.622C150.806 310.548 150.806 310.464 150.816 310.39C150.859 309.843 150.932 309.295 151.006 308.758C151.038 308.495 151.059 308.243 151.101 307.979C151.143 307.695 151.206 307.411 151.259 307.127C151.354 306.611 151.449 306.106 151.565 305.59C151.586 305.495 151.618 305.39 151.649 305.295C151.797 304.705 151.955 304.126 152.145 303.537L172.86 310.264L174.02 310.643C173.862 311.211 173.778 311.811 173.746 312.422L169.181 312.443L150.732 312.506C150.732 311.874 150.764 311.243 150.806 310.622ZM153.947 298.989C154.032 298.831 154.116 298.673 154.19 298.505C154.422 298.042 154.675 297.6 154.928 297.147C155.054 296.926 155.181 296.705 155.318 296.494C155.56 296.105 155.803 295.726 156.066 295.347C156.182 295.178 156.298 294.999 156.414 294.831L169.192 304.032L175.085 308.274C174.769 308.758 174.505 309.285 174.294 309.832L172.871 309.369L152.419 302.737C152.862 301.442 153.368 300.2 153.947 299V298.989ZM157.395 293.505C157.49 293.389 157.574 293.273 157.669 293.157C157.954 292.799 158.249 292.452 158.554 292.105C158.649 291.999 158.734 291.904 158.829 291.799C159.134 291.462 159.44 291.136 159.756 290.82C159.851 290.715 159.957 290.62 160.051 290.525C160.494 290.083 160.958 289.662 161.422 289.252C161.496 289.188 161.559 289.125 161.633 289.062C162.17 288.599 162.719 288.157 163.288 287.725C163.299 287.725 163.309 287.704 163.32 287.704L172.86 300.81L176.845 306.295C176.371 306.674 175.949 307.106 175.57 307.569L169.171 302.968L156.91 294.136C157.068 293.926 157.226 293.715 157.384 293.505H157.395ZM164.289 287.02C164.753 286.704 165.217 286.399 165.692 286.104C165.85 285.999 166.018 285.894 166.177 285.799C166.756 285.451 167.357 285.136 167.958 284.83C168.19 284.714 168.422 284.599 168.665 284.493C168.96 284.357 169.265 284.22 169.571 284.093C170.204 283.82 170.836 283.567 171.479 283.335C171.616 283.283 171.764 283.23 171.901 283.188L177.12 299.021L179.091 305C178.543 305.211 178.026 305.474 177.541 305.79L172.85 299.347L164.015 287.209C164.1 287.146 164.195 287.083 164.279 287.02H164.289ZM174.916 282.293C175.391 282.177 175.876 282.093 176.361 282.009C176.635 281.956 176.898 281.893 177.183 281.851C177.351 281.82 177.52 281.809 177.689 281.788C178.859 281.62 180.05 281.525 181.252 281.483C181.4 281.483 181.558 281.462 181.706 281.462V304.442C181.094 304.474 180.493 304.569 179.924 304.726L177.141 296.263L172.734 282.893C173.43 282.672 174.147 282.483 174.853 282.304C174.874 282.304 174.895 282.293 174.916 282.283V282.293ZM183.519 281.504C183.919 281.525 184.32 281.525 184.721 281.556C185.49 281.62 186.249 281.714 187.019 281.83C187.282 281.872 187.546 281.925 187.81 281.977C188.263 282.062 188.727 282.146 189.18 282.251C189.285 282.272 189.38 282.304 189.486 282.335C190.087 282.483 190.698 282.641 191.299 282.82C191.299 282.82 191.31 282.82 191.32 282.82L187.135 295.842L184.288 304.695C183.73 304.548 183.16 304.463 182.559 304.432V281.462C182.876 281.462 183.192 281.483 183.519 281.493V281.504ZM192.395 283.188C192.775 283.325 193.155 283.462 193.534 283.609C193.766 283.704 194.008 283.799 194.24 283.893C194.567 284.03 194.905 284.167 195.221 284.314C195.548 284.462 195.874 284.63 196.201 284.788C196.423 284.904 196.655 285.009 196.876 285.125C197.445 285.43 197.993 285.736 198.542 286.072C198.573 286.094 198.594 286.104 198.626 286.125C199.185 286.473 199.712 286.841 200.239 287.22L198.542 289.557L186.724 305.8C186.218 305.474 185.68 305.2 185.111 304.99L187.135 298.684L192.142 283.114C192.227 283.146 192.311 283.167 192.395 283.199V283.188ZM202.948 289.346C203.222 289.589 203.486 289.841 203.75 290.094C204.192 290.515 204.625 290.947 205.046 291.389C205.183 291.536 205.331 291.683 205.468 291.831C206.016 292.441 206.543 293.084 207.039 293.726C207.092 293.799 207.155 293.873 207.208 293.947L198.5 300.316L188.653 307.516C188.284 307.064 187.873 306.653 187.419 306.285L198.542 290.999L200.956 287.694C201.125 287.82 201.293 287.967 201.462 288.104C201.978 288.504 202.474 288.915 202.959 289.346H202.948ZM207.756 294.673C208.167 295.252 208.557 295.842 208.926 296.442C208.979 296.526 209.031 296.621 209.084 296.705C209.4 297.242 209.706 297.779 209.991 298.326C210.054 298.442 210.117 298.568 210.17 298.684C210.381 299.094 210.571 299.505 210.76 299.926C210.813 300.042 210.866 300.168 210.918 300.284C211.108 300.705 211.277 301.137 211.446 301.568C211.498 301.695 211.54 301.832 211.593 301.958C211.688 302.211 211.772 302.463 211.857 302.716L198.531 307.042L189.981 309.822C189.76 309.253 189.496 308.716 189.159 308.211L198.5 301.379L207.724 294.631C207.724 294.631 207.745 294.652 207.745 294.663L207.756 294.673ZM212.31 304.137C212.437 304.579 212.563 305.021 212.668 305.463C212.732 305.706 212.784 305.958 212.837 306.2C212.943 306.706 213.048 307.211 213.132 307.727C213.164 307.906 213.196 308.074 213.217 308.253C213.406 309.569 213.512 310.916 213.533 312.285L198.521 312.338L190.54 312.369C190.508 311.78 190.414 311.201 190.266 310.653L198.552 307.969L212.152 303.558C212.215 303.758 212.268 303.958 212.321 304.158L212.31 304.137ZM213.459 315.054C213.459 315.117 213.459 315.18 213.459 315.254C213.417 315.812 213.343 316.359 213.269 316.906C213.238 317.159 213.217 317.412 213.175 317.675C213.132 317.97 213.059 318.243 213.006 318.538C212.911 319.043 212.827 319.559 212.7 320.064C212.679 320.17 212.647 320.264 212.616 320.359C212.468 320.949 212.31 321.528 212.12 322.107L198.531 317.696L190.245 315.011C190.403 314.443 190.487 313.843 190.519 313.232L198.5 313.201L213.522 313.148C213.522 313.79 213.491 314.432 213.449 315.064L213.459 315.054ZM210.328 326.654C210.244 326.812 210.159 326.981 210.086 327.139C209.854 327.591 209.601 328.044 209.348 328.486C209.221 328.707 209.095 328.928 208.958 329.149C208.726 329.539 208.473 329.918 208.22 330.286C208.104 330.465 207.988 330.644 207.872 330.813L198.521 324.075L189.212 317.37C189.528 316.885 189.792 316.359 190.002 315.812L198.552 318.591L211.878 322.917C211.435 324.212 210.929 325.454 210.349 326.654H210.328ZM198.531 334.634L187.409 319.349C187.883 318.97 188.305 318.538 188.685 318.075L198.5 325.139L207.345 331.507C207.26 331.623 207.176 331.739 207.081 331.855C206.586 332.497 206.079 333.129 205.542 333.739C205.405 333.897 205.247 334.044 205.11 334.202C204.667 334.676 204.213 335.129 203.75 335.56C203.497 335.792 203.254 336.034 203.001 336.255C202.411 336.782 201.799 337.287 201.167 337.771C201.093 337.824 201.03 337.887 200.956 337.939C200.956 337.939 200.956 337.939 200.945 337.939L198.542 334.634H198.531Z" fill="white"/>
<path d="M182.138 271.145C182.633 271.145 183.034 270.745 183.034 270.25C183.034 269.755 182.633 269.355 182.138 269.355C181.642 269.355 181.242 269.755 181.242 270.25C181.242 270.745 181.642 271.145 182.138 271.145Z" fill="white"/>
<path d="M182.138 354.498C181.642 354.498 181.242 354.898 181.242 355.393C181.242 355.888 181.642 356.288 182.138 356.288C182.633 356.288 183.034 355.888 183.034 355.393C183.034 354.898 182.633 354.498 182.138 354.498Z" fill="white"/>
<path d="M224.782 311.928C224.286 311.928 223.885 312.328 223.885 312.823C223.885 313.317 224.286 313.717 224.782 313.717C225.277 313.717 225.678 313.317 225.678 312.823C225.678 312.328 225.277 311.928 224.782 311.928Z" fill="white"/>
<path d="M139.494 311.928C138.998 311.928 138.598 312.328 138.598 312.823C138.598 313.317 138.998 313.717 139.494 313.717C139.989 313.717 140.39 313.317 140.39 312.823C140.39 312.328 139.989 311.928 139.494 311.928Z" fill="white"/>
<path d="M195.801 273.439C196.275 273.597 196.781 273.355 196.95 272.881C197.108 272.407 196.865 271.902 196.391 271.734C195.927 271.576 195.411 271.818 195.242 272.292C195.084 272.765 195.326 273.271 195.801 273.439Z" fill="white"/>
<path d="M168.464 352.204C167.99 352.046 167.484 352.289 167.315 352.762C167.157 353.236 167.4 353.741 167.874 353.91C168.348 354.068 168.854 353.826 169.023 353.352C169.192 352.878 168.939 352.373 168.464 352.204Z" fill="white"/>
<path d="M207.893 278.882C208.188 278.482 208.093 277.913 207.692 277.629C207.292 277.334 206.723 277.429 206.438 277.829C206.143 278.229 206.238 278.798 206.638 279.082C207.039 279.377 207.608 279.282 207.893 278.882Z" fill="white"/>
<path d="M156.372 346.761C156.077 347.161 156.172 347.729 156.572 348.014C156.973 348.308 157.542 348.214 157.827 347.814C158.122 347.414 158.027 346.845 157.627 346.561C157.226 346.266 156.657 346.361 156.372 346.761Z" fill="white"/>
<path d="M216.422 287.483C216.812 287.178 216.885 286.62 216.58 286.22C216.274 285.83 215.715 285.757 215.315 286.062C214.925 286.367 214.851 286.925 215.156 287.325C215.462 287.715 216.021 287.788 216.422 287.483Z" fill="white"/>
<path d="M147.854 338.161C147.464 338.467 147.39 339.025 147.696 339.425C148.002 339.814 148.56 339.888 148.961 339.583C149.351 339.277 149.425 338.719 149.119 338.319C148.813 337.93 148.255 337.856 147.854 338.161Z" fill="white"/>
<path d="M222.557 299.22C223.021 299.052 223.264 298.536 223.095 298.073C222.926 297.61 222.41 297.368 221.946 297.536C221.482 297.704 221.239 298.22 221.408 298.683C221.577 299.147 222.093 299.389 222.557 299.22Z" fill="white"/>
<path d="M141.718 326.423C141.254 326.591 141.012 327.107 141.181 327.57C141.349 328.033 141.866 328.275 142.33 328.107C142.794 327.939 143.036 327.423 142.867 326.96C142.699 326.496 142.182 326.254 141.718 326.423Z" fill="white"/>
<path d="M222.652 326.138C222.188 325.97 221.672 326.223 221.503 326.686C221.334 327.149 221.587 327.665 222.051 327.833C222.515 328.002 223.032 327.749 223.2 327.286C223.369 326.823 223.116 326.307 222.652 326.138Z" fill="white"/>
<path d="M141.623 299.505C142.087 299.673 142.604 299.421 142.772 298.958C142.941 298.494 142.688 297.979 142.224 297.81C141.76 297.642 141.244 297.894 141.075 298.358C140.906 298.821 141.159 299.337 141.623 299.505Z" fill="white"/>
<path d="M215.062 338.444C214.756 338.834 214.83 339.402 215.22 339.708C215.61 340.013 216.179 339.939 216.485 339.55C216.791 339.16 216.717 338.592 216.327 338.286C215.937 337.981 215.367 338.055 215.062 338.444Z" fill="white"/>
<path d="M149.214 287.198C149.52 286.809 149.446 286.24 149.056 285.935C148.666 285.63 148.096 285.703 147.791 286.093C147.485 286.482 147.559 287.051 147.949 287.356C148.339 287.661 148.908 287.588 149.214 287.198Z" fill="white"/>
<path d="M206.311 346.804C205.911 347.088 205.805 347.656 206.101 348.056C206.385 348.456 206.955 348.551 207.355 348.267C207.756 347.983 207.851 347.414 207.566 347.014C207.281 346.604 206.712 346.519 206.311 346.804Z" fill="white"/>
<path d="M157.953 278.852C158.354 278.568 158.449 277.999 158.164 277.599C157.88 277.199 157.31 277.104 156.91 277.389C156.509 277.673 156.414 278.241 156.699 278.641C156.984 279.041 157.553 279.136 157.953 278.852Z" fill="white"/>
<path d="M196.043 352.119C195.579 352.287 195.326 352.792 195.495 353.266C195.664 353.729 196.17 353.982 196.644 353.814C197.108 353.645 197.361 353.14 197.192 352.666C197.024 352.203 196.507 351.95 196.043 352.119Z" fill="white"/>
<path d="M168.222 273.524C168.686 273.355 168.939 272.85 168.77 272.376C168.601 271.903 168.095 271.66 167.621 271.829C167.157 271.997 166.904 272.513 167.073 272.976C167.241 273.44 167.747 273.692 168.222 273.524Z" fill="white"/>
<path d="M348.317 322.601L334.581 311.621L320.833 322.601V331.159L317.555 328.538L311.44 333.433L310.07 332.349L299.664 340.665V374.405H320.485V370.594H327.97V367.13H348.317V322.601Z" fill="white"/>
<path d="M135.53 329.216V327.427L134.834 326.848V324.648C134.834 324.532 134.739 324.437 134.623 324.437C134.507 324.437 134.412 324.532 134.412 324.648V326.848L133.716 327.427V329.216L133.305 329.564V329.743L129.299 326.385V323.153L128.804 322.742V320.595L127.992 319.91V317.815C127.992 317.668 127.876 317.552 127.728 317.552H127.707C127.56 317.552 127.444 317.668 127.444 317.815V319.91L126.632 320.595V322.742L126.137 323.153V326.385L122.13 329.743V329.564L121.719 329.216V327.427L121.023 326.848V324.648C121.023 324.532 120.929 324.437 120.813 324.437C120.697 324.437 120.602 324.532 120.602 324.648V326.848L119.906 327.427V329.216L119.495 329.564V331.606L99.3062 324.448V306.278L98.6314 305.709V302.772L97.4929 301.814V298.204C97.4929 298.014 97.3347 297.856 97.145 297.856C96.9552 297.856 96.7971 298.014 96.7971 298.204V301.814L95.6479 302.772V305.709L94.9732 306.278V306.583L88.3948 301.067V295.761L87.583 295.087V291.561L86.2441 290.435V286.992C86.2441 286.761 86.0544 286.561 85.8119 286.561H85.7697C85.5378 286.561 85.3375 286.75 85.3375 286.992V290.435L83.9986 291.561V295.087L83.1869 295.761V301.067L76.6084 306.583V306.278L75.9337 305.709V302.772L74.7846 301.814V298.204C74.7846 298.014 74.6264 297.856 74.4367 297.856C74.2469 297.856 74.0888 298.014 74.0888 298.204V301.814L72.9502 302.772V305.709L72.2755 306.278V324.342C72.149 324.342 72.033 324.384 71.9381 324.49C71.0737 325.542 70.0194 326.711 68.7754 327.932C68.7543 327.953 68.7227 327.974 68.7016 328.006C68.2167 328.49 67.7001 328.974 67.1519 329.48C66.4877 330.09 65.7814 330.711 65.0329 331.343C65.0012 331.364 64.9802 331.385 64.9591 331.406C64.0524 332.164 63.0825 332.943 62.0599 333.722C61.8069 333.911 61.5539 334.101 61.2903 334.29C61.2587 334.311 61.2271 334.333 61.206 334.354C60.6894 334.733 60.1623 335.112 59.6141 335.49C58.9394 335.964 58.2541 336.427 57.5372 336.891C57.5056 336.901 57.474 336.922 57.4529 336.943C56.9258 337.291 56.3881 337.627 55.8505 337.964C55.1863 338.375 54.501 338.785 53.7947 339.196C53.7631 339.207 53.7314 339.228 53.7104 339.249C53.1727 339.554 52.635 339.859 52.0868 340.165C51.4227 340.533 50.7479 340.891 50.0522 341.249C50.0205 341.259 49.9994 341.27 49.9678 341.291C49.4301 341.565 48.8819 341.838 48.3232 342.112C47.9964 342.27 47.6696 342.428 47.3322 342.586C46.9949 342.744 46.647 342.902 46.3096 343.059C46.278 343.059 46.2569 343.081 46.2253 343.102C45.6771 343.344 45.1183 343.586 44.5596 343.828C43.9059 344.102 43.2418 344.375 42.5671 344.639C42.5354 344.639 42.5038 344.66 42.4827 344.67C41.924 344.881 41.3652 345.091 40.7959 345.302C40.1423 345.533 39.4887 345.765 38.814 345.986C38.7823 345.986 38.7613 345.997 38.7402 346.007C38.1814 346.197 37.6121 346.376 37.0323 346.554C36.3892 346.754 35.7356 346.933 35.082 347.123C35.0503 347.123 35.0187 347.133 34.9871 347.144C34.4178 347.302 33.8485 347.449 33.2687 347.597C32.6256 347.755 31.9825 347.912 31.3289 348.049C31.3078 348.049 31.2762 348.049 31.2551 348.06C31.1286 348.091 30.9915 348.112 30.865 348.144V336.364L30.5382 336.091V334.659L29.9795 334.196V332.438C29.9795 332.343 29.9057 332.269 29.8108 332.269C29.7159 332.269 29.6421 332.343 29.6421 332.438V334.196L29.0834 334.659V336.091L28.7565 336.364V336.512L25.5517 333.827V331.248L25.1616 330.922V329.206L24.508 328.658V326.974C24.508 326.858 24.4131 326.764 24.2971 326.764H24.276C24.1601 326.764 24.0652 326.858 24.0652 326.974V328.658L23.4116 329.206V330.922L23.0215 331.248V333.827L19.8166 336.512V336.364L19.4898 336.091V334.659L18.931 334.196V332.438C18.931 332.343 18.8572 332.269 18.7624 332.269C18.6675 332.269 18.5937 332.343 18.5937 332.438V334.196L18.0349 334.659V336.091L17.7081 336.364V349.786C17.5816 349.86 17.4762 349.976 17.4762 350.134C17.4762 350.292 17.5816 350.397 17.7081 350.471V355.713C17.5711 355.797 17.4656 355.934 17.4867 356.113C17.5078 356.25 17.5922 356.345 17.7081 356.408V356.839C17.5816 356.913 17.4867 357.018 17.4762 357.176C17.4762 357.334 17.5711 357.461 17.7081 357.534V362.387C17.5711 362.471 17.4656 362.587 17.4762 362.756C17.4762 362.903 17.5816 363.008 17.7081 363.082V364.903H27.8815V365.261H72.6234V364.903H91.2939V365.261H135.804V329.595L135.393 329.248L135.53 329.216ZM69.5556 328.785C70.6414 327.595 71.5586 326.479 72.3493 325.448V338.364C72.2228 338.364 72.1068 338.406 72.0119 338.512C71.3161 339.364 70.4938 340.228 69.545 341.112V328.795L69.5556 328.785ZM72.3598 339.449V359.924H69.5661V342.565C70.6414 341.501 71.5691 340.459 72.3598 339.449ZM65.7919 332.627C66.298 332.153 66.7829 331.669 67.2468 331.206C67.7528 330.701 68.2378 330.195 68.7016 329.711V341.87C68.2378 342.27 67.7528 342.659 67.2468 343.059C66.7829 343.417 66.298 343.786 65.7919 344.144V332.627ZM67.2468 344.681C67.7528 344.249 68.2378 343.817 68.7016 343.386V359.924H65.8025V345.881C66.3085 345.481 66.7934 345.081 67.2573 344.681H67.2468ZM62.0283 334.859L62.1548 334.764L62.2813 334.669L62.1548 334.775L62.0283 334.88V334.848V334.859ZM62.0283 336.017L62.1548 335.912C63.1247 335.08 64.0524 334.248 64.9274 333.438V344.744C64.0524 345.333 63.1247 345.923 62.1548 346.502L62.0283 346.576V336.017ZM62.0283 347.565L62.1548 347.491L62.3867 347.355L62.1548 347.512L62.0283 347.597V347.555V347.565ZM62.1548 348.555C63.1247 347.891 64.0524 347.218 64.9274 346.554V359.924H62.0283V348.639L62.1548 348.555ZM58.2647 337.491C58.7602 337.164 59.2451 336.838 59.7195 336.512C60.215 336.175 60.7 335.827 61.1744 335.49V335.627C60.7 336.027 60.215 336.427 59.7195 336.827C59.2451 337.206 58.7602 337.596 58.2647 337.975V337.491ZM58.2647 339.059C58.7602 338.68 59.2451 338.301 59.7195 337.922C60.215 337.533 60.7 337.133 61.1744 336.743V347.07C60.7 347.333 60.215 347.597 59.7195 347.86C59.2451 348.112 58.7602 348.355 58.2647 348.607V339.059ZM58.2647 349.565C58.7602 349.323 59.2451 349.081 59.7195 348.828C60.215 348.576 60.7 348.312 61.1744 348.049V348.186C60.7 348.502 60.215 348.818 59.7195 349.134C59.2451 349.428 58.7602 349.734 58.2647 350.028V349.565ZM59.7195 350.144C60.215 349.839 60.7 349.523 61.1744 349.218V359.924H58.2752V351.018C58.7707 350.723 59.2556 350.428 59.7301 350.134L59.7195 350.144ZM54.501 339.828C54.9965 339.543 55.4815 339.249 55.9559 338.964C56.4514 338.659 56.9363 338.364 57.4107 338.059V338.649C56.9363 339.007 56.4514 339.364 55.9559 339.733C55.4815 340.08 54.9965 340.428 54.501 340.775V339.838V339.828ZM54.501 341.796C54.9965 341.459 55.4709 341.112 55.9559 340.775C56.4514 340.417 56.9363 340.07 57.4107 339.712V349.028C56.9363 349.26 56.4514 349.481 55.9559 349.702C55.4815 349.913 54.9965 350.123 54.501 350.334V341.796ZM54.501 351.26C54.9965 351.06 55.4709 350.85 55.9559 350.639C56.4514 350.418 56.9363 350.197 57.4107 349.976V350.534C56.9363 350.807 56.4514 351.081 55.9559 351.355C55.4815 351.618 54.9965 351.881 54.501 352.134V351.26ZM55.9559 352.334C56.4514 352.071 56.9363 351.797 57.4107 351.523V359.924H54.5116V353.102C55.0071 352.85 55.4815 352.586 55.9664 352.334H55.9559ZM50.7374 341.891C51.2224 341.638 51.7073 341.386 52.1923 341.122C52.6877 340.859 53.1727 340.586 53.6471 340.322V341.354C53.1727 341.68 52.6877 342.007 52.1923 342.333C51.7178 342.649 51.2329 342.965 50.7374 343.27V341.901V341.891ZM50.7374 344.281C51.2224 343.975 51.7073 343.67 52.1923 343.354C52.6877 343.038 53.1727 342.712 53.6471 342.396V350.702C53.1727 350.902 52.6877 351.092 52.1923 351.281C51.7178 351.46 51.2329 351.639 50.7374 351.818V344.291V344.281ZM50.7374 352.713C51.2224 352.534 51.7073 352.365 52.1923 352.176C52.6877 351.986 53.1727 351.797 53.6471 351.607V352.576C53.1727 352.818 52.6877 353.06 52.1923 353.302C51.7178 353.534 51.2329 353.766 50.7374 353.987V352.713ZM52.1923 354.26C52.6877 354.029 53.1727 353.787 53.6471 353.544V359.924H50.7479V354.934C51.2329 354.713 51.7178 354.481 52.2028 354.25L52.1923 354.26ZM46.9738 343.712C47.2479 343.586 47.522 343.459 47.7961 343.333C48.0069 343.238 48.2178 343.133 48.4181 343.038C48.903 342.807 49.388 342.565 49.8729 342.333V343.807C49.3985 344.102 48.9136 344.396 48.4181 344.681C48.0807 344.881 47.7434 345.081 47.3955 345.281C47.2479 345.365 47.1108 345.449 46.9632 345.523V343.712H46.9738ZM46.9738 346.512C47.2584 346.354 47.5431 346.186 47.8277 346.028C48.028 345.912 48.2283 345.797 48.4181 345.681C48.903 345.396 49.388 345.102 49.8729 344.817V352.123C49.6937 352.186 49.5145 352.25 49.3247 352.313C49.0295 352.418 48.7238 352.513 48.4181 352.618C47.9437 352.776 47.4587 352.923 46.9632 353.071V346.523L46.9738 346.512ZM46.9738 353.944C47.4587 353.797 47.9437 353.65 48.4286 353.492C48.8292 353.366 49.2193 353.229 49.6094 353.102L49.8835 353.008V354.376C49.6937 354.46 49.4934 354.545 49.3036 354.639C49.019 354.766 48.7238 354.892 48.4286 355.018C47.9542 355.218 47.4693 355.429 46.9738 355.618V353.944ZM48.4286 355.955C48.8398 355.787 49.2404 355.608 49.641 355.429L49.8729 355.324V359.924H46.9738V356.545C47.4587 356.345 47.9437 356.145 48.4286 355.945V355.955ZM43.2101 345.312C43.6951 345.123 44.18 344.923 44.665 344.723C45.1499 344.523 45.6349 344.312 46.1198 344.102V346.007C45.6349 346.27 45.1605 346.533 44.665 346.797C44.1906 347.049 43.7056 347.302 43.2101 347.555V345.312ZM43.2101 348.513C43.6951 348.27 44.18 348.018 44.665 347.765C45.1499 347.512 45.6349 347.249 46.1198 346.986V353.313C45.6349 353.45 45.1605 353.587 44.665 353.723C44.1906 353.85 43.7056 353.976 43.2101 354.102V348.513ZM43.2101 354.987C43.6951 354.86 44.18 354.745 44.665 354.608C45.1499 354.481 45.6349 354.345 46.1198 354.208V355.976C45.6349 356.166 45.1605 356.355 44.665 356.534C44.1906 356.713 43.7056 356.892 43.2101 357.061V354.987ZM44.665 357.439C45.1499 357.261 45.6349 357.071 46.1198 356.892V359.924H43.2101V357.966C43.6951 357.797 44.18 357.618 44.665 357.439ZM39.4465 346.681C39.9315 346.512 40.4164 346.354 40.9014 346.175C41.3863 345.997 41.8713 345.818 42.3562 345.639V347.976C41.8818 348.218 41.3969 348.449 40.9014 348.681C40.4164 348.902 39.942 349.134 39.4465 349.344V346.67V346.681ZM39.4465 350.292C39.9315 350.071 40.4164 349.849 40.9014 349.628C41.3863 349.397 41.8713 349.165 42.3562 348.934V354.313C41.8818 354.429 41.3969 354.545 40.9014 354.65C40.4164 354.755 39.942 354.86 39.4465 354.955V350.281V350.292ZM39.4465 355.829C39.9315 355.734 40.4164 355.629 40.9014 355.524C41.3863 355.418 41.8713 355.302 42.3562 355.187V357.355C41.8818 357.524 41.3969 357.682 40.9014 357.84C40.4164 357.997 39.942 358.145 39.4465 358.303V355.829ZM40.9014 358.745C41.3863 358.587 41.8713 358.429 42.3562 358.261V359.924H39.4571V359.198C39.942 359.05 40.427 358.892 40.9119 358.745H40.9014ZM38.5926 359.924H36.9374C37.0007 359.903 37.0745 359.892 37.1377 359.871C37.6227 359.734 38.1076 359.598 38.5926 359.461V359.924ZM35.6829 347.839C36.1678 347.702 36.6528 347.565 37.1377 347.418C37.6227 347.27 38.1076 347.123 38.5926 346.965V349.734C38.1076 349.944 37.6227 350.144 37.1377 350.355C36.6528 350.555 36.1784 350.755 35.6829 350.944V347.839ZM35.6829 351.85C36.1678 351.66 36.6528 351.471 37.1377 351.271C37.6227 351.071 38.1076 350.871 38.5926 350.66V355.124C38.1076 355.218 37.6227 355.302 37.1377 355.397C36.6528 355.481 36.1784 355.566 35.6829 355.639V351.85ZM35.6829 356.513C36.1678 356.439 36.6528 356.355 37.1377 356.271C37.6227 356.187 38.1076 356.092 38.5926 356.008V358.566C38.1076 358.713 37.6227 358.85 37.1377 358.987C36.6528 359.124 36.1784 359.25 35.6829 359.376V356.513ZM31.9193 348.786C32.4042 348.681 32.8892 348.565 33.3741 348.449C33.8591 348.334 34.344 348.207 34.8289 348.081V351.281C34.344 351.46 33.8591 351.639 33.3741 351.818C32.8892 351.986 32.4147 352.155 31.9193 352.323V348.797V348.786ZM31.9193 353.208C32.4042 353.05 32.8892 352.881 33.3741 352.713C33.8591 352.544 34.344 352.365 34.8289 352.186V355.787C34.344 355.86 33.8591 355.924 33.3741 355.987C32.8892 356.05 32.4147 356.113 31.9193 356.166V353.208ZM33.3741 356.85C33.8591 356.787 34.344 356.713 34.8289 356.65V359.608C34.3862 359.724 33.9328 359.829 33.4795 359.934H31.9193V357.039C32.4042 356.987 32.8892 356.924 33.3741 356.86V356.85ZM30.981 359.924V357.124C30.981 357.124 31.0337 357.124 31.0653 357.124V359.924H30.981ZM31.0653 356.26C31.0653 356.26 31.0126 356.26 30.981 356.26V353.513C30.981 353.513 31.0337 353.492 31.0653 353.481V356.25V356.26ZM31.0653 348.965V352.586C31.0653 352.586 31.0126 352.608 30.981 352.618V348.986C30.981 348.986 31.0337 348.976 31.0653 348.965ZM118.662 352.418L118.578 352.471V345.175L118.662 345.102C118.957 344.849 119.231 344.596 119.516 344.344V351.881C119.231 352.06 118.968 352.25 118.662 352.418ZM118.831 353.008L118.673 353.123L118.588 353.187V353.155L118.673 353.102L118.831 353.008ZM118.578 344.396V344.375L118.662 344.312L118.746 344.249L118.662 344.323L118.578 344.396ZM119.516 339.722V342.881C119.231 343.112 118.968 343.333 118.662 343.565C118.483 343.702 118.314 343.828 118.135 343.965C118.114 343.975 118.093 343.986 118.072 344.007C117.713 344.27 117.344 344.533 116.975 344.796C116.511 345.123 116.037 345.449 115.541 345.765C115.52 345.765 115.499 345.786 115.478 345.807C115.12 346.039 114.74 346.281 114.371 346.512C113.907 346.797 113.433 347.081 112.948 347.365C112.927 347.365 112.906 347.386 112.885 347.397C112.516 347.607 112.136 347.818 111.757 348.028C111.293 348.281 110.829 348.534 110.344 348.776C110.323 348.776 110.302 348.797 110.291 348.807C109.912 348.997 109.532 349.186 109.153 349.376C108.921 349.481 108.699 349.597 108.467 349.702C108.236 349.818 107.993 349.923 107.761 350.028C107.74 350.028 107.719 350.039 107.708 350.049C107.329 350.218 106.949 350.386 106.559 350.555C106.106 350.744 105.642 350.934 105.178 351.113C105.157 351.113 105.136 351.123 105.115 351.134C104.735 351.281 104.345 351.429 103.955 351.565C103.502 351.723 103.049 351.892 102.585 352.039C102.564 352.039 102.553 352.039 102.532 352.06C102.142 352.186 101.752 352.313 101.351 352.439C100.909 352.576 100.455 352.702 100.002 352.829C99.9809 352.829 99.9598 352.829 99.9387 352.85C99.7278 352.902 99.517 352.955 99.3167 353.018V332.585L119.505 339.743L119.516 339.722ZM99.3272 356.503C99.4748 356.45 99.6224 356.397 99.77 356.345V358.829C99.6224 358.85 99.4748 358.871 99.3272 358.892V356.503ZM99.3272 355.871V353.608C99.4748 353.566 99.6224 353.534 99.77 353.492V355.703C99.6224 355.755 99.4748 355.808 99.3272 355.86V355.871ZM99.3272 361.556V359.492C99.4748 359.471 99.6224 359.45 99.77 359.429V361.471C99.654 361.503 99.5275 361.535 99.4116 361.556H99.3378H99.3272ZM101.372 355.713C101.71 355.576 102.047 355.439 102.374 355.292V358.376C102.047 358.44 101.71 358.503 101.372 358.566C101.035 358.629 100.708 358.682 100.371 358.734V356.113C100.708 355.987 101.046 355.85 101.372 355.713ZM100.36 355.481V353.334C100.698 353.239 101.035 353.144 101.362 353.039C101.699 352.934 102.037 352.839 102.363 352.723V354.639C102.037 354.787 101.699 354.924 101.362 355.071C101.025 355.208 100.698 355.345 100.36 355.471V355.481ZM101.372 359.176C101.71 359.113 102.047 359.05 102.374 358.987V360.756C102.047 360.85 101.71 360.956 101.372 361.04C101.035 361.134 100.708 361.229 100.371 361.313V359.334C100.708 359.282 101.046 359.229 101.372 359.166V359.176ZM102.374 361.377V361.566H101.731C101.942 361.503 102.163 361.44 102.374 361.377ZM103.966 354.576C104.303 354.418 104.641 354.26 104.967 354.092V357.808C104.63 357.892 104.303 357.966 103.966 358.04C103.629 358.113 103.302 358.187 102.964 358.25V355.018C103.302 354.871 103.639 354.713 103.966 354.566V354.576ZM102.964 354.387V352.534C103.302 352.418 103.639 352.302 103.966 352.186C104.303 352.071 104.641 351.944 104.967 351.818V353.439C104.63 353.608 104.303 353.766 103.966 353.923C103.629 354.081 103.302 354.229 102.964 354.387ZM103.966 358.661C104.303 358.587 104.641 358.513 104.967 358.429V359.924C104.63 360.04 104.303 360.145 103.966 360.261C103.629 360.366 103.302 360.471 102.964 360.577V358.871C103.302 358.808 103.639 358.734 103.966 358.661ZM103.966 360.882C104.303 360.777 104.641 360.661 104.967 360.545V361.556H102.964V361.198C103.302 361.092 103.639 360.987 103.966 360.882ZM106.57 353.292C106.907 353.113 107.245 352.934 107.571 352.755V357.124C107.245 357.218 106.907 357.313 106.57 357.408C106.243 357.503 105.906 357.587 105.568 357.671V353.808C105.906 353.639 106.243 353.471 106.57 353.292ZM105.568 353.144V351.597C105.906 351.46 106.243 351.334 106.57 351.186C106.907 351.05 107.245 350.902 107.571 350.755V352.071C107.245 352.26 106.907 352.439 106.57 352.618C106.243 352.797 105.906 352.965 105.568 353.134V353.144ZM106.57 358.018C106.907 357.924 107.245 357.84 107.571 357.734V358.955C107.245 359.082 106.907 359.219 106.57 359.345C106.243 359.471 105.906 359.587 105.568 359.713V358.282C105.906 358.197 106.243 358.113 106.57 358.018ZM106.57 359.987C106.907 359.861 107.245 359.734 107.571 359.608V361.566H105.568V360.355C105.906 360.24 106.243 360.113 106.57 359.998V359.987ZM108.763 352.081L109.174 351.839C109.511 351.639 109.849 351.439 110.175 351.239V356.292C110.049 356.334 109.922 356.376 109.796 356.418C109.585 356.492 109.385 356.555 109.174 356.629C108.847 356.734 108.51 356.839 108.172 356.945V352.418C108.373 352.302 108.573 352.197 108.763 352.081ZM108.172 351.744V350.492C108.362 350.407 108.552 350.323 108.742 350.228L109.174 350.028C109.511 349.871 109.849 349.702 110.175 349.534V350.555C109.849 350.755 109.511 350.965 109.174 351.165C108.942 351.302 108.699 351.439 108.467 351.576C108.373 351.629 108.267 351.692 108.172 351.744ZM109.174 357.25C109.448 357.166 109.722 357.071 109.986 356.976L110.175 356.913V357.861C110.038 357.924 109.912 357.976 109.775 358.04C109.574 358.124 109.374 358.218 109.174 358.303C108.847 358.44 108.51 358.587 108.172 358.724V357.566C108.51 357.461 108.847 357.355 109.174 357.25ZM109.174 358.955C109.458 358.84 109.733 358.713 110.017 358.597L110.175 358.524V361.566H108.172V359.376C108.51 359.24 108.847 359.103 109.174 358.966V358.955ZM111.778 350.239C112.115 350.018 112.452 349.797 112.779 349.576V355.313C112.452 355.45 112.115 355.576 111.778 355.713C111.451 355.839 111.114 355.966 110.776 356.081V350.881C111.114 350.671 111.451 350.46 111.778 350.239ZM110.776 350.176V349.228C111.114 349.049 111.451 348.881 111.778 348.702C112.115 348.523 112.452 348.334 112.779 348.144V348.86C112.452 349.081 112.115 349.313 111.778 349.534C111.451 349.755 111.114 349.965 110.776 350.186V350.176ZM111.778 356.345C112.115 356.218 112.452 356.081 112.779 355.955V356.618C112.452 356.787 112.115 356.955 111.778 357.113C111.451 357.271 111.114 357.429 110.776 357.587V356.703C111.114 356.587 111.451 356.46 111.778 356.334V356.345ZM111.778 357.776C112.115 357.618 112.452 357.45 112.779 357.282V361.556H110.776V358.25C111.114 358.092 111.451 357.934 111.778 357.776ZM114.382 348.46C114.719 348.218 115.056 347.965 115.383 347.723V354.166C115.056 354.323 114.719 354.481 114.382 354.629C114.055 354.776 113.718 354.924 113.38 355.071V349.176C113.718 348.944 114.055 348.702 114.382 348.47V348.46ZM113.38 348.449V347.807C113.718 347.607 114.055 347.407 114.382 347.207C114.719 346.997 115.056 346.786 115.383 346.576V346.986C115.056 347.239 114.719 347.481 114.382 347.734C114.055 347.976 113.718 348.218 113.38 348.449ZM114.382 355.281C114.719 355.134 115.056 354.976 115.383 354.818V355.208C115.056 355.397 114.719 355.587 114.382 355.776C114.055 355.955 113.718 356.134 113.38 356.313V355.713C113.718 355.576 114.055 355.429 114.382 355.281ZM114.382 356.45C114.719 356.26 115.056 356.081 115.383 355.892V361.566H113.38V356.987C113.718 356.808 114.055 356.629 114.382 356.45ZM116.986 346.491C117.323 346.218 117.66 345.944 117.987 345.67V352.808C117.66 352.997 117.323 353.176 116.986 353.355C116.659 353.534 116.322 353.702 115.984 353.871V347.27C116.322 347.007 116.659 346.744 116.986 346.491ZM115.974 346.523V346.186C116.311 345.965 116.648 345.733 116.975 345.512C117.313 345.281 117.65 345.039 117.977 344.807V344.902C117.65 345.175 117.313 345.449 116.975 345.733C116.648 345.997 116.311 346.26 115.974 346.533V346.523ZM116.986 354.029C117.323 353.85 117.66 353.671 117.987 353.492V353.587C117.66 353.808 117.323 354.018 116.986 354.239C116.659 354.45 116.322 354.65 115.984 354.86V354.545C116.322 354.376 116.659 354.208 116.986 354.039V354.029ZM116.986 354.934C117.323 354.723 117.66 354.513 117.987 354.292V361.556H115.984V355.534C116.322 355.334 116.659 355.134 116.986 354.924V354.934ZM118.578 361.556V353.892L118.662 353.829C118.957 353.629 119.231 353.418 119.516 353.218V361.556H118.578Z" fill="white"/>
</g>
<defs>
<linearGradient id="paint0_linear_108_10010" x1="187.25" y1="4.61523" x2="187.25" y2="592.5" gradientUnits="userSpaceOnUse">
<stop stop-color="#28C027"/>
<stop offset="1" stop-color="#189816"/>
</linearGradient>
<linearGradient id="paint1_linear_108_10010" x1="179.5" y1="0" x2="179.5" y2="630.5" gradientUnits="userSpaceOnUse">
<stop stop-color="#28C027"/>
<stop offset="1" stop-color="#189816"/>
</linearGradient>
<linearGradient id="paint2_linear_108_10010" x1="188" y1="14" x2="188" y2="600" gradientUnits="userSpaceOnUse">
<stop stop-color="#28C027"/>
<stop offset="1" stop-color="#189816"/>
</linearGradient>
<clipPath id="clip0_108_10010">
<rect width="373" height="142" fill="white" transform="translate(2 241)"/>
</clipPath>
</defs>
</svg>
