<svg width="28" height="28" viewBox="0 0 28 28" fill="none" xmlns="http://www.w3.org/2000/svg">
<rect width="28" height="28" rx="14" fill="#4AB749"/>
<path d="M12.4395 18.8742C13.8696 18.8742 15.2588 18.397 16.3871 17.5181L20.6436 21.7753C20.9616 22.0824 21.4682 22.0736 21.7753 21.7556C22.0749 21.4454 22.0749 20.9536 21.7753 20.6434L17.5188 16.3862C19.6994 13.5787 19.1916 9.53486 16.3846 7.35393C13.5776 5.17299 9.53433 5.68085 7.35372 8.48831C5.17311 11.2958 5.6809 15.3397 8.48793 17.5206C9.61802 18.3986 11.0085 18.8749 12.4395 18.8742ZM9.01943 9.01743C10.9083 7.12824 13.9708 7.1282 15.8597 9.01736C17.7486 10.9065 17.7486 13.9695 15.8598 15.8586C13.9709 17.7478 10.9084 17.7479 9.0195 15.8587C9.01947 15.8587 9.01947 15.8587 9.01943 15.8586C7.13056 13.9833 7.11943 10.9315 8.99454 9.04233C9.00283 9.034 9.01111 9.02572 9.01943 9.01743Z" fill="white"/>
</svg>
