<svg width="25" height="24" viewBox="0 0 25 24" fill="none" xmlns="http://www.w3.org/2000/svg">
<path fill-rule="evenodd" clip-rule="evenodd" d="M12.3335 2C6.81065 2 2.3335 6.47715 2.3335 12C2.3335 17.5228 6.81065 22 12.3335 22C17.8563 22 22.3335 17.5228 22.3335 12C22.3335 6.47715 17.8563 2 12.3335 2ZM4.58553 10C4.421 10.6392 4.3335 11.3094 4.3335 12C4.3335 12.6906 4.421 13.3608 4.58553 14H7.42782C7.36577 13.3521 7.3335 12.6829 7.3335 12C7.3335 11.3171 7.36577 10.6479 7.42782 10H4.58553ZM5.40375 8H7.72667C7.93864 6.9765 8.23111 6.04022 8.59126 5.2299C8.65152 5.09431 8.71413 4.96122 8.77911 4.83099C7.36641 5.53275 6.19059 6.63979 5.40375 8ZM9.43795 10C9.37001 10.6376 9.3335 11.3072 9.3335 12C9.3335 12.6928 9.37001 13.3624 9.43795 14H15.229C15.297 13.3624 15.3335 12.6928 15.3335 12C15.3335 11.3072 15.297 10.6376 15.229 10H9.43795ZM14.8919 8H9.77513C9.94881 7.26765 10.1673 6.60826 10.4189 6.04218C10.7469 5.30422 11.1115 4.76892 11.4659 4.43166C11.8151 4.0993 12.1066 4 12.3335 4C12.5604 4 12.8519 4.0993 13.2011 4.43166C13.5555 4.76892 13.9201 5.30422 14.2481 6.04218C14.4997 6.60826 14.7182 7.26765 14.8919 8ZM17.2392 10C17.3012 10.6479 17.3335 11.3171 17.3335 12C17.3335 12.6829 17.3012 13.3521 17.2392 14H20.0815C20.246 13.3608 20.3335 12.6906 20.3335 12C20.3335 11.3094 20.246 10.6392 20.0815 10H17.2392ZM19.2632 8H16.9403C16.7284 6.9765 16.4359 6.04022 16.0757 5.2299C16.0155 5.09431 15.9529 4.96122 15.8879 4.83099C17.3006 5.53275 18.4764 6.63979 19.2632 8ZM8.77911 19.169C7.36641 18.4672 6.19059 17.3602 5.40375 16H7.72667C7.93864 17.0235 8.23111 17.9598 8.59126 18.7701C8.65152 18.9057 8.71413 19.0388 8.77911 19.169ZM10.4189 17.9578C10.1673 17.3917 9.94881 16.7324 9.77513 16H14.8919C14.7182 16.7324 14.4997 17.3917 14.2481 17.9578C13.9201 18.6958 13.5555 19.2311 13.2011 19.5683C12.8519 19.9007 12.5604 20 12.3335 20C12.1066 20 11.8151 19.9007 11.4659 19.5683C11.1115 19.2311 10.7469 18.6958 10.4189 17.9578ZM16.0757 18.7701C16.4359 17.9598 16.7284 17.0235 16.9403 16H19.2632C18.4764 17.3602 17.3006 18.4672 15.8879 19.169C15.9529 19.0388 16.0155 18.9057 16.0757 18.7701Z" fill="#6F767E"/>
</svg>
